STARTFONT 2.3
FONT -FontForge-Roboto Condensed-Book-R-Condensed---18-180-72-72-P-89-ISO10646-1
SIZE 18 72 72  2
FONTBOUNDINGBOX 31 24 -13 -5
COMMENT "Generated by fontforge, http://fontforge.sourceforge.net"
COMMENT "Copyright 2011 Google Inc. All Rights Reserved."
STARTPROPERTIES 42
FOUNDRY "FontForge"
FAMILY_NAME "Roboto Condensed"
WEIGHT_NAME "Book"
SLANT "R"
SETWIDTH_NAME "Condensed"
ADD_STYLE_NAME ""
PIXEL_SIZE 18
POINT_SIZE 180
RESOLUTION_X 72
RESOLUTION_Y 72
SPACING "P"
AVERAGE_WIDTH 89
CHARSET_REGISTRY "ISO10646"
CHARSET_ENCODING "1"
FONTNAME_REGISTRY ""
CHARSET_COLLECTIONS "ISO8859-2 ISO8859-5 ISO8859-7 ISO8859-9 ISO8859-4 ISO10646-1"
BITS_PER_PIXEL 2
FONT_NAME "RobotoCondensed-Regular"
FACE_NAME "Roboto Condensed"
COPYRIGHT "Copyright 2011 Google Inc. All Rights Reserved."
FONT_VERSION "2.137; 2017"
FONT_ASCENT 14
FONT_DESCENT 4
UNDERLINE_POSITION -2
UNDERLINE_THICKNESS 1
X_HEIGHT 9
CAP_HEIGHT 12
DEFAULT_CHAR 1
RAW_ASCENT 750
RAW_DESCENT 250
NORM_SPACE 4
RELATIVE_WEIGHT 40
RELATIVE_SETWIDTH 50
SUPERSCRIPT_X 0
SUPERSCRIPT_Y 8
SUPERSCRIPT_SIZE 11
SUBSCRIPT_X 0
SUBSCRIPT_Y 2
SUBSCRIPT_SIZE 11
FIGURE_WIDTH 9
AVG_LOWERCASE_WIDTH 87
AVG_UPPERCASE_WIDTH 103
ENDPROPERTIES
CHARS 1296
STARTCHAR uni0000
ENCODING 0
SWIDTH 0 0
DWIDTH 0 0
BBX 1 1 0 0
BITMAP
00
ENDCHAR
STARTCHAR uni0002
ENCODING 2
SWIDTH 0 0
DWIDTH 0 0
BBX 1 1 0 0
BITMAP
00
ENDCHAR
STARTCHAR uni000D
ENCODING 13
SWIDTH 229 0
DWIDTH 4 0
BBX 1 1 0 0
BITMAP
00
ENDCHAR
STARTCHAR space
ENCODING 32
SWIDTH 229 0
DWIDTH 4 0
BBX 1 1 0 0
BITMAP
00
ENDCHAR
STARTCHAR exclam
ENCODING 33
SWIDTH 245 0
DWIDTH 4 0
BBX 2 13 1 0
BITMAP
B0
B0
B0
B0
B0
B0
B0
B0
70
10
00
60
70
ENDCHAR
STARTCHAR quotedbl
ENCODING 34
SWIDTH 319 0
DWIDTH 6 0
BBX 4 4 1 10
BITMAP
96
96
96
96
ENDCHAR
STARTCHAR numbersign
ENCODING 35
SWIDTH 547 0
DWIDTH 10 0
BBX 9 13 1 0
BITMAP
028900
034D00
034D00
030C00
7FFF40
1A6900
0A2800
0D3400
FFFE00
5D7500
1C7000
28A000
28A000
ENDCHAR
STARTCHAR dollar
ENCODING 36
SWIDTH 493 0
DWIDTH 9 0
BBX 7 17 1 -2
BITMAP
0340
0340
1BD0
39B4
7038
B028
7400
3D00
1BD0
01F4
0038
E02C
E038
79B4
1FD0
0300
0200
ENDCHAR
STARTCHAR percent
ENCODING 37
SWIDTH 632 0
DWIDTH 11 0
BBX 10 13 1 0
BITMAP
7D0000
974500
C24D00
C25800
977400
7D6000
00D000
018B80
0368D0
0634A0
0D34A0
0828D0
000B80
ENDCHAR
STARTCHAR ampersand
ENCODING 38
SWIDTH 543 0
DWIDTH 10 0
BBX 9 13 1 0
BITMAP
1B9000
3DB000
747000
747000
39E000
1F8000
2F4000
77C700
E1EA00
D0BE00
E03D00
79BE00
1F9B40
ENDCHAR
STARTCHAR quotesingle
ENCODING 39
SWIDTH 174 0
DWIDTH 3 0
BBX 2 4 1 10
BITMAP
D0
D0
C0
C0
ENDCHAR
STARTCHAR parenleft
ENCODING 40
SWIDTH 313 0
DWIDTH 6 0
BBX 4 18 1 -4
BITMAP
02
0A
1C
28
34
70
B0
A0
A0
A0
A0
B0
70
34
28
1C
0A
02
ENDCHAR
STARTCHAR parenright
ENCODING 41
SWIDTH 318 0
DWIDTH 6 0
BBX 5 18 0 -4
BITMAP
5000
3400
1C00
0D00
0A00
0700
0740
0340
0340
0340
0340
0740
0700
0A00
0D00
1C00
3400
5000
ENDCHAR
STARTCHAR asterisk
ENCODING 42
SWIDTH 430 0
DWIDTH 8 0
BBX 8 8 0 5
BITMAP
0280
0280
5288
BFFD
0BD0
0AE0
2C74
0410
ENDCHAR
STARTCHAR plus
ENCODING 43
SWIDTH 496 0
DWIDTH 9 0
BBX 8 10 0 1
BITMAP
0190
01D0
01D0
01D0
7FFF
2AEA
01D0
01D0
01D0
0180
ENDCHAR
STARTCHAR comma
ENCODING 44
SWIDTH 196 0
DWIDTH 4 0
BBX 3 5 0 -3
BITMAP
28
38
38
74
60
ENDCHAR
STARTCHAR hyphen
ENCODING 45
SWIDTH 248 0
DWIDTH 4 0
BBX 4 2 0 4
BITMAP
BF
55
ENDCHAR
STARTCHAR period
ENCODING 46
SWIDTH 263 0
DWIDTH 5 0
BBX 2 2 1 0
BITMAP
70
B0
ENDCHAR
STARTCHAR slash
ENCODING 47
SWIDTH 370 0
DWIDTH 7 0
BBX 6 14 0 -1
BITMAP
0070
00A0
00D0
01C0
0280
0340
0700
0A00
0D00
1C00
2800
3400
7000
A000
ENDCHAR
STARTCHAR zero
ENCODING 48
SWIDTH 493 0
DWIDTH 9 0
BBX 7 13 1 0
BITMAP
1F90
79B0
B034
E028
E028
E02C
E02C
E02C
E028
E038
B034
79B0
1F90
ENDCHAR
STARTCHAR one
ENCODING 49
SWIDTH 493 0
DWIDTH 9 0
BBX 5 13 1 0
BITMAP
0280
2F80
B780
4380
0380
0380
0380
0380
0380
0380
0380
0380
0380
ENDCHAR
STARTCHAR two
ENCODING 50
SWIDTH 493 0
DWIDTH 9 0
BBX 8 13 1 0
BITMAP
1F90
79B4
E038
D038
0038
0074
00E0
02C0
0740
1E00
3800
B554
FFFD
ENDCHAR
STARTCHAR three
ENCODING 51
SWIDTH 493 0
DWIDTH 9 0
BBX 7 13 1 0
BITMAP
1F80
79B0
E074
9038
0034
00B0
0FD0
05B0
0038
9038
E038
B9B0
2F90
ENDCHAR
STARTCHAR four
ENCODING 52
SWIDTH 493 0
DWIDTH 9 0
BBX 9 13 0 0
BITMAP
003C00
007C00
00FC00
02EC00
036C00
0B2C00
0D2C00
2C2C00
342C00
7FFF40
156D00
002C00
002C00
ENDCHAR
STARTCHAR five
ENCODING 53
SWIDTH 493 0
DWIDTH 9 0
BBX 7 13 1 0
BITMAP
2FF8
3AA4
3400
3400
7BD0
7AB4
1038
002C
001C
502C
7028
39B4
1BD0
ENDCHAR
STARTCHAR six
ENCODING 54
SWIDTH 493 0
DWIDTH 9 0
BBX 7 13 1 0
BITMAP
06D0
1F80
3800
7000
B7D0
BDB4
B038
E02C
A02C
B02C
7438
3DB4
0BD0
ENDCHAR
STARTCHAR seven
ENCODING 55
SWIDTH 493 0
DWIDTH 9 0
BBX 8 13 0 0
BITMAP
7FFF
155B
000E
001C
0028
0034
0070
00E0
01D0
02C0
0380
0740
0B00
ENDCHAR
STARTCHAR eight
ENCODING 56
SWIDTH 493 0
DWIDTH 9 0
BBX 7 13 1 0
BITMAP
1B90
79B0
B074
B038
B034
74B0
2FD0
79B0
A038
E028
E038
79B4
1F90
ENDCHAR
STARTCHAR nine
ENCODING 57
SWIDTH 493 0
DWIDTH 9 0
BBX 7 13 1 0
BITMAP
1F80
79E0
A074
E038
D038
E038
B4B8
3FF8
0534
0074
00B0
1BD0
2E40
ENDCHAR
STARTCHAR colon
ENCODING 58
SWIDTH 233 0
DWIDTH 4 0
BBX 2 10 1 0
BITMAP
B0
B0
00
00
00
00
00
00
B0
B0
ENDCHAR
STARTCHAR semicolon
ENCODING 59
SWIDTH 202 0
DWIDTH 4 0
BBX 3 13 0 -3
BITMAP
28
28
00
00
00
00
00
00
28
28
38
74
60
ENDCHAR
STARTCHAR less
ENCODING 60
SWIDTH 445 0
DWIDTH 8 0
BBX 7 8 0 2
BITMAP
0018
01B8
0BD0
7D00
7D00
0B90
01B8
0018
ENDCHAR
STARTCHAR equal
ENCODING 61
SWIDTH 479 0
DWIDTH 9 0
BBX 7 6 1 3
BITMAP
BFF4
5554
0000
0000
BFF4
5554
ENDCHAR
STARTCHAR greater
ENCODING 62
SWIDTH 459 0
DWIDTH 8 0
BBX 7 8 1 2
BITMAP
9000
B900
1B90
01B4
01B4
1B90
B900
9000
ENDCHAR
STARTCHAR question
ENCODING 63
SWIDTH 421 0
DWIDTH 8 0
BBX 7 13 0 0
BITMAP
0BD0
2DB4
7438
0028
0038
00B4
01D0
0380
0740
0100
0000
0240
0340
ENDCHAR
STARTCHAR at
ENCODING 64
SWIDTH 769 0
DWIDTH 14 0
BBX 12 17 1 -4
BITMAP
01BF80
0795A0
1D0028
28000D
702E4A
60A686
91C243
D28343
D28343
D28346
D28746
92DB5C
A0B5F4
700000
280000
0A4540
01BE40
ENDCHAR
STARTCHAR A
ENCODING 65
SWIDTH 576 0
DWIDTH 10 0
BBX 10 13 0 0
BITMAP
00B000
00F400
01F800
029C00
038D00
074A00
0B0B00
0E0740
1FFF80
2D56C0
3801D0
3400E0
7400B0
ENDCHAR
STARTCHAR B
ENCODING 66
SWIDTH 545 0
DWIDTH 10 0
BBX 8 13 1 0
BITMAP
BFE4
B57C
B01D
B00E
B01D
B02C
BFF4
B56D
B00E
B00E
B00E
B56D
BFE4
ENDCHAR
STARTCHAR C
ENCODING 67
SWIDTH 566 0
DWIDTH 10 0
BBX 9 13 1 0
BITMAP
0BF400
2E6E00
740B00
B00740
E00100
E00000
E00000
E00000
E00100
B00740
740B00
2E6E00
0BF400
ENDCHAR
STARTCHAR D
ENCODING 68
SWIDTH 570 0
DWIDTH 10 0
BBX 8 13 1 0
BITMAP
BFE0
B5BC
B01E
B00B
B007
B007
B007
B007
B00B
B00B
B01E
B5BC
BFE0
ENDCHAR
STARTCHAR E
ENCODING 69
SWIDTH 496 0
DWIDTH 9 0
BBX 8 13 1 0
BITMAP
BFFD
B554
B000
B000
B000
B000
BFF8
B554
B000
B000
B000
B554
BFFD
ENDCHAR
STARTCHAR F
ENCODING 70
SWIDTH 480 0
DWIDTH 9 0
BBX 7 13 1 0
BITMAP
BFFC
B554
B000
B000
B000
B000
BFF4
B550
B000
B000
B000
B000
B000
ENDCHAR
STARTCHAR G
ENCODING 71
SWIDTH 590 0
DWIDTH 11 0
BBX 9 13 1 0
BITMAP
0BF400
3E6E00
740B00
B00740
E00000
E00000
E00000
E0BF40
E05B40
B00740
740740
2E6F40
0BF900
ENDCHAR
STARTCHAR H
ENCODING 72
SWIDTH 620 0
DWIDTH 11 0
BBX 9 13 1 0
BITMAP
B00380
B00380
B00380
B00380
B00380
B00380
BFFF80
B55780
B00380
B00380
B00380
B00380
B00380
ENDCHAR
STARTCHAR I
ENCODING 73
SWIDTH 250 0
DWIDTH 5 0
BBX 2 13 1 0
BITMAP
B0
B0
B0
B0
B0
B0
B0
B0
B0
B0
B0
B0
B0
ENDCHAR
STARTCHAR J
ENCODING 74
SWIDTH 483 0
DWIDTH 9 0
BBX 8 13 0 0
BITMAP
001D
001D
001D
001D
001D
001D
001D
001D
001D
601D
741D
3DB8
0BE0
ENDCHAR
STARTCHAR K
ENCODING 75
SWIDTH 544 0
DWIDTH 10 0
BBX 9 13 1 0
BITMAP
B00F00
B02D00
B07800
B0F000
B2D000
B74000
BF8000
BAD000
B0F000
B07800
B02D00
B00E00
B00740
ENDCHAR
STARTCHAR L
ENCODING 76
SWIDTH 475 0
DWIDTH 9 0
BBX 7 13 1 0
BITMAP
B000
B000
B000
B000
B000
B000
B000
B000
B000
B000
B000
B554
BFFC
ENDCHAR
STARTCHAR M
ENCODING 77
SWIDTH 755 0
DWIDTH 14 0
BBX 12 13 1 0
BITMAP
B8003D
BC007D
BD00BD
BE00ED
BB01ED
B742DD
B3839D
B2875D
B1CB1D
B0DE1D
B0BD1D
B07C1D
B0381D
ENDCHAR
STARTCHAR N
ENCODING 78
SWIDTH 619 0
DWIDTH 11 0
BBX 9 13 1 0
BITMAP
B40380
B80380
BD0380
BA0380
B74380
B28380
B1D380
B0A380
B07780
B02F80
B00F80
B00B80
B00380
ENDCHAR
STARTCHAR O
ENCODING 79
SWIDTH 600 0
DWIDTH 11 0
BBX 9 13 1 0
BITMAP
0BF400
2EAE00
740B40
B00340
E00380
E00380
E00380
E00380
E00380
B00340
740B40
2E6E00
0BF400
ENDCHAR
STARTCHAR P
ENCODING 80
SWIDTH 554 0
DWIDTH 10 0
BBX 9 13 1 0
BITMAP
BFF400
B56D00
B00B00
B00740
B00740
B00B00
B01E00
BFFC00
B55000
B00000
B00000
B00000
B00000
ENDCHAR
STARTCHAR Q
ENCODING 81
SWIDTH 600 0
DWIDTH 11 0
BBX 9 15 1 -2
BITMAP
0BF400
2EAE00
740B00
B00740
E00380
E00380
E00380
E00380
E00380
B00740
740B00
2E6E00
0BFD00
000B40
000240
ENDCHAR
STARTCHAR R
ENCODING 82
SWIDTH 530 0
DWIDTH 10 0
BBX 8 13 1 0
BITMAP
BFE4
B57D
B00E
B00E
B00E
B02D
BFF8
B5B0
B074
B038
B01D
B00E
B00B
ENDCHAR
STARTCHAR S
ENCODING 83
SWIDTH 518 0
DWIDTH 9 0
BBX 9 13 0 0
BITMAP
06F800
1E6E00
2C0740
380340
2C0000
1F8000
06F800
006F00
000740
740380
380740
1E5F00
06F800
ENDCHAR
STARTCHAR T
ENCODING 84
SWIDTH 520 0
DWIDTH 9 0
BBX 9 13 0 0
BITMAP
7FFFC0
55E540
00E000
00E000
00E000
00E000
00E000
00E000
00E000
00E000
00E000
00E000
00E000
ENDCHAR
STARTCHAR U
ENCODING 85
SWIDTH 561 0
DWIDTH 10 0
BBX 8 13 1 0
BITMAP
E00B
E00B
E00B
E00B
E00B
E00B
E00B
E00B
E00B
A00B
B00E
7D6D
1BE4
ENDCHAR
STARTCHAR V
ENCODING 86
SWIDTH 560 0
DWIDTH 10 0
BBX 10 13 0 0
BITMAP
7401E0
7801D0
3802C0
2C0380
1D0740
0E0B00
0B0E00
074D00
035C00
02A800
01F800
00F400
00B000
ENDCHAR
STARTCHAR W
ENCODING 87
SWIDTH 761 0
DWIDTH 14 0
BBX 13 13 0 0
BITMAP
740A01C0
380F02C0
381F4280
2C1F4380
1C2A8340
1D35C700
0D71CB00
0E70DA00
0AA0AE00
0BD0AD00
07D07D00
03C03C00
03803800
ENDCHAR
STARTCHAR X
ENCODING 88
SWIDTH 550 0
DWIDTH 10 0
BBX 8 13 1 0
BITMAP
E00F
B41D
382C
2D74
0EB0
07D0
03C0
0BD0
0EB0
2C78
382C
B41E
E00B
ENDCHAR
STARTCHAR Y
ENCODING 89
SWIDTH 524 0
DWIDTH 9 0
BBX 9 13 0 0
BITMAP
B403C0
380740
2C0B00
1D0E00
0B1C00
077800
03F400
01E000
00E000
00E000
00E000
00E000
00E000
ENDCHAR
STARTCHAR Z
ENCODING 90
SWIDTH 522 0
DWIDTH 9 0
BBX 9 13 0 0
BITMAP
3FFF40
155B40
000E00
002C00
003800
00B000
01D000
02C000
074000
0E0000
2D0000
3D5540
7FFF80
ENDCHAR
STARTCHAR bracketleft
ENCODING 91
SWIDTH 250 0
DWIDTH 5 0
BBX 3 18 1 -3
BITMAP
BC
B4
A0
A0
A0
A0
A0
A0
A0
A0
A0
A0
A0
A0
A0
A0
B4
BC
ENDCHAR
STARTCHAR backslash
ENCODING 92
SWIDTH 369 0
DWIDTH 7 0
BBX 7 14 0 -1
BITMAP
7000
3400
2800
1C00
0D00
0A00
0700
0340
0280
02C0
01D0
00E0
00B0
0074
ENDCHAR
STARTCHAR bracketright
ENCODING 93
SWIDTH 250 0
DWIDTH 5 0
BBX 4 18 0 -3
BITMAP
BD
6D
1D
1D
1D
1D
1D
1D
1D
1D
1D
1D
1D
1D
1D
1D
6D
BD
ENDCHAR
STARTCHAR asciicircum
ENCODING 94
SWIDTH 371 0
DWIDTH 7 0
BBX 6 6 0 7
BITMAP
0700
0B40
0E80
1DC0
38E0
74B0
ENDCHAR
STARTCHAR underscore
ENCODING 95
SWIDTH 404 0
DWIDTH 7 0
BBX 7 2 0 -2
BITMAP
BFFC
5554
ENDCHAR
STARTCHAR grave
ENCODING 96
SWIDTH 309 0
DWIDTH 6 0
BBX 3 3 1 11
BITMAP
E0
74
28
ENDCHAR
STARTCHAR a
ENCODING 97
SWIDTH 479 0
DWIDTH 9 0
BBX 7 10 1 0
BITMAP
1F90
79B0
A074
0074
1BF4
7974
E074
E074
BAF4
2F78
ENDCHAR
STARTCHAR b
ENCODING 98
SWIDTH 493 0
DWIDTH 9 0
BBX 7 14 1 0
BITMAP
A000
A000
A000
A000
ABE0
B9B4
B028
A02C
A02C
A02C
A02C
B038
B9B4
ABE0
ENDCHAR
STARTCHAR c
ENCODING 99
SWIDTH 461 0
DWIDTH 8 0
BBX 7 10 1 0
BITMAP
1F90
79B0
E038
D014
D000
D000
D010
E038
79B0
1F90
ENDCHAR
STARTCHAR d
ENCODING 100
SWIDTH 496 0
DWIDTH 9 0
BBX 7 14 1 0
BITMAP
0038
0038
0038
0038
2F78
B9B8
E038
D038
D038
D038
D038
E038
79B8
2F68
ENDCHAR
STARTCHAR e
ENCODING 101
SWIDTH 468 0
DWIDTH 8 0
BBX 7 10 1 0
BITMAP
1F90
79B0
A038
D038
FFF8
E554
E000
E000
7974
1FE0
ENDCHAR
STARTCHAR f
ENCODING 102
SWIDTH 316 0
DWIDTH 6 0
BBX 6 14 0 0
BITMAP
02D0
0B50
0E00
0D00
7FC0
1E40
0D00
0D00
0D00
0D00
0D00
0D00
0D00
0D00
ENDCHAR
STARTCHAR g
ENCODING 103
SWIDTH 492 0
DWIDTH 9 0
BBX 7 14 1 -4
BITMAP
2FA8
B9B8
E038
D038
D038
D038
D038
E038
79B8
2FB8
0038
0038
75B0
1F90
ENDCHAR
STARTCHAR h
ENCODING 104
SWIDTH 482 0
DWIDTH 9 0
BBX 7 14 1 0
BITMAP
E000
E000
E000
E000
EBD0
F9B0
F034
E038
E038
E038
E038
E038
E038
E038
ENDCHAR
STARTCHAR i
ENCODING 105
SWIDTH 229 0
DWIDTH 4 0
BBX 2 14 1 0
BITMAP
60
A0
00
00
B0
B0
B0
B0
B0
B0
B0
B0
B0
B0
ENDCHAR
STARTCHAR j
ENCODING 106
SWIDTH 223 0
DWIDTH 4 0
BBX 3 18 0 -4
BITMAP
28
28
00
00
28
28
28
28
28
28
28
28
28
28
28
28
78
E0
ENDCHAR
STARTCHAR k
ENCODING 107
SWIDTH 450 0
DWIDTH 8 0
BBX 7 14 1 0
BITMAP
A000
A000
A000
A000
A0B4
A1D0
A380
AB00
BE00
BB40
A3C0
A1D0
A0B0
A038
ENDCHAR
STARTCHAR l
ENCODING 108
SWIDTH 229 0
DWIDTH 4 0
BBX 2 14 1 0
BITMAP
B0
B0
B0
B0
B0
B0
B0
B0
B0
B0
B0
B0
B0
B0
ENDCHAR
STARTCHAR m
ENCODING 109
SWIDTH 752 0
DWIDTH 14 0
BBX 12 10 1 0
BITMAP
ABD2F4
B9BE7C
A0781D
A0381D
A0381D
A0381D
A0381D
A0381D
A0381D
A0381D
ENDCHAR
STARTCHAR n
ENCODING 110
SWIDTH 483 0
DWIDTH 9 0
BBX 7 10 1 0
BITMAP
EBD0
F9B0
F034
E038
E038
E038
E038
E038
E038
E038
ENDCHAR
STARTCHAR o
ENCODING 111
SWIDTH 501 0
DWIDTH 9 0
BBX 8 10 1 0
BITMAP
1FD0
79B4
B028
E01C
D01D
D01C
E01C
A02C
79B4
1FD0
ENDCHAR
STARTCHAR p
ENCODING 112
SWIDTH 493 0
DWIDTH 9 0
BBX 7 14 1 -4
BITMAP
ABE0
B9B4
A038
A02C
A02C
A02C
A02C
A038
B9B4
ABE0
A000
A000
A000
A000
ENDCHAR
STARTCHAR q
ENCODING 113
SWIDTH 500 0
DWIDTH 9 0
BBX 7 14 1 -4
BITMAP
2FA8
B9B8
E038
D038
D038
D038
D038
E038
B9B8
2FB8
0038
0038
0038
0038
ENDCHAR
STARTCHAR r
ENCODING 114
SWIDTH 304 0
DWIDTH 5 0
BBX 4 10 1 0
BITMAP
EB
FE
F0
E0
E0
E0
E0
E0
E0
E0
ENDCHAR
STARTCHAR s
ENCODING 115
SWIDTH 455 0
DWIDTH 8 0
BBX 7 10 1 0
BITMAP
2F80
79E0
A070
B400
3E40
07E0
00B4
E074
B5B0
2F90
ENDCHAR
STARTCHAR t
ENCODING 116
SWIDTH 295 0
DWIDTH 5 0
BBX 5 12 0 0
BITMAP
1D00
1D00
BF80
6D00
1D00
1D00
1D00
1D00
1D00
1D00
1E40
0B80
ENDCHAR
STARTCHAR u
ENCODING 117
SWIDTH 483 0
DWIDTH 9 0
BBX 7 10 1 0
BITMAP
E038
E038
E038
E038
E038
E038
E038
B038
79F8
2F78
ENDCHAR
STARTCHAR v
ENCODING 118
SWIDTH 427 0
DWIDTH 8 0
BBX 7 10 0 0
BITMAP
701C
3428
3838
2C74
1C70
0DA0
0AD0
07C0
03C0
0380
ENDCHAR
STARTCHAR w
ENCODING 119
SWIDTH 649 0
DWIDTH 12 0
BBX 11 10 0 0
BITMAP
70381C
74382C
387C28
28AD34
2CDA74
1DCB70
0EC7A0
0B83D0
0B42D0
0701C0
ENDCHAR
STARTCHAR x
ENCODING 120
SWIDTH 438 0
DWIDTH 8 0
BBX 7 10 0 0
BITMAP
782C
2C38
1DB0
0BE0
03C0
07C0
0AE0
1DB0
2C38
742C
ENDCHAR
STARTCHAR y
ENCODING 121
SWIDTH 416 0
DWIDTH 8 0
BBX 7 14 0 -4
BITMAP
B02C
7438
3834
2C74
1CB0
0DA0
0ED0
0BC0
0780
0380
0340
0700
1E00
7800
ENDCHAR
STARTCHAR z
ENCODING 122
SWIDTH 438 0
DWIDTH 8 0
BBX 8 10 0 0
BITMAP
3FFC
1578
0074
00E0
02C0
0740
0B00
1D00
3D54
7FFD
ENDCHAR
STARTCHAR braceleft
ENCODING 123
SWIDTH 306 0
DWIDTH 6 0
BBX 5 17 0 -3
BITMAP
0180
0780
0B00
0A00
0E00
0E00
0E00
1D00
7800
2D00
0E00
0E00
0E00
0A00
0B00
0740
0180
ENDCHAR
STARTCHAR bar
ENCODING 124
SWIDTH 243 0
DWIDTH 4 0
BBX 2 15 1 -2
BITMAP
70
70
70
70
70
70
70
70
70
70
70
70
70
70
70
ENDCHAR
STARTCHAR braceright
ENCODING 125
SWIDTH 306 0
DWIDTH 6 0
BBX 5 17 0 -3
BITMAP
6000
3800
1C00
1D00
1D00
1D00
0D00
0E00
07C0
0B40
0D00
1D00
1D00
1D00
1C00
3800
6000
ENDCHAR
STARTCHAR asciitilde
ENCODING 126
SWIDTH 589 0
DWIDTH 11 0
BBX 9 4 1 4
BITMAP
050000
3F8340
A2EB00
D07D00
ENDCHAR
STARTCHAR uni00A0
ENCODING 160
SWIDTH 229 0
DWIDTH 4 0
BBX 1 1 0 0
BITMAP
00
ENDCHAR
STARTCHAR exclamdown
ENCODING 161
SWIDTH 231 0
DWIDTH 4 0
BBX 2 13 1 -3
BITMAP
A0
60
00
50
B0
B0
B0
B0
B0
B0
B0
B0
B0
ENDCHAR
STARTCHAR cent
ENCODING 162
SWIDTH 479 0
DWIDTH 9 0
BBX 7 14 1 -2
BITMAP
0740
0740
1FD0
79B4
B038
E014
E000
D000
E000
B038
79B4
1FD0
0740
0740
ENDCHAR
STARTCHAR sterling
ENCODING 163
SWIDTH 510 0
DWIDTH 9 0
BBX 8 13 1 0
BITMAP
07E0
1E7C
381D
3804
3800
3800
FFC0
7940
3800
3800
3800
B955
FFFE
ENDCHAR
STARTCHAR currency
ENCODING 164
SWIDTH 712 0
DWIDTH 13 0
BBX 11 11 1 0
BITMAP
A2FE28
BFABF4
3D01F0
740074
B00038
A00038
B00038
740074
3D01F0
BFABF8
62FE24
ENDCHAR
STARTCHAR yen
ENCODING 165
SWIDTH 463 0
DWIDTH 8 0
BBX 8 13 0 0
BITMAP
B40F
381D
2C2C
1D38
0A70
07E0
3FFD
02C0
02C0
3FFD
02C0
02C0
02C0
ENDCHAR
STARTCHAR brokenbar
ENCODING 166
SWIDTH 239 0
DWIDTH 4 0
BBX 2 15 1 -2
BITMAP
B0
B0
B0
B0
B0
B0
B0
00
00
B0
B0
B0
B0
B0
B0
ENDCHAR
STARTCHAR section
ENCODING 167
SWIDTH 537 0
DWIDTH 10 0
BBX 8 17 1 -4
BITMAP
1BE0
797C
B01D
A009
B400
3F80
B6F8
D02D
E00E
B40E
7FAD
06F8
006C
901D
E01D
B978
1BE0
ENDCHAR
STARTCHAR dieresis
ENCODING 168
SWIDTH 417 0
DWIDTH 8 0
BBX 6 2 1 11
BITMAP
9090
E1D0
ENDCHAR
STARTCHAR copyright
ENCODING 169
SWIDTH 785 0
DWIDTH 14 0
BBX 14 13 0 0
BITMAP
006F9000
02906800
0A000700
182F8280
34A5A0C0
30D050C0
70C00090
30D050C0
34A5A0C0
182F8280
0A000700
02906800
006F9000
ENDCHAR
STARTCHAR ordfeminine
ENCODING 170
SWIDTH 395 0
DWIDTH 7 0
BBX 5 7 1 6
BITMAP
2E00
B680
0280
2F80
A280
A6C0
7EC0
ENDCHAR
STARTCHAR guillemotleft
ENCODING 171
SWIDTH 417 0
DWIDTH 8 0
BBX 6 7 1 1
BITMAP
1C90
35C0
B340
DB00
B340
35C0
1C90
ENDCHAR
STARTCHAR logicalnot
ENCODING 172
SWIDTH 487 0
DWIDTH 9 0
BBX 7 4 1 3
BITMAP
FFF4
55B4
0074
0074
ENDCHAR
STARTCHAR uni00AD
ENCODING 173
SWIDTH 248 0
DWIDTH 4 0
BBX 4 2 0 4
BITMAP
BF
55
ENDCHAR
STARTCHAR registered
ENCODING 174
SWIDTH 786 0
DWIDTH 14 0
BBX 14 13 0 0
BITMAP
006F9000
02906800
0A000700
18BF8280
34A0A0C0
30A0A0C0
60BFC090
30A1A0C0
34A0A0C0
18A06280
0A000700
02906800
006F9000
ENDCHAR
STARTCHAR macron
ENCODING 175
SWIDTH 414 0
DWIDTH 7 0
BBX 6 2 1 11
BITMAP
BFD0
5540
ENDCHAR
STARTCHAR degree
ENCODING 176
SWIDTH 373 0
DWIDTH 7 0
BBX 5 4 1 9
BITMAP
2E00
A240
9240
7E00
ENDCHAR
STARTCHAR plusminus
ENCODING 177
SWIDTH 469 0
DWIDTH 8 0
BBX 7 12 1 0
BITMAP
0600
0700
0700
0700
FFF8
5B54
0700
0700
0700
0100
5550
BFF4
ENDCHAR
STARTCHAR uni00B2
ENCODING 178
SWIDTH 329 0
DWIDTH 6 0
BBX 6 7 0 6
BITMAP
1F40
76C0
11C0
0380
0A00
2800
7FD0
ENDCHAR
STARTCHAR uni00B3
ENCODING 179
SWIDTH 329 0
DWIDTH 6 0
BBX 5 7 0 6
BITMAP
2F40
76C0
01C0
0F40
01C0
76C0
2F40
ENDCHAR
STARTCHAR acute
ENCODING 180
SWIDTH 313 0
DWIDTH 6 0
BBX 4 3 1 11
BITMAP
2D
78
A0
ENDCHAR
STARTCHAR mu
ENCODING 181
SWIDTH 498 0
DWIDTH 9 0
BBX 7 14 1 -4
BITMAP
B038
B038
B038
B038
B038
B038
B038
B038
B9B8
BBA8
B000
B000
B000
B000
ENDCHAR
STARTCHAR paragraph
ENCODING 182
SWIDTH 434 0
DWIDTH 8 0
BBX 7 13 0 0
BITMAP
06A4
1FF4
3FF4
7FF4
7FF4
7FF4
3FF4
1FF4
01B4
0034
0034
0034
0034
ENDCHAR
STARTCHAR periodcentered
ENCODING 183
SWIDTH 243 0
DWIDTH 4 0
BBX 2 2 1 5
BITMAP
B0
A0
ENDCHAR
STARTCHAR cedilla
ENCODING 184
SWIDTH 229 0
DWIDTH 4 0
BBX 3 4 1 -4
BITMAP
90
60
34
E0
ENDCHAR
STARTCHAR uni00B9
ENCODING 185
SWIDTH 329 0
DWIDTH 6 0
BBX 3 7 1 6
BITMAP
28
FC
1C
1C
1C
1C
1C
ENDCHAR
STARTCHAR ordmasculine
ENCODING 186
SWIDTH 402 0
DWIDTH 7 0
BBX 6 7 1 6
BITMAP
2E00
B680
D1C0
D0D0
D1C0
B680
2E00
ENDCHAR
STARTCHAR guillemotright
ENCODING 187
SWIDTH 417 0
DWIDTH 8 0
BBX 6 7 1 1
BITMAP
D700
7280
28D0
1CA0
28D0
7280
D700
ENDCHAR
STARTCHAR onequarter
ENCODING 188
SWIDTH 637 0
DWIDTH 11 0
BBX 11 13 0 0
BITMAP
1A0000
7E0140
0A0240
0A0600
0A0900
0A1800
0A34B0
0061F0
00D3B0
018A70
034FF8
020070
000070
ENDCHAR
STARTCHAR onehalf
ENCODING 189
SWIDTH 677 0
DWIDTH 12 0
BBX 12 13 0 0
BITMAP
1A0000
7E0240
0A0300
0A0900
0A1C00
0A2400
0A72F4
00976C
01C11C
024034
0700A0
050280
0007FD
ENDCHAR
STARTCHAR threequarters
ENCODING 190
SWIDTH 673 0
DWIDTH 12 0
BBX 11 13 1 0
BITMAP
7E0000
974140
174340
1B0600
034D00
E75800
7E34E0
0062E0
00D7A0
018DA0
035FF4
0600A0
0000A0
ENDCHAR
STARTCHAR questiondown
ENCODING 191
SWIDTH 421 0
DWIDTH 8 0
BBX 7 13 0 -3
BITMAP
0340
0240
0000
0140
0380
0740
0E00
2C00
7400
7400
7438
3DB4
1BD0
ENDCHAR
STARTCHAR Agrave
ENCODING 192
SWIDTH 576 0
DWIDTH 10 0
BBX 10 17 0 0
BITMAP
078000
01D000
00A000
000000
00B000
00F400
01F800
029C00
038D00
074A00
0B0B00
0E0740
1FFF80
2D56C0
3801D0
3400E0
7400B0
ENDCHAR
STARTCHAR Aacute
ENCODING 193
SWIDTH 576 0
DWIDTH 10 0
BBX 10 17 0 0
BITMAP
001E00
003800
007000
000000
00B000
00F400
01F800
029C00
038D00
074A00
0B0B00
0E0740
1FFF80
2D56C0
3801D0
3400E0
7400B0
ENDCHAR
STARTCHAR Acircumflex
ENCODING 194
SWIDTH 576 0
DWIDTH 10 0
BBX 10 17 0 0
BITMAP
00B000
01E800
024900
000000
00B000
00F400
01F800
029C00
038D00
074A00
0B0B00
0E0740
1FFF80
2D56C0
3801D0
3400E0
7400B0
ENDCHAR
STARTCHAR Atilde
ENCODING 195
SWIDTH 576 0
DWIDTH 10 0
BBX 10 17 0 0
BITMAP
000100
03EA00
062D00
000000
00B000
00F400
01F800
029C00
038D00
074A00
0B0B00
0E0740
1FFF80
2D56C0
3801D0
3400E0
7400B0
ENDCHAR
STARTCHAR Adieresis
ENCODING 196
SWIDTH 576 0
DWIDTH 10 0
BBX 10 16 0 0
BITMAP
060600
070B00
000000
00B000
00F400
01F800
029C00
038D00
074A00
0B0B00
0E0740
1FFF80
2D56C0
3801D0
3400E0
7400B0
ENDCHAR
STARTCHAR Aring
ENCODING 197
SWIDTH 576 0
DWIDTH 10 0
BBX 10 18 0 0
BITMAP
00A400
024C00
024C00
00A400
000000
00B000
00F400
01F800
029C00
038D00
074A00
0B0B00
0E0740
1FFF80
2D56C0
3801D0
3400E0
7400B0
ENDCHAR
STARTCHAR AE
ENCODING 198
SWIDTH 812 0
DWIDTH 15 0
BBX 15 13 0 0
BITMAP
000BFFE0
001F9550
002B8000
00778000
00A28000
01D28000
0282FFC0
0742D540
0BFFC000
1EAAC000
2C02C000
7802D550
B002FFF4
ENDCHAR
STARTCHAR Ccedilla
ENCODING 199
SWIDTH 566 0
DWIDTH 10 0
BBX 9 17 1 -4
BITMAP
0BF400
2E6E00
740B00
B00740
E00100
E00000
E00000
E00000
E00100
B00740
740B00
2E6E00
0BF400
018000
009000
00A000
01D000
ENDCHAR
STARTCHAR Egrave
ENCODING 200
SWIDTH 496 0
DWIDTH 9 0
BBX 8 17 1 0
BITMAP
2D00
0B00
0340
0000
BFFD
B554
B000
B000
B000
B000
BFF8
B554
B000
B000
B000
B554
BFFD
ENDCHAR
STARTCHAR Eacute
ENCODING 201
SWIDTH 496 0
DWIDTH 9 0
BBX 8 17 1 0
BITMAP
00B4
01D0
0280
0000
BFFD
B554
B000
B000
B000
B000
BFF8
B554
B000
B000
B000
B554
BFFD
ENDCHAR
STARTCHAR Ecircumflex
ENCODING 202
SWIDTH 496 0
DWIDTH 9 0
BBX 8 17 1 0
BITMAP
0380
0AD0
1860
0000
BFFD
B554
B000
B000
B000
B000
BFF8
B554
B000
B000
B000
B554
BFFD
ENDCHAR
STARTCHAR Edieresis
ENCODING 203
SWIDTH 496 0
DWIDTH 9 0
BBX 8 16 1 0
BITMAP
2824
3834
0000
BFFD
B554
B000
B000
B000
B000
BFF8
B554
B000
B000
B000
B554
BFFD
ENDCHAR
STARTCHAR Igrave
ENCODING 204
SWIDTH 250 0
DWIDTH 5 0
BBX 3 17 0 0
BITMAP
E0
78
28
00
2C
2C
2C
2C
2C
2C
2C
2C
2C
2C
2C
2C
2C
ENDCHAR
STARTCHAR Iacute
ENCODING 205
SWIDTH 250 0
DWIDTH 5 0
BBX 4 17 1 0
BITMAP
1E
38
70
00
B0
B0
B0
B0
B0
B0
B0
B0
B0
B0
B0
B0
B0
ENDCHAR
STARTCHAR Icircumflex
ENCODING 206
SWIDTH 250 0
DWIDTH 5 0
BBX 5 17 0 0
BITMAP
2C00
7A00
9240
0000
2C00
2C00
2C00
2C00
2C00
2C00
2C00
2C00
2C00
2C00
2C00
2C00
2C00
ENDCHAR
STARTCHAR Idieresis
ENCODING 207
SWIDTH 250 0
DWIDTH 5 0
BBX 6 16 -1 0
BITMAP
6060
74B0
0000
0B00
0B00
0B00
0B00
0B00
0B00
0B00
0B00
0B00
0B00
0B00
0B00
0B00
ENDCHAR
STARTCHAR Eth
ENCODING 208
SWIDTH 585 0
DWIDTH 11 0
BBX 10 13 0 0
BITMAP
1FF900
1E6F40
1D0380
1D01D0
1D01D0
1D01D0
FFC1D0
6D41D0
1D01D0
1D01D0
1D0380
1E6F40
1FF900
ENDCHAR
STARTCHAR Ntilde
ENCODING 209
SWIDTH 619 0
DWIDTH 11 0
BBX 9 17 1 0
BITMAP
010400
0B9C00
0C7800
000000
B40380
B80380
BD0380
BA0380
B74380
B28380
B1D380
B0A380
B07780
B02F80
B00F80
B00B80
B00380
ENDCHAR
STARTCHAR Ograve
ENCODING 210
SWIDTH 600 0
DWIDTH 11 0
BBX 9 17 1 0
BITMAP
0F0000
078000
018000
000000
0BF400
2EAE00
740B40
B00340
E00380
E00380
E00380
E00380
E00380
B00340
740B40
2E6E00
0BF400
ENDCHAR
STARTCHAR Oacute
ENCODING 211
SWIDTH 600 0
DWIDTH 11 0
BBX 9 17 1 0
BITMAP
003800
00B000
01D000
000000
0BF400
2EAE00
740B40
B00340
E00380
E00380
E00380
E00380
E00380
B00340
740B40
2E6E00
0BF400
ENDCHAR
STARTCHAR Ocircumflex
ENCODING 212
SWIDTH 600 0
DWIDTH 11 0
BBX 9 17 1 0
BITMAP
01D000
07B000
0A2400
000000
0BF400
2EAE00
740B40
B00340
E00380
E00380
E00380
E00380
E00380
B00340
740B40
2E6E00
0BF400
ENDCHAR
STARTCHAR Otilde
ENCODING 213
SWIDTH 600 0
DWIDTH 11 0
BBX 9 17 1 0
BITMAP
010400
0B9C00
0CB400
000000
0BF400
2EAE00
740B40
B00340
E00380
E00380
E00380
E00380
E00380
B00340
740B40
2E6E00
0BF400
ENDCHAR
STARTCHAR Odieresis
ENCODING 214
SWIDTH 600 0
DWIDTH 11 0
BBX 9 16 1 0
BITMAP
091800
1D1C00
000000
0BF400
2EAE00
740B40
B00340
E00380
E00380
E00380
E00380
E00380
B00340
740B40
2E6E00
0BF400
ENDCHAR
STARTCHAR multiply
ENCODING 215
SWIDTH 470 0
DWIDTH 8 0
BBX 7 8 1 2
BITMAP
9020
B0B4
3AD0
1F80
1F80
3AD0
B0B4
9020
ENDCHAR
STARTCHAR Oslash
ENCODING 216
SWIDTH 600 0
DWIDTH 11 0
BBX 9 15 1 -1
BITMAP
000040
07E640
2EAF00
780F00
B01F40
A02780
E06380
E09280
E18380
E34380
B60740
7D0B00
2E6D00
3BF400
500000
ENDCHAR
STARTCHAR Ugrave
ENCODING 217
SWIDTH 561 0
DWIDTH 10 0
BBX 8 17 1 0
BITMAP
1E00
0B40
0280
0000
E00B
E00B
E00B
E00B
E00B
E00B
E00B
E00B
E00B
A00B
B00E
7D6D
1BE4
ENDCHAR
STARTCHAR Uacute
ENCODING 218
SWIDTH 561 0
DWIDTH 10 0
BBX 8 17 1 0
BITMAP
0074
01E0
0180
0000
E00B
E00B
E00B
E00B
E00B
E00B
E00B
E00B
E00B
A00B
B00E
7D6D
1BE4
ENDCHAR
STARTCHAR Ucircumflex
ENCODING 219
SWIDTH 561 0
DWIDTH 10 0
BBX 8 17 1 0
BITMAP
02C0
0BA0
0960
0000
E00B
E00B
E00B
E00B
E00B
E00B
E00B
E00B
E00B
A00B
B00E
7D6D
1BE4
ENDCHAR
STARTCHAR Udieresis
ENCODING 220
SWIDTH 561 0
DWIDTH 10 0
BBX 8 16 1 0
BITMAP
1828
2C28
0000
E00B
E00B
E00B
E00B
E00B
E00B
E00B
E00B
E00B
A00B
B00E
7D6D
1BE4
ENDCHAR
STARTCHAR Yacute
ENCODING 221
SWIDTH 524 0
DWIDTH 9 0
BBX 9 17 0 0
BITMAP
002D00
007400
00A000
000000
B403C0
380740
2C0B00
1D0E00
0B1C00
077800
03F400
01E000
00E000
00E000
00E000
00E000
00E000
ENDCHAR
STARTCHAR Thorn
ENCODING 222
SWIDTH 515 0
DWIDTH 9 0
BBX 8 13 1 0
BITMAP
B000
B000
B000
BFE0
B578
B01D
B00D
B01D
B02C
BFF4
B540
B000
B000
ENDCHAR
STARTCHAR germandbls
ENCODING 223
SWIDTH 521 0
DWIDTH 9 0
BBX 8 14 1 0
BITMAP
1F80
79E0
B0B0
A070
A0A0
A1D0
A1C0
A1D0
A0B4
A02C
A00E
A00E
A66D
A6F4
ENDCHAR
STARTCHAR agrave
ENCODING 224
SWIDTH 479 0
DWIDTH 9 0
BBX 7 14 1 0
BITMAP
3C00
1E00
0600
0000
1F90
79B0
A074
0074
1BF4
7974
E074
E074
BAF4
2F78
ENDCHAR
STARTCHAR aacute
ENCODING 225
SWIDTH 479 0
DWIDTH 9 0
BBX 7 14 1 0
BITMAP
00E0
02C0
0340
0000
1F90
79B0
A074
0074
1BF4
7974
E074
E074
BAF4
2F78
ENDCHAR
STARTCHAR acircumflex
ENCODING 226
SWIDTH 479 0
DWIDTH 9 0
BBX 7 14 1 0
BITMAP
0740
1EC0
1890
0000
1F90
79B0
A074
0074
1BF4
7974
E074
E074
BAF4
2F78
ENDCHAR
STARTCHAR atilde
ENCODING 227
SWIDTH 479 0
DWIDTH 9 0
BBX 7 14 1 0
BITMAP
0410
2E70
32D0
0000
1F90
79B0
A074
0074
1BF4
7974
E074
E074
BAF4
2F78
ENDCHAR
STARTCHAR adieresis
ENCODING 228
SWIDTH 479 0
DWIDTH 9 0
BBX 7 13 1 0
BITMAP
2460
7474
0000
1F90
79B0
A074
0074
1BF4
7974
E074
E074
BAF4
2F78
ENDCHAR
STARTCHAR aring
ENCODING 229
SWIDTH 479 0
DWIDTH 9 0
BBX 7 15 1 0
BITMAP
0A80
1890
1890
0A80
0000
1F90
79B0
A074
0074
1BF4
7974
E074
E074
BAF4
2F78
ENDCHAR
STARTCHAR ae
ENCODING 230
SWIDTH 728 0
DWIDTH 13 0
BBX 13 10 0 0
BITMAP
0BE1F800
2E7F9E00
382E0740
001D0340
0BFFFF40
2D6D5500
741D0000
741E0000
3DBB9B00
1F91FD00
ENDCHAR
STARTCHAR ccedilla
ENCODING 231
SWIDTH 461 0
DWIDTH 8 0
BBX 7 14 1 -4
BITMAP
1F90
79B0
E038
D014
D000
D000
D010
E038
79B0
1F90
0A00
0640
0280
0A40
ENDCHAR
STARTCHAR egrave
ENCODING 232
SWIDTH 468 0
DWIDTH 8 0
BBX 7 14 1 0
BITMAP
3C00
1E00
0A00
0000
1F90
79B0
A038
D038
FFF8
E554
E000
E000
7974
1FE0
ENDCHAR
STARTCHAR eacute
ENCODING 233
SWIDTH 468 0
DWIDTH 8 0
BBX 7 14 1 0
BITMAP
01E0
03C0
0740
0000
1F90
79B0
A038
D038
FFF8
E554
E000
E000
7974
1FE0
ENDCHAR
STARTCHAR ecircumflex
ENCODING 234
SWIDTH 468 0
DWIDTH 8 0
BBX 7 14 1 0
BITMAP
0B40
1EC0
2890
0000
1F90
79B0
A038
D038
FFF8
E554
E000
E000
7974
1FE0
ENDCHAR
STARTCHAR edieresis
ENCODING 235
SWIDTH 468 0
DWIDTH 8 0
BBX 7 13 1 0
BITMAP
6460
7470
0000
1F90
79B0
A038
D038
FFF8
E554
E000
E000
7974
1FE0
ENDCHAR
STARTCHAR igrave
ENCODING 236
SWIDTH 234 0
DWIDTH 4 0
BBX 4 14 -1 0
BITMAP
78
1D
0A
00
0B
0B
0B
0B
0B
0B
0B
0B
0B
0B
ENDCHAR
STARTCHAR iacute
ENCODING 237
SWIDTH 234 0
DWIDTH 4 0
BBX 4 14 1 0
BITMAP
1D
38
60
00
B0
B0
B0
B0
B0
B0
B0
B0
B0
B0
ENDCHAR
STARTCHAR icircumflex
ENCODING 238
SWIDTH 234 0
DWIDTH 4 0
BBX 5 14 0 0
BITMAP
2C00
BA00
9340
0000
2C00
2C00
2C00
2C00
2C00
2C00
2C00
2C00
2C00
2C00
ENDCHAR
STARTCHAR idieresis
ENCODING 239
SWIDTH 234 0
DWIDTH 4 0
BBX 6 13 -1 0
BITMAP
60A0
B0A0
0000
0B00
0B00
0B00
0B00
0B00
0B00
0B00
0B00
0B00
0B00
ENDCHAR
STARTCHAR eth
ENCODING 240
SWIDTH 513 0
DWIDTH 9 0
BBX 7 14 1 0
BITMAP
2810
2FB4
07D0
0AF0
0474
1BB8
3DBC
B02C
E01C
E01C
E02C
B038
39B4
1B90
ENDCHAR
STARTCHAR ntilde
ENCODING 241
SWIDTH 483 0
DWIDTH 9 0
BBX 7 14 1 0
BITMAP
0410
2E70
72D0
0000
EBD0
F9B0
F034
E038
E038
E038
E038
E038
E038
E038
ENDCHAR
STARTCHAR ograve
ENCODING 242
SWIDTH 501 0
DWIDTH 9 0
BBX 8 14 1 0
BITMAP
3C00
1E00
0600
0000
1FD0
79B4
B028
E01C
D01D
D01C
E01C
A02C
79B4
1FD0
ENDCHAR
STARTCHAR oacute
ENCODING 243
SWIDTH 501 0
DWIDTH 9 0
BBX 8 14 1 0
BITMAP
00E0
02C0
0740
0000
1FD0
79B4
B028
E01C
D01D
D01C
E01C
A02C
79B4
1FD0
ENDCHAR
STARTCHAR ocircumflex
ENCODING 244
SWIDTH 501 0
DWIDTH 9 0
BBX 8 14 1 0
BITMAP
0740
1EC0
2890
0000
1FD0
79B4
B028
E01C
D01D
D01C
E01C
A02C
79B4
1FD0
ENDCHAR
STARTCHAR otilde
ENCODING 245
SWIDTH 501 0
DWIDTH 9 0
BBX 8 14 1 0
BITMAP
0410
2E70
32D0
0000
1FD0
79B4
B028
E01C
D01D
D01C
E01C
A02C
79B4
1FD0
ENDCHAR
STARTCHAR odieresis
ENCODING 246
SWIDTH 501 0
DWIDTH 9 0
BBX 8 13 1 0
BITMAP
2460
7470
0000
1FD0
79B4
B028
E01C
D01D
D01C
E01C
A02C
79B4
1FD0
ENDCHAR
STARTCHAR divide
ENCODING 247
SWIDTH 500 0
DWIDTH 9 0
BBX 8 10 0 1
BITMAP
0180
01D0
0000
0000
7FFF
6AAA
0000
0080
01D0
0040
ENDCHAR
STARTCHAR oslash
ENCODING 248
SWIDTH 498 0
DWIDTH 9 0
BBX 7 12 1 -1
BITMAP
0024
1BB0
79B4
B0F8
E1AC
D25C
D31C
E92C
BC38
7DB4
2F90
6000
ENDCHAR
STARTCHAR ugrave
ENCODING 249
SWIDTH 483 0
DWIDTH 9 0
BBX 7 14 1 0
BITMAP
3C00
1E00
0A00
0000
E038
E038
E038
E038
E038
E038
E038
B038
79F8
2F78
ENDCHAR
STARTCHAR uacute
ENCODING 250
SWIDTH 483 0
DWIDTH 9 0
BBX 7 14 1 0
BITMAP
01E0
03C0
0740
0000
E038
E038
E038
E038
E038
E038
E038
B038
79F8
2F78
ENDCHAR
STARTCHAR ucircumflex
ENCODING 251
SWIDTH 483 0
DWIDTH 9 0
BBX 7 14 1 0
BITMAP
0B40
1EC0
2890
0000
E038
E038
E038
E038
E038
E038
E038
B038
79F8
2F78
ENDCHAR
STARTCHAR udieresis
ENCODING 252
SWIDTH 483 0
DWIDTH 9 0
BBX 7 13 1 0
BITMAP
6460
7470
0000
E038
E038
E038
E038
E038
E038
E038
B038
79F8
2F78
ENDCHAR
STARTCHAR yacute
ENCODING 253
SWIDTH 416 0
DWIDTH 8 0
BBX 7 18 0 -4
BITMAP
00B4
01E0
0280
0000
B02C
7438
3834
2C74
1CB0
0DA0
0ED0
0BC0
0780
0380
0340
0700
1E00
7800
ENDCHAR
STARTCHAR thorn
ENCODING 254
SWIDTH 508 0
DWIDTH 9 0
BBX 7 18 1 -4
BITMAP
A000
A000
A000
A000
ABD0
B9B4
B038
A02C
A01C
A01C
A02C
B038
B9B4
ABD0
A000
A000
A000
A000
ENDCHAR
STARTCHAR ydieresis
ENCODING 255
SWIDTH 416 0
DWIDTH 8 0
BBX 7 17 0 -4
BITMAP
2824
2838
0000
B02C
7438
3834
2C74
1CB0
0DA0
0ED0
0BC0
0780
0380
0340
0700
1E00
7800
ENDCHAR
STARTCHAR Amacron
ENCODING 256
SWIDTH 576 0
DWIDTH 10 0
BBX 10 17 0 0
BITMAP
015500
07FE00
000000
000000
00B000
00F400
01F800
029C00
038D00
074A00
0B0B00
0E0740
1FFF80
2D56C0
3801D0
3400E0
7400B0
ENDCHAR
STARTCHAR amacron
ENCODING 257
SWIDTH 479 0
DWIDTH 9 0
BBX 7 14 1 0
BITMAP
1550
3FF0
0000
0000
1F90
79B0
A074
0074
1BF4
7974
E074
E074
BAF4
2F78
ENDCHAR
STARTCHAR Abreve
ENCODING 258
SWIDTH 576 0
DWIDTH 10 0
BBX 10 16 0 0
BITMAP
074A00
01F800
000000
00B000
00F400
01F800
029C00
038D00
074A00
0B0B00
0E0740
1FFF80
2D56C0
3801D0
3400E0
7400B0
ENDCHAR
STARTCHAR abreve
ENCODING 259
SWIDTH 479 0
DWIDTH 9 0
BBX 7 13 1 0
BITMAP
3470
1F90
0000
1F90
79B0
A074
0074
1BF4
7974
E074
E074
BAF4
2F78
ENDCHAR
STARTCHAR Aogonek
ENCODING 260
SWIDTH 576 0
DWIDTH 10 0
BBX 10 17 0 -4
BITMAP
00B000
00F400
01F800
029C00
038D00
074A00
0B0B00
0E0740
1FFF80
2D56C0
3801D0
3400E0
7400B0
0001D0
000280
000390
0001E0
ENDCHAR
STARTCHAR aogonek
ENCODING 261
SWIDTH 479 0
DWIDTH 9 0
BBX 7 14 1 -4
BITMAP
1F90
79B0
A074
0074
1BF4
7974
E074
E074
BAF4
2F78
0070
00D0
00D0
00B4
ENDCHAR
STARTCHAR Cacute
ENCODING 262
SWIDTH 566 0
DWIDTH 10 0
BBX 9 17 1 0
BITMAP
007800
00E000
01C000
000000
0BF400
2E6E00
740B00
B00740
E00100
E00000
E00000
E00000
E00100
B00740
740B00
2E6E00
0BF400
ENDCHAR
STARTCHAR cacute
ENCODING 263
SWIDTH 461 0
DWIDTH 8 0
BBX 7 14 1 0
BITMAP
01D0
0780
0600
0000
1F90
79B0
E038
D014
D000
D000
D010
E038
79B0
1F90
ENDCHAR
STARTCHAR Ccircumflex
ENCODING 264
SWIDTH 566 0
DWIDTH 10 0
BBX 9 17 1 0
BITMAP
02C000
07A000
093400
000000
0BF400
2E6E00
740B00
B00740
E00100
E00000
E00000
E00000
E00100
B00740
740B00
2E6E00
0BF400
ENDCHAR
STARTCHAR ccircumflex
ENCODING 265
SWIDTH 461 0
DWIDTH 8 0
BBX 7 14 1 0
BITMAP
0B00
2E80
25C0
0000
1F90
79B0
E038
D014
D000
D000
D010
E038
79B0
1F90
ENDCHAR
STARTCHAR Cdotaccent
ENCODING 266
SWIDTH 566 0
DWIDTH 10 0
BBX 9 16 1 0
BITMAP
018000
02C000
000000
0BF400
2E6E00
740B00
B00740
E00100
E00000
E00000
E00000
E00100
B00740
740B00
2E6E00
0BF400
ENDCHAR
STARTCHAR cdotaccent
ENCODING 267
SWIDTH 461 0
DWIDTH 8 0
BBX 7 13 1 0
BITMAP
0A00
0A00
0000
1F90
79B0
E038
D014
D000
D000
D010
E038
79B0
1F90
ENDCHAR
STARTCHAR Ccaron
ENCODING 268
SWIDTH 566 0
DWIDTH 10 0
BBX 9 17 1 0
BITMAP
0D3400
07A000
02C000
000000
0BF400
2E6E00
740B00
B00740
E00100
E00000
E00000
E00000
E00100
B00740
740B00
2E6E00
0BF400
ENDCHAR
STARTCHAR ccaron
ENCODING 269
SWIDTH 461 0
DWIDTH 8 0
BBX 7 14 1 0
BITMAP
35D0
1E80
0B00
0000
1F90
79B0
E038
D014
D000
D000
D010
E038
79B0
1F90
ENDCHAR
STARTCHAR Dcaron
ENCODING 270
SWIDTH 570 0
DWIDTH 10 0
BBX 8 17 1 0
BITMAP
1CA0
0AC0
0340
0000
BFE0
B5BC
B01E
B00B
B007
B007
B007
B007
B00B
B00B
B01E
B5BC
BFE0
ENDCHAR
STARTCHAR dcaron
ENCODING 271
SWIDTH 569 0
DWIDTH 10 0
BBX 9 14 1 0
BITMAP
0039C0
0039C0
003A80
003A40
2F7800
B9B800
E03800
D03800
D03800
D03800
D03800
E03800
79B800
2F6800
ENDCHAR
STARTCHAR Dcroat
ENCODING 272
SWIDTH 585 0
DWIDTH 11 0
BBX 10 13 0 0
BITMAP
1FF900
1E6F40
1D0380
1D01D0
1D01D0
1D01D0
FFC1D0
6D41D0
1D01D0
1D01D0
1D0380
1E6F40
1FF900
ENDCHAR
STARTCHAR dcroat
ENCODING 273
SWIDTH 529 0
DWIDTH 10 0
BBX 8 14 1 0
BITMAP
0038
02FF
0179
0038
1F78
79B8
B038
E038
D038
D038
E038
B038
79B8
1FA8
ENDCHAR
STARTCHAR Emacron
ENCODING 274
SWIDTH 496 0
DWIDTH 9 0
BBX 8 17 1 0
BITMAP
1550
2FF4
0000
0000
BFFD
B554
B000
B000
B000
B000
BFF8
B554
B000
B000
B000
B554
BFFD
ENDCHAR
STARTCHAR emacron
ENCODING 275
SWIDTH 468 0
DWIDTH 8 0
BBX 7 14 1 0
BITMAP
1550
7FF0
0000
0000
1F90
79B0
A038
D038
FFF8
E554
E000
E000
7974
1FE0
ENDCHAR
STARTCHAR Ebreve
ENCODING 276
SWIDTH 496 0
DWIDTH 9 0
BBX 8 16 1 0
BITMAP
2874
0BD0
0000
BFFD
B554
B000
B000
B000
B000
BFF8
B554
B000
B000
B000
B554
BFFD
ENDCHAR
STARTCHAR ebreve
ENCODING 277
SWIDTH 468 0
DWIDTH 8 0
BBX 7 13 1 0
BITMAP
34B0
1F90
0000
1F90
79B0
A038
D038
FFF8
E554
E000
E000
7974
1FE0
ENDCHAR
STARTCHAR Edotaccent
ENCODING 278
SWIDTH 496 0
DWIDTH 9 0
BBX 8 16 1 0
BITMAP
0240
0380
0000
BFFD
B554
B000
B000
B000
B000
BFF8
B554
B000
B000
B000
B554
BFFD
ENDCHAR
STARTCHAR edotaccent
ENCODING 279
SWIDTH 468 0
DWIDTH 8 0
BBX 7 13 1 0
BITMAP
0600
0700
0000
1F90
79B0
A038
D038
FFF8
E554
E000
E000
7974
1FE0
ENDCHAR
STARTCHAR Eogonek
ENCODING 280
SWIDTH 496 0
DWIDTH 9 0
BBX 8 17 1 -4
BITMAP
BFFD
B554
B000
B000
B000
B000
BFF8
B554
B000
B000
B000
B554
BFFD
0074
00A0
00A4
0078
ENDCHAR
STARTCHAR eogonek
ENCODING 281
SWIDTH 468 0
DWIDTH 8 0
BBX 7 14 1 -4
BITMAP
1F90
79B0
A038
D038
FFF8
E554
E000
E000
7974
1BE0
0340
0700
0740
02D0
ENDCHAR
STARTCHAR Ecaron
ENCODING 282
SWIDTH 496 0
DWIDTH 9 0
BBX 8 17 1 0
BITMAP
1CA0
0AD0
0380
0000
BFFD
B554
B000
B000
B000
B000
BFF8
B554
B000
B000
B000
B554
BFFD
ENDCHAR
STARTCHAR ecaron
ENCODING 283
SWIDTH 468 0
DWIDTH 8 0
BBX 7 14 1 0
BITMAP
28D0
0E80
0700
0000
1F90
79B0
A038
D038
FFF8
E554
E000
E000
7974
1FE0
ENDCHAR
STARTCHAR Gcircumflex
ENCODING 284
SWIDTH 590 0
DWIDTH 11 0
BBX 9 17 1 0
BITMAP
02C000
0BA000
093400
000000
0BF400
3E6E00
740B00
B00740
E00000
E00000
E00000
E0BF40
E05B40
B00740
740740
2E6F40
0BF900
ENDCHAR
STARTCHAR gcircumflex
ENCODING 285
SWIDTH 492 0
DWIDTH 9 0
BBX 7 18 1 -4
BITMAP
0B00
1E80
2890
0000
2FA8
B9B8
E038
D038
D038
D038
D038
E038
79B8
2FB8
0038
0038
75B0
1F90
ENDCHAR
STARTCHAR Gbreve
ENCODING 286
SWIDTH 590 0
DWIDTH 11 0
BBX 9 16 1 0
BITMAP
1D2800
0BE000
000000
0BF400
3E6E00
740B00
B00740
E00000
E00000
E00000
E0BF40
E05B40
B00740
740740
2E6F40
0BF900
ENDCHAR
STARTCHAR gbreve
ENCODING 287
SWIDTH 492 0
DWIDTH 9 0
BBX 7 17 1 -4
BITMAP
74A0
1F80
0000
2FA8
B9B8
E038
D038
D038
D038
D038
E038
79B8
2FB8
0038
0038
75B0
1F90
ENDCHAR
STARTCHAR Gdotaccent
ENCODING 288
SWIDTH 590 0
DWIDTH 11 0
BBX 9 16 1 0
BITMAP
028000
02C000
000000
0BF400
3E6E00
740B00
B00740
E00000
E00000
E00000
E0BF40
E05B40
B00740
740740
2E6F40
0BF900
ENDCHAR
STARTCHAR gdotaccent
ENCODING 289
SWIDTH 492 0
DWIDTH 9 0
BBX 7 17 1 -4
BITMAP
0600
0B00
0000
2FA8
B9B8
E038
D038
D038
D038
D038
E038
79B8
2FB8
0038
0038
75B0
1F90
ENDCHAR
STARTCHAR uni0122
ENCODING 290
SWIDTH 590 0
DWIDTH 11 0
BBX 9 18 1 -5
BITMAP
0BF400
3E6E00
740B00
B00740
E00000
E00000
E00000
E0BF40
E05B40
B00740
740740
2E6F40
0BF900
000000
01D000
01D000
01C000
014000
ENDCHAR
STARTCHAR uni0123
ENCODING 291
SWIDTH 492 0
DWIDTH 9 0
BBX 7 19 1 -4
BITMAP
0240
0740
0B00
0B00
0000
2FA8
B9B8
E038
D038
D038
D038
D038
E038
79B8
2FB8
0038
0038
75B0
1F90
ENDCHAR
STARTCHAR Hcircumflex
ENCODING 292
SWIDTH 620 0
DWIDTH 11 0
BBX 9 17 1 0
BITMAP
01D000
07B000
0A2400
000000
B00380
B00380
B00380
B00380
B00380
B00380
BFFF80
B55780
B00380
B00380
B00380
B00380
B00380
ENDCHAR
STARTCHAR hcircumflex
ENCODING 293
SWIDTH 482 0
DWIDTH 9 0
BBX 7 18 1 0
BITMAP
0E00
2B80
3580
0000
E000
E000
E000
E000
EBD0
F9B0
F034
E038
E038
E038
E038
E038
E038
E038
ENDCHAR
STARTCHAR Hbar
ENCODING 294
SWIDTH 611 0
DWIDTH 11 0
BBX 11 13 0 0
BITMAP
2C00E0
2C00E0
2C00E0
BFFFF8
2D55E4
2C00E0
2FFFE0
2D55E0
2C00E0
2C00E0
2C00E0
2C00E0
2C00E0
ENDCHAR
STARTCHAR hbar
ENCODING 295
SWIDTH 497 0
DWIDTH 9 0
BBX 8 14 0 0
BITMAP
2C00
FF80
6D40
2C00
2DF8
2F6D
2D0E
2C0A
2C0A
2C0A
2C0A
2C0A
2C0A
2C0A
ENDCHAR
STARTCHAR Itilde
ENCODING 296
SWIDTH 250 0
DWIDTH 5 0
BBX 6 17 -1 0
BITMAP
0010
3EA0
62D0
0000
0B00
0B00
0B00
0B00
0B00
0B00
0B00
0B00
0B00
0B00
0B00
0B00
0B00
ENDCHAR
STARTCHAR itilde
ENCODING 297
SWIDTH 234 0
DWIDTH 4 0
BBX 6 14 -1 0
BITMAP
0010
3DA0
62D0
0000
0B00
0B00
0B00
0B00
0B00
0B00
0B00
0B00
0B00
0B00
ENDCHAR
STARTCHAR Imacron
ENCODING 298
SWIDTH 250 0
DWIDTH 5 0
BBX 6 17 -1 0
BITMAP
1550
7FF0
0000
0000
0B00
0B00
0B00
0B00
0B00
0B00
0B00
0B00
0B00
0B00
0B00
0B00
0B00
ENDCHAR
STARTCHAR imacron
ENCODING 299
SWIDTH 234 0
DWIDTH 4 0
BBX 6 14 -1 0
BITMAP
1550
7FE0
0000
0000
0B00
0B00
0B00
0B00
0B00
0B00
0B00
0B00
0B00
0B00
ENDCHAR
STARTCHAR Ibreve
ENCODING 300
SWIDTH 250 0
DWIDTH 5 0
BBX 6 16 -1 0
BITMAP
74A0
1F80
0000
0B00
0B00
0B00
0B00
0B00
0B00
0B00
0B00
0B00
0B00
0B00
0B00
0B00
ENDCHAR
STARTCHAR ibreve
ENCODING 301
SWIDTH 234 0
DWIDTH 4 0
BBX 6 13 -1 0
BITMAP
74A0
2F80
0000
0B00
0B00
0B00
0B00
0B00
0B00
0B00
0B00
0B00
0B00
ENDCHAR
STARTCHAR Iogonek
ENCODING 302
SWIDTH 250 0
DWIDTH 5 0
BBX 3 17 0 -4
BITMAP
2C
2C
2C
2C
2C
2C
2C
2C
2C
2C
2C
2C
2C
34
A0
A4
7C
ENDCHAR
STARTCHAR iogonek
ENCODING 303
SWIDTH 229 0
DWIDTH 4 0
BBX 3 18 0 -4
BITMAP
18
28
00
00
2C
2C
2C
2C
2C
2C
2C
2C
2C
3C
74
A0
A4
78
ENDCHAR
STARTCHAR Idotaccent
ENCODING 304
SWIDTH 250 0
DWIDTH 5 0
BBX 2 16 1 0
BITMAP
60
B0
00
B0
B0
B0
B0
B0
B0
B0
B0
B0
B0
B0
B0
B0
ENDCHAR
STARTCHAR dotlessi
ENCODING 305
SWIDTH 234 0
DWIDTH 4 0
BBX 2 10 1 0
BITMAP
B0
B0
B0
B0
B0
B0
B0
B0
B0
B0
ENDCHAR
STARTCHAR IJ
ENCODING 306
SWIDTH 733 0
DWIDTH 13 0
BBX 11 13 1 0
BITMAP
B0002C
B0002C
B0002C
B0002C
B0002C
B0002C
B0002C
B0002C
B0002C
B0902C
B0B038
B079B4
B01FD0
ENDCHAR
STARTCHAR ij
ENCODING 307
SWIDTH 452 0
DWIDTH 8 0
BBX 6 18 1 -4
BITMAP
60A0
A0A0
0000
0000
B0B0
B0B0
B0B0
B0B0
B0B0
B0B0
B0B0
B0B0
B0B0
B0B0
00B0
00B0
01E0
03D0
ENDCHAR
STARTCHAR Jcircumflex
ENCODING 308
SWIDTH 483 0
DWIDTH 9 0
BBX 9 17 0 0
BITMAP
001D00
007B00
00A240
000000
001D00
001D00
001D00
001D00
001D00
001D00
001D00
001D00
001D00
601D00
741D00
3DB800
0BE000
ENDCHAR
STARTCHAR jcircumflex
ENCODING 309
SWIDTH 237 0
DWIDTH 4 0
BBX 6 18 -1 -4
BITMAP
0B00
1E80
2490
0000
0B00
0B00
0B00
0B00
0B00
0B00
0B00
0B00
0B00
0B00
0B00
0B00
1E00
7800
ENDCHAR
STARTCHAR uni0136
ENCODING 310
SWIDTH 544 0
DWIDTH 10 0
BBX 9 17 1 -4
BITMAP
B00F00
B02D00
B07800
B0F000
B2D000
B74000
BF8000
BAD000
B0F000
B07800
B02D00
B00E00
B00740
028000
028000
034000
020000
ENDCHAR
STARTCHAR uni0137
ENCODING 311
SWIDTH 450 0
DWIDTH 8 0
BBX 7 18 1 -4
BITMAP
A000
A000
A000
A000
A0B4
A1D0
A380
AB00
BE00
BB40
A3C0
A1D0
A0B0
A038
0A00
0A00
0D00
0800
ENDCHAR
STARTCHAR kgreenlandic
ENCODING 312
SWIDTH 491 0
DWIDTH 9 0
BBX 7 10 1 0
BITMAP
B078
B0B0
B2D0
B780
BF00
BB40
B2C0
B1E0
B0B4
B03C
ENDCHAR
STARTCHAR Lacute
ENCODING 313
SWIDTH 475 0
DWIDTH 9 0
BBX 7 17 1 0
BITMAP
1E00
3800
6000
0000
B000
B000
B000
B000
B000
B000
B000
B000
B000
B000
B000
B554
BFFC
ENDCHAR
STARTCHAR lacute
ENCODING 314
SWIDTH 229 0
DWIDTH 4 0
BBX 4 18 1 0
BITMAP
1D
78
60
00
B0
B0
B0
B0
B0
B0
B0
B0
B0
B0
B0
B0
B0
B0
ENDCHAR
STARTCHAR uni013B
ENCODING 315
SWIDTH 475 0
DWIDTH 9 0
BBX 7 18 1 -5
BITMAP
B000
B000
B000
B000
B000
B000
B000
B000
B000
B000
B000
B554
BFFC
0000
0340
0340
0700
0600
ENDCHAR
STARTCHAR uni013C
ENCODING 316
SWIDTH 229 0
DWIDTH 4 0
BBX 2 19 1 -5
BITMAP
B0
B0
B0
B0
B0
B0
B0
B0
B0
B0
B0
B0
B0
B0
00
A0
A0
D0
80
ENDCHAR
STARTCHAR Lcaron
ENCODING 317
SWIDTH 475 0
DWIDTH 9 0
BBX 7 13 1 0
BITMAP
B0D0
B0D0
B1C0
B180
B000
B000
B000
B000
B000
B000
B000
B554
BFFC
ENDCHAR
STARTCHAR lcaron
ENCODING 318
SWIDTH 302 0
DWIDTH 5 0
BBX 5 14 1 0
BITMAP
B340
B340
B700
B600
B000
B000
B000
B000
B000
B000
B000
B000
B000
B000
ENDCHAR
STARTCHAR Ldot
ENCODING 319
SWIDTH 475 0
DWIDTH 9 0
BBX 7 13 1 0
BITMAP
B000
B000
B000
B000
B000
B180
B1D0
B000
B000
B000
B000
B554
BFFC
ENDCHAR
STARTCHAR ldot
ENCODING 320
SWIDTH 336 0
DWIDTH 6 0
BBX 5 14 1 0
BITMAP
B000
B000
B000
B000
B000
B000
B640
B740
B000
B000
B000
B000
B000
B000
ENDCHAR
STARTCHAR Lslash
ENCODING 321
SWIDTH 475 0
DWIDTH 9 0
BBX 8 13 0 0
BITMAP
2C00
2C00
2C00
2C00
2C00
2E80
7E40
6C00
2C00
2C00
2C00
2D55
2FFF
ENDCHAR
STARTCHAR lslash
ENCODING 322
SWIDTH 250 0
DWIDTH 5 0
BBX 4 14 0 0
BITMAP
2C
2C
2C
2C
2C
2C
2E
7D
6C
2C
2C
2C
2C
2C
ENDCHAR
STARTCHAR Nacute
ENCODING 323
SWIDTH 619 0
DWIDTH 11 0
BBX 9 17 1 0
BITMAP
003C00
00B400
009000
000000
B40380
B80380
BD0380
BA0380
B74380
B28380
B1D380
B0A380
B07780
B02F80
B00F80
B00B80
B00380
ENDCHAR
STARTCHAR nacute
ENCODING 324
SWIDTH 483 0
DWIDTH 9 0
BBX 7 14 1 0
BITMAP
01E0
02C0
0740
0000
EBD0
F9B0
F034
E038
E038
E038
E038
E038
E038
E038
ENDCHAR
STARTCHAR uni0145
ENCODING 325
SWIDTH 619 0
DWIDTH 11 0
BBX 9 18 1 -5
BITMAP
B40380
B80380
BD0380
BA0380
B74380
B28380
B1D380
B0A380
B07780
B02F80
B00F80
B00B80
B00380
000000
01D000
01C000
02C000
014000
ENDCHAR
STARTCHAR uni0146
ENCODING 326
SWIDTH 483 0
DWIDTH 9 0
BBX 7 15 1 -5
BITMAP
EBD0
F9B0
F034
E038
E038
E038
E038
E038
E038
E038
0000
0700
0B00
0A00
0900
ENDCHAR
STARTCHAR Ncaron
ENCODING 327
SWIDTH 619 0
DWIDTH 11 0
BBX 9 17 1 0
BITMAP
0A2800
03B000
01D000
000000
B40380
B80380
BD0380
BA0380
B74380
B28380
B1D380
B0A380
B07780
B02F80
B00F80
B00B80
B00380
ENDCHAR
STARTCHAR ncaron
ENCODING 328
SWIDTH 483 0
DWIDTH 9 0
BBX 7 14 1 0
BITMAP
28E0
0E80
0740
0000
EBD0
F9B0
F034
E038
E038
E038
E038
E038
E038
E038
ENDCHAR
STARTCHAR napostrophe
ENCODING 329
SWIDTH 483 0
DWIDTH 9 0
BBX 8 13 0 0
BITMAP
A000
E000
D000
BAF4
3E6C
3C0D
380E
380E
380E
380E
380E
380E
380E
ENDCHAR
STARTCHAR Eng
ENCODING 330
SWIDTH 599 0
DWIDTH 11 0
BBX 9 17 1 -4
BITMAP
B40380
B80380
BD0380
BE0380
B74380
B38380
B1D380
B0E380
B07780
B03F80
B01F80
B00F80
B00780
000380
000340
001B40
002D00
ENDCHAR
STARTCHAR eng
ENCODING 331
SWIDTH 498 0
DWIDTH 9 0
BBX 7 14 1 -4
BITMAP
A7D0
B9B4
B038
A038
A038
A038
A038
A038
A038
A038
0038
0038
01B4
01E0
ENDCHAR
STARTCHAR Omacron
ENCODING 332
SWIDTH 600 0
DWIDTH 11 0
BBX 9 17 1 0
BITMAP
055400
0FFC00
000000
000000
0BF400
2EAE00
740B40
B00340
E00380
E00380
E00380
E00380
E00380
B00340
740B40
2E6E00
0BF400
ENDCHAR
STARTCHAR omacron
ENCODING 333
SWIDTH 501 0
DWIDTH 9 0
BBX 8 14 1 0
BITMAP
1550
3FF0
0000
0000
1FD0
79B4
B028
E01C
D01D
D01C
E01C
A02C
79B4
1FD0
ENDCHAR
STARTCHAR Obreve
ENCODING 334
SWIDTH 600 0
DWIDTH 11 0
BBX 9 16 1 0
BITMAP
0D2C00
07E400
000000
0BF400
2EAE00
740B40
B00340
E00380
E00380
E00380
E00380
E00380
B00340
740B40
2E6E00
0BF400
ENDCHAR
STARTCHAR obreve
ENCODING 335
SWIDTH 501 0
DWIDTH 9 0
BBX 8 13 1 0
BITMAP
34B0
1F90
0000
1FD0
79B4
B028
E01C
D01D
D01C
E01C
A02C
79B4
1FD0
ENDCHAR
STARTCHAR Ohungarumlaut
ENCODING 336
SWIDTH 600 0
DWIDTH 11 0
BBX 9 17 1 0
BITMAP
02DE00
03AC00
066400
000000
0BF400
2EAE00
740B40
B00340
E00380
E00380
E00380
E00380
E00380
B00340
740B40
2E6E00
0BF400
ENDCHAR
STARTCHAR ohungarumlaut
ENCODING 337
SWIDTH 501 0
DWIDTH 9 0
BBX 8 14 1 0
BITMAP
0B78
0EB0
1990
0000
1FD0
79B4
B028
E01C
D01D
D01C
E01C
A02C
79B4
1FD0
ENDCHAR
STARTCHAR OE
ENCODING 338
SWIDTH 826 0
DWIDTH 15 0
BBX 13 13 1 0
BITMAP
0BFFFF40
3D6E5500
B01D0000
E01D0000
E01D0000
D01D0000
D01FFE00
D01E5500
E01D0000
E01D0000
B01D0000
3D6E5540
0BFFFF40
ENDCHAR
STARTCHAR oe
ENCODING 339
SWIDTH 777 0
DWIDTH 14 0
BBX 13 10 1 0
BITMAP
1B91F800
79BB9E00
B03E0700
E02D0740
E02FFF40
D02D5500
E02D0000
B03E0000
79BB9B00
1F91F900
ENDCHAR
STARTCHAR Racute
ENCODING 340
SWIDTH 530 0
DWIDTH 10 0
BBX 8 17 1 0
BITMAP
00B0
02D0
0240
0000
BFE4
B57D
B00E
B00E
B00E
B02D
BFF8
B5B0
B074
B038
B01D
B00E
B00B
ENDCHAR
STARTCHAR racute
ENCODING 341
SWIDTH 304 0
DWIDTH 5 0
BBX 5 14 1 0
BITMAP
0780
0E00
1800
0000
EB00
FE00
F000
E000
E000
E000
E000
E000
E000
E000
ENDCHAR
STARTCHAR uni0156
ENCODING 342
SWIDTH 530 0
DWIDTH 10 0
BBX 8 18 1 -5
BITMAP
BFE4
B57D
B00E
B00E
B00E
B02D
BFF8
B5B0
B074
B038
B01D
B00E
B00B
0000
0340
0340
0700
0600
ENDCHAR
STARTCHAR uni0157
ENCODING 343
SWIDTH 304 0
DWIDTH 5 0
BBX 4 15 1 -5
BITMAP
EB
FE
F0
E0
E0
E0
E0
E0
E0
E0
00
A0
A0
D0
80
ENDCHAR
STARTCHAR Rcaron
ENCODING 344
SWIDTH 530 0
DWIDTH 10 0
BBX 8 17 1 0
BITMAP
1CA0
0AC0
0340
0000
BFE4
B57D
B00E
B00E
B00E
B02D
BFF8
B5B0
B074
B038
B01D
B00E
B00B
ENDCHAR
STARTCHAR rcaron
ENCODING 345
SWIDTH 304 0
DWIDTH 5 0
BBX 5 14 1 0
BITMAP
D340
7A00
2C00
0000
EB00
FE00
F000
E000
E000
E000
E000
E000
E000
E000
ENDCHAR
STARTCHAR Sacute
ENCODING 346
SWIDTH 518 0
DWIDTH 9 0
BBX 9 17 0 0
BITMAP
002D00
007400
00A000
000000
06F800
1E6E00
2C0740
380340
2C0000
1F8000
06F800
006F00
000740
740380
380740
1E5F00
06F800
ENDCHAR
STARTCHAR sacute
ENCODING 347
SWIDTH 455 0
DWIDTH 8 0
BBX 7 14 1 0
BITMAP
01E0
02C0
0740
0000
2F80
79E0
A070
B400
3E40
07E0
00B4
E074
B5B0
2F90
ENDCHAR
STARTCHAR Scircumflex
ENCODING 348
SWIDTH 518 0
DWIDTH 9 0
BBX 9 17 0 0
BITMAP
00E000
02B400
061800
000000
06F800
1E6E00
2C0740
380340
2C0000
1F8000
06F800
006F00
000740
740380
380740
1E5F00
06F800
ENDCHAR
STARTCHAR scircumflex
ENCODING 349
SWIDTH 455 0
DWIDTH 8 0
BBX 7 14 1 0
BITMAP
0740
1EC0
2890
0000
2F80
79E0
A070
B400
3E40
07E0
00B4
E074
B5B0
2F90
ENDCHAR
STARTCHAR Scedilla
ENCODING 350
SWIDTH 518 0
DWIDTH 9 0
BBX 9 17 0 -4
BITMAP
06F800
1E6E00
2C0740
380340
2C0000
1F8000
06F800
006F00
000740
740380
380740
1E5F00
06F800
009000
006000
003400
00E000
ENDCHAR
STARTCHAR scedilla
ENCODING 351
SWIDTH 455 0
DWIDTH 8 0
BBX 7 14 1 -4
BITMAP
2F80
79E0
A070
B400
3E40
07E0
00B4
E074
B5B0
2F90
0700
0280
01C0
0740
ENDCHAR
STARTCHAR Scaron
ENCODING 352
SWIDTH 518 0
DWIDTH 9 0
BBX 9 17 0 0
BITMAP
071C00
02B400
00E000
000000
06F800
1E6E00
2C0740
380340
2C0000
1F8000
06F800
006F00
000740
740380
380740
1E5F00
06F800
ENDCHAR
STARTCHAR scaron
ENCODING 353
SWIDTH 455 0
DWIDTH 8 0
BBX 7 14 1 0
BITMAP
28E0
0E80
0740
0000
2F80
79E0
A070
B400
3E40
07E0
00B4
E074
B5B0
2F90
ENDCHAR
STARTCHAR uni0162
ENCODING 354
SWIDTH 520 0
DWIDTH 9 0
BBX 9 17 0 -4
BITMAP
7FFFC0
55E540
00E000
00E000
00E000
00E000
00E000
00E000
00E000
00E000
00E000
00E000
00E000
00D000
006000
003400
00E000
ENDCHAR
STARTCHAR uni0163
ENCODING 355
SWIDTH 295 0
DWIDTH 5 0
BBX 5 16 0 -4
BITMAP
1D00
1D00
BF80
6D00
1D00
1D00
1D00
1D00
1D00
1D00
1E40
0B80
0300
0180
01C0
0380
ENDCHAR
STARTCHAR Tcaron
ENCODING 356
SWIDTH 520 0
DWIDTH 9 0
BBX 9 17 0 0
BITMAP
072800
02B000
00D000
000000
7FFFC0
55E540
00E000
00E000
00E000
00E000
00E000
00E000
00E000
00E000
00E000
00E000
00E000
ENDCHAR
STARTCHAR tcaron
ENCODING 357
SWIDTH 314 0
DWIDTH 6 0
BBX 6 14 0 0
BITMAP
00B0
00B0
1DA0
1D90
BF80
6D00
1D00
1D00
1D00
1D00
1D00
1D00
1E40
0B80
ENDCHAR
STARTCHAR Tbar
ENCODING 358
SWIDTH 520 0
DWIDTH 9 0
BBX 9 13 0 0
BITMAP
7FFFC0
55E540
00E000
00E000
0BFD00
05E400
00E000
00E000
00E000
00E000
00E000
00E000
00E000
ENDCHAR
STARTCHAR tbar
ENCODING 359
SWIDTH 295 0
DWIDTH 5 0
BBX 5 12 0 0
BITMAP
1D00
1D00
BF80
6D00
1D00
FF80
6D40
1D00
1D00
1D00
1E40
0B80
ENDCHAR
STARTCHAR Utilde
ENCODING 360
SWIDTH 561 0
DWIDTH 10 0
BBX 8 17 1 0
BITMAP
0004
1F68
28B0
0000
E00B
E00B
E00B
E00B
E00B
E00B
E00B
E00B
E00B
A00B
B00E
7D6D
1BE4
ENDCHAR
STARTCHAR utilde
ENCODING 361
SWIDTH 483 0
DWIDTH 9 0
BBX 7 14 1 0
BITMAP
0010
3E70
62D0
0000
E038
E038
E038
E038
E038
E038
E038
B038
79F8
2F78
ENDCHAR
STARTCHAR Umacron
ENCODING 362
SWIDTH 561 0
DWIDTH 10 0
BBX 8 17 1 0
BITMAP
0550
1FF8
0000
0000
E00B
E00B
E00B
E00B
E00B
E00B
E00B
E00B
E00B
A00B
B00E
7D6D
1BE4
ENDCHAR
STARTCHAR umacron
ENCODING 363
SWIDTH 483 0
DWIDTH 9 0
BBX 7 14 1 0
BITMAP
1550
7FF0
0000
0000
E038
E038
E038
E038
E038
E038
E038
B038
79F8
2F78
ENDCHAR
STARTCHAR Ubreve
ENCODING 364
SWIDTH 561 0
DWIDTH 10 0
BBX 8 16 1 0
BITMAP
1C28
0BE0
0000
E00B
E00B
E00B
E00B
E00B
E00B
E00B
E00B
E00B
A00B
B00E
7D6D
1BE4
ENDCHAR
STARTCHAR ubreve
ENCODING 365
SWIDTH 483 0
DWIDTH 9 0
BBX 7 13 1 0
BITMAP
34B0
1F90
0000
E038
E038
E038
E038
E038
E038
E038
B038
79F8
2F78
ENDCHAR
STARTCHAR Uring
ENCODING 366
SWIDTH 561 0
DWIDTH 10 0
BBX 8 18 1 0
BITMAP
0690
0920
0820
0690
0000
E00B
E00B
E00B
E00B
E00B
E00B
E00B
E00B
E00B
A00B
B00E
7D6D
1BE4
ENDCHAR
STARTCHAR uring
ENCODING 367
SWIDTH 483 0
DWIDTH 9 0
BBX 7 15 1 0
BITMAP
0A80
1480
1480
0A80
0000
E038
E038
E038
E038
E038
E038
E038
B038
79F8
2F78
ENDCHAR
STARTCHAR Uhungarumlaut
ENCODING 368
SWIDTH 561 0
DWIDTH 10 0
BBX 8 17 1 0
BITMAP
039D
0778
0A60
0000
E00B
E00B
E00B
E00B
E00B
E00B
E00B
E00B
E00B
A00B
B00E
7D6D
1BE4
ENDCHAR
STARTCHAR uhungarumlaut
ENCODING 369
SWIDTH 483 0
DWIDTH 9 0
BBX 7 14 1 0
BITMAP
0B78
0DB0
19D0
0000
E038
E038
E038
E038
E038
E038
E038
B038
79F8
2F78
ENDCHAR
STARTCHAR Uogonek
ENCODING 370
SWIDTH 561 0
DWIDTH 10 0
BBX 8 16 1 -3
BITMAP
E00B
E00B
E00B
E00B
E00B
E00B
E00B
E00B
E00B
A00B
B00E
3D6D
1BF4
01D0
01D0
00F0
ENDCHAR
STARTCHAR uogonek
ENCODING 371
SWIDTH 483 0
DWIDTH 9 0
BBX 7 14 1 -4
BITMAP
E038
E038
E038
E038
E038
E038
E038
B038
79F8
2F78
0070
00D0
00D4
00B4
ENDCHAR
STARTCHAR Wcircumflex
ENCODING 372
SWIDTH 761 0
DWIDTH 14 0
BBX 13 17 0 0
BITMAP
000A0000
002A8000
00258000
00000000
740A01C0
380F02C0
381F4280
2C1F4380
1C2A8340
1D35C700
0D71CB00
0E70DA00
0AA0AE00
0BD0AD00
07D07D00
03C03C00
03803800
ENDCHAR
STARTCHAR wcircumflex
ENCODING 373
SWIDTH 649 0
DWIDTH 12 0
BBX 11 14 0 0
BITMAP
003800
00AD00
01C600
000000
70381C
74382C
387C28
28AD34
2CDA74
1DCB70
0EC7A0
0B83D0
0B42D0
0701C0
ENDCHAR
STARTCHAR Ycircumflex
ENCODING 374
SWIDTH 524 0
DWIDTH 9 0
BBX 9 17 0 0
BITMAP
00E000
02B400
061800
000000
B403C0
380740
2C0B00
1D0E00
0B1C00
077800
03F400
01E000
00E000
00E000
00E000
00E000
00E000
ENDCHAR
STARTCHAR ycircumflex
ENCODING 375
SWIDTH 416 0
DWIDTH 8 0
BBX 7 18 0 -4
BITMAP
0380
0AE0
0D60
0000
B02C
7438
3834
2C74
1CB0
0DA0
0ED0
0BC0
0780
0380
0340
0700
1E00
7800
ENDCHAR
STARTCHAR Ydieresis
ENCODING 376
SWIDTH 524 0
DWIDTH 9 0
BBX 9 16 0 0
BITMAP
0A0900
0E0D00
000000
B403C0
380740
2C0B00
1D0E00
0B1C00
077800
03F400
01E000
00E000
00E000
00E000
00E000
00E000
ENDCHAR
STARTCHAR Zacute
ENCODING 377
SWIDTH 522 0
DWIDTH 9 0
BBX 9 17 0 0
BITMAP
002D00
007400
00A000
000000
3FFF40
155B40
000E00
002C00
003800
00B000
01D000
02C000
074000
0E0000
2D0000
3D5540
7FFF80
ENDCHAR
STARTCHAR zacute
ENCODING 378
SWIDTH 438 0
DWIDTH 8 0
BBX 8 14 0 0
BITMAP
00B4
01E0
0280
0000
3FFC
1578
0074
00E0
02C0
0740
0B00
1D00
3D54
7FFD
ENDCHAR
STARTCHAR Zdotaccent
ENCODING 379
SWIDTH 522 0
DWIDTH 9 0
BBX 9 16 0 0
BITMAP
009000
00E000
000000
3FFF40
155B40
000E00
002C00
003800
00B000
01D000
02C000
074000
0E0000
2D0000
3D5540
7FFF80
ENDCHAR
STARTCHAR zdotaccent
ENCODING 380
SWIDTH 438 0
DWIDTH 8 0
BBX 8 13 0 0
BITMAP
0280
0280
0000
3FFC
1578
0074
00E0
02C0
0740
0B00
1D00
3D54
7FFD
ENDCHAR
STARTCHAR Zcaron
ENCODING 381
SWIDTH 522 0
DWIDTH 9 0
BBX 9 17 0 0
BITMAP
072800
02B400
00E000
000000
3FFF40
155B40
000E00
002C00
003800
00B000
01D000
02C000
074000
0E0000
2D0000
3D5540
7FFF80
ENDCHAR
STARTCHAR zcaron
ENCODING 382
SWIDTH 438 0
DWIDTH 8 0
BBX 8 14 0 0
BITMAP
0D70
06D0
0280
0000
3FFC
1578
0074
00E0
02C0
0740
0B00
1D00
3D54
7FFD
ENDCHAR
STARTCHAR longs
ENCODING 383
SWIDTH 234 0
DWIDTH 4 0
BBX 4 14 1 0
BITMAP
2F
79
B0
B0
B0
B0
B0
B0
B0
B0
B0
B0
B0
B0
ENDCHAR
STARTCHAR uni018F
ENCODING 399
SWIDTH 597 0
DWIDTH 11 0
BBX 10 13 0 0
BITMAP
0BF900
0E6F40
0003C0
0001D0
0000E0
0000E0
7FFFE0
7955E0
3400E0
3801D0
2C03C0
0F9B40
02F900
ENDCHAR
STARTCHAR florin
ENCODING 402
SWIDTH 309 0
DWIDTH 6 0
BBX 6 18 0 -4
BITMAP
07D0
0F40
1D00
1D00
7F80
1D40
1D00
1D00
1D00
1D00
1D00
1D00
1D00
1D00
1D00
1D00
6C00
F400
ENDCHAR
STARTCHAR Ohorn
ENCODING 416
SWIDTH 592 0
DWIDTH 11 0
BBX 11 15 0 0
BITMAP
000014
000028
02F974
0B9FE0
1D03C0
2C01D0
3800D0
3400E0
7400E0
3400E0
3800D0
2C01D0
1D0280
0B9B40
02F900
ENDCHAR
STARTCHAR ohorn
ENCODING 417
SWIDTH 502 0
DWIDTH 9 0
BBX 8 11 1 0
BITMAP
0003
1B97
79BD
B038
E02C
D01C
D01C
E02C
B038
79B4
1B90
ENDCHAR
STARTCHAR Uhorn
ENCODING 431
SWIDTH 608 0
DWIDTH 11 0
BBX 11 14 1 0
BITMAP
000014
E00B28
E00B74
E00BE0
E00B00
E00B00
E00B00
E00B00
E00B00
E00B00
B00B00
B40E00
3D7D00
0BE400
ENDCHAR
STARTCHAR uhorn
ENCODING 432
SWIDTH 549 0
DWIDTH 10 0
BBX 9 11 1 0
BITMAP
000180
E03A80
E03E40
E03800
E03800
E03800
E03800
E03800
B03800
79F800
2F7800
ENDCHAR
STARTCHAR uni01F0
ENCODING 496
SWIDTH 237 0
DWIDTH 4 0
BBX 6 18 -1 -4
BITMAP
34D0
1E80
0B00
0000
0B00
0B00
0B00
0B00
0B00
0B00
0B00
0B00
0B00
0B00
0B00
0B00
1E00
7800
ENDCHAR
STARTCHAR Aringacute
ENCODING 506
SWIDTH 576 0
DWIDTH 10 0
BBX 10 18 0 0
BITMAP
001C00
002400
00B400
009400
00B400
00B000
00F400
01F800
029C00
038D00
074A00
0B0B00
0E0740
1FFF80
2D56C0
3801D0
3400E0
7400B0
ENDCHAR
STARTCHAR aringacute
ENCODING 507
SWIDTH 479 0
DWIDTH 9 0
BBX 7 15 1 0
BITMAP
00D0
0280
0740
0980
0740
1F90
79B0
A074
0074
1BF4
7974
E074
E074
BAF4
2F78
ENDCHAR
STARTCHAR AEacute
ENCODING 508
SWIDTH 812 0
DWIDTH 15 0
BBX 15 17 0 0
BITMAP
0001D000
00078000
00060000
00000000
000BFFE0
001F9550
002B8000
00778000
00A28000
01D28000
0282FFC0
0742D540
0BFFC000
1EAAC000
2C02C000
7802D550
B002FFF4
ENDCHAR
STARTCHAR aeacute
ENCODING 509
SWIDTH 728 0
DWIDTH 13 0
BBX 13 14 0 0
BITMAP
0003C000
000B0000
00090000
00000000
0BE1F800
2E7F9E00
382E0740
001D0340
0BFFFF40
2D6D5500
741D0000
741E0000
3DBB9B00
1F91FD00
ENDCHAR
STARTCHAR Oslashacute
ENCODING 510
SWIDTH 600 0
DWIDTH 11 0
BBX 9 18 1 -1
BITMAP
003800
00B000
01D000
000040
07E640
2EAF00
780F00
B01F40
A02780
E06380
E09280
E18380
E34380
B60740
7D0B00
2E6D00
3BF400
500000
ENDCHAR
STARTCHAR oslashacute
ENCODING 511
SWIDTH 498 0
DWIDTH 9 0
BBX 7 15 1 -1
BITMAP
01E0
0380
0600
0024
1BB0
79B4
B0F8
E1AC
D25C
D31C
E92C
BC38
7DB4
2F90
6000
ENDCHAR
STARTCHAR uni0218
ENCODING 536
SWIDTH 518 0
DWIDTH 9 0
BBX 9 18 0 -5
BITMAP
06F800
1E6E00
2C0740
380340
2C0000
1F8000
06F800
006F00
000740
740380
380740
1E5F00
06F800
000000
00E000
00D000
01D000
018000
ENDCHAR
STARTCHAR uni0219
ENCODING 537
SWIDTH 455 0
DWIDTH 8 0
BBX 7 15 1 -5
BITMAP
2F80
79E0
A070
B400
3E40
07E0
00B4
E074
B5B0
2F90
0000
0700
0700
0A00
0900
ENDCHAR
STARTCHAR uni021A
ENCODING 538
SWIDTH 520 0
DWIDTH 9 0
BBX 9 18 0 -5
BITMAP
7FFFC0
55E540
00E000
00E000
00E000
00E000
00E000
00E000
00E000
00E000
00E000
00E000
00E000
000000
00D000
00D000
01C000
018000
ENDCHAR
STARTCHAR uni021B
ENCODING 539
SWIDTH 295 0
DWIDTH 5 0
BBX 5 17 0 -5
BITMAP
1D00
1D00
BF80
6D00
1D00
1D00
1D00
1D00
1D00
1D00
1E40
0B80
0000
0740
0740
0700
0500
ENDCHAR
STARTCHAR uni0237
ENCODING 567
SWIDTH 237 0
DWIDTH 4 0
BBX 4 14 -1 -4
BITMAP
0B
0B
0B
0B
0B
0B
0B
0B
0B
0B
0B
0B
1E
78
ENDCHAR
STARTCHAR uni0259
ENCODING 601
SWIDTH 465 0
DWIDTH 8 0
BBX 7 10 1 0
BITMAP
2F80
A5E0
0074
0034
0038
FFF8
E574
E074
79E0
2F80
ENDCHAR
STARTCHAR uni02BC
ENCODING 700
SWIDTH 194 0
DWIDTH 4 0
BBX 3 4 0 10
BITMAP
28
38
34
60
ENDCHAR
STARTCHAR circumflex
ENCODING 710
SWIDTH 428 0
DWIDTH 8 0
BBX 5 3 1 11
BITMAP
0E00
2B40
6180
ENDCHAR
STARTCHAR caron
ENCODING 711
SWIDTH 403 0
DWIDTH 7 0
BBX 5 3 1 11
BITMAP
A280
3B00
1D00
ENDCHAR
STARTCHAR uni02C9
ENCODING 713
SWIDTH 414 0
DWIDTH 7 0
BBX 6 1 1 12
BITMAP
BFD0
ENDCHAR
STARTCHAR breve
ENCODING 728
SWIDTH 426 0
DWIDTH 8 0
BBX 6 2 1 11
BITMAP
A1D0
6F80
ENDCHAR
STARTCHAR dotaccent
ENCODING 729
SWIDTH 242 0
DWIDTH 4 0
BBX 2 2 1 11
BITMAP
60
B0
ENDCHAR
STARTCHAR ring
ENCODING 730
SWIDTH 334 0
DWIDTH 6 0
BBX 4 4 1 11
BITMAP
69
86
C2
69
ENDCHAR
STARTCHAR ogonek
ENCODING 731
SWIDTH 253 0
DWIDTH 5 0
BBX 3 5 0 -4
BITMAP
04
28
70
74
3C
ENDCHAR
STARTCHAR tilde
ENCODING 732
SWIDTH 427 0
DWIDTH 8 0
BBX 6 3 1 11
BITMAP
1040
7DD0
9780
ENDCHAR
STARTCHAR hungarumlaut
ENCODING 733
SWIDTH 331 0
DWIDTH 6 0
BBX 5 3 1 11
BITMAP
76C0
A740
9A00
ENDCHAR
STARTCHAR uni02F3
ENCODING 755
SWIDTH 263 0
DWIDTH 5 0
BBX 3 3 1 -4
BITMAP
B4
98
B4
ENDCHAR
STARTCHAR gravecomb
ENCODING 768
SWIDTH 0 0
DWIDTH 0 0
BBX 3 3 -6 11
BITMAP
F0
74
28
ENDCHAR
STARTCHAR acutecomb
ENCODING 769
SWIDTH 0 0
DWIDTH 0 0
BBX 4 3 -5 11
BITMAP
2D
74
60
ENDCHAR
STARTCHAR tildecomb
ENCODING 771
SWIDTH 0 0
DWIDTH 0 0
BBX 6 3 -7 11
BITMAP
0010
3EA0
62D0
ENDCHAR
STARTCHAR hookabovecomb
ENCODING 777
SWIDTH 0 0
DWIDTH 0 0
BBX 3 4 -5 11
BITMAP
A0
34
74
90
ENDCHAR
STARTCHAR uni030F
ENCODING 783
SWIDTH 0 0
DWIDTH 0 0
BBX 6 2 -7 11
BITMAP
B780
1DD0
ENDCHAR
STARTCHAR dotbelowcomb
ENCODING 803
SWIDTH 0 0
DWIDTH 0 0
BBX 2 2 -6 -3
BITMAP
D0
90
ENDCHAR
STARTCHAR tonos
ENCODING 900
SWIDTH 256 0
DWIDTH 5 0
BBX 3 3 1 11
BITMAP
34
70
60
ENDCHAR
STARTCHAR dieresistonos
ENCODING 901
SWIDTH 452 0
DWIDTH 8 0
BBX 6 3 1 11
BITMAP
0700
9660
D0A0
ENDCHAR
STARTCHAR Alphatonos
ENCODING 902
SWIDTH 576 0
DWIDTH 10 0
BBX 10 14 0 0
BITMAP
1D0000
1CB000
18F400
01F800
029C00
038D00
074A00
0B0B00
0E0740
1FFF80
2D56C0
3801D0
3400E0
7400B0
ENDCHAR
STARTCHAR anoteleia
ENCODING 903
SWIDTH 243 0
DWIDTH 4 0
BBX 2 2 1 5
BITMAP
B0
A0
ENDCHAR
STARTCHAR Epsilontonos
ENCODING 904
SWIDTH 496 0
DWIDTH 9 0
BBX 11 14 -2 0
BITMAP
740000
72FFF4
62D550
02C000
02C000
02C000
02C000
02FFE0
02D550
02C000
02C000
02C000
02D550
02FFF4
ENDCHAR
STARTCHAR Etatonos
ENCODING 905
SWIDTH 620 0
DWIDTH 11 0
BBX 12 14 -2 0
BITMAP
340000
72C00E
62C00E
02C00E
02C00E
02C00E
02C00E
02FFFE
02D55E
02C00E
02C00E
02C00E
02C00E
02C00E
ENDCHAR
STARTCHAR Iotatonos
ENCODING 906
SWIDTH 250 0
DWIDTH 5 0
BBX 5 14 -2 0
BITMAP
3400
72C0
62C0
02C0
02C0
02C0
02C0
02C0
02C0
02C0
02C0
02C0
02C0
02C0
ENDCHAR
STARTCHAR Omicrontonos
ENCODING 908
SWIDTH 610 0
DWIDTH 11 0
BBX 10 14 0 0
BITMAP
E00000
D1FE00
8BAB80
1E01D0
2C00E0
2C00A0
2C00B0
2C00B0
2C00B0
2C00A0
2C00E0
1E01D0
0B9B80
01FE00
ENDCHAR
STARTCHAR Upsilontonos
ENCODING 910
SWIDTH 573 0
DWIDTH 10 0
BBX 12 14 -2 0
BITMAP
700000
A2D00E
91E01D
00B02C
007474
0038B0
001DE0
000FC0
000B80
000740
000740
000740
000740
000740
ENDCHAR
STARTCHAR Omegatonos
ENCODING 911
SWIDTH 591 0
DWIDTH 11 0
BBX 10 14 0 0
BITMAP
E00000
D1F900
8B9B40
1D03C0
2C01D0
2C01D0
3801D0
3800D0
2801D0
2C01D0
1C02C0
0E0380
1B8B40
2FDFD0
ENDCHAR
STARTCHAR iotadieresistonos
ENCODING 912
SWIDTH 299 0
DWIDTH 5 0
BBX 7 14 -1 0
BITMAP
0380
6264
7034
0000
0740
0740
0740
0740
0740
0740
0740
0740
0790
02E0
ENDCHAR
STARTCHAR Alpha
ENCODING 913
SWIDTH 576 0
DWIDTH 10 0
BBX 10 13 0 0
BITMAP
00B000
00F400
01F800
029C00
038D00
074A00
0B0B00
0E0740
1FFF80
2D56C0
3801D0
3400E0
7400B0
ENDCHAR
STARTCHAR Beta
ENCODING 914
SWIDTH 545 0
DWIDTH 10 0
BBX 8 13 1 0
BITMAP
BFE4
B57C
B01D
B00E
B01D
B02C
BFF4
B56D
B00E
B00E
B00E
B56D
BFE4
ENDCHAR
STARTCHAR Gamma
ENCODING 915
SWIDTH 487 0
DWIDTH 9 0
BBX 7 13 1 0
BITMAP
BFFC
B554
B000
B000
B000
B000
B000
B000
B000
B000
B000
B000
B000
ENDCHAR
STARTCHAR Delta.dup1
ENCODING 916
SWIDTH 614 0
DWIDTH 11 0
BBX 11 13 0 0
BITMAP
007400
00B800
00FC00
01DD00
02CA00
038700
074340
0B0380
0E02C0
1D01D0
2C00E0
3955B0
7FFFF4
ENDCHAR
STARTCHAR Epsilon
ENCODING 917
SWIDTH 496 0
DWIDTH 9 0
BBX 8 13 1 0
BITMAP
BFFD
B554
B000
B000
B000
B000
BFF8
B554
B000
B000
B000
B554
BFFD
ENDCHAR
STARTCHAR Zeta
ENCODING 918
SWIDTH 522 0
DWIDTH 9 0
BBX 9 13 0 0
BITMAP
3FFF40
155B40
000E00
002C00
003800
00B000
01D000
02C000
074000
0E0000
2D0000
3D5540
7FFF80
ENDCHAR
STARTCHAR Eta
ENCODING 919
SWIDTH 620 0
DWIDTH 11 0
BBX 9 13 1 0
BITMAP
B00380
B00380
B00380
B00380
B00380
B00380
BFFF80
B55780
B00380
B00380
B00380
B00380
B00380
ENDCHAR
STARTCHAR Theta
ENCODING 920
SWIDTH 593 0
DWIDTH 11 0
BBX 9 13 1 0
BITMAP
0BE400
2E6D00
740B00
B00740
E00380
E00380
E7F780
E15380
E00380
B00740
740B00
2E6D00
0BE400
ENDCHAR
STARTCHAR Iota
ENCODING 921
SWIDTH 250 0
DWIDTH 5 0
BBX 2 13 1 0
BITMAP
B0
B0
B0
B0
B0
B0
B0
B0
B0
B0
B0
B0
B0
ENDCHAR
STARTCHAR Kappa
ENCODING 922
SWIDTH 544 0
DWIDTH 10 0
BBX 9 13 1 0
BITMAP
B00F00
B02D00
B07800
B0F000
B2D000
B74000
BF8000
BAD000
B0F000
B07800
B02D00
B00E00
B00740
ENDCHAR
STARTCHAR Lambda
ENCODING 923
SWIDTH 572 0
DWIDTH 10 0
BBX 10 13 0 0
BITMAP
00B000
00F400
01F800
02EC00
039D00
074D00
0B0E00
0E0B00
0D0740
1D0380
2C02C0
3801D0
7400E0
ENDCHAR
STARTCHAR Mu
ENCODING 924
SWIDTH 755 0
DWIDTH 14 0
BBX 12 13 1 0
BITMAP
B8003D
BC007D
BD00BD
BE00ED
BB01ED
B742DD
B3839D
B2875D
B1CB1D
B0DE1D
B0BD1D
B07C1D
B0381D
ENDCHAR
STARTCHAR Nu
ENCODING 925
SWIDTH 619 0
DWIDTH 11 0
BBX 9 13 1 0
BITMAP
B40380
B80380
BD0380
BA0380
B74380
B28380
B1D380
B0A380
B07780
B02F80
B00F80
B00B80
B00380
ENDCHAR
STARTCHAR Xi
ENCODING 926
SWIDTH 502 0
DWIDTH 9 0
BBX 7 13 1 0
BITMAP
FFFC
5554
0000
0000
0000
0000
7FF4
1550
0000
0000
0000
5554
FFFC
ENDCHAR
STARTCHAR Omicron
ENCODING 927
SWIDTH 600 0
DWIDTH 11 0
BBX 9 13 1 0
BITMAP
0BF400
2EAE00
740B40
B00340
E00380
E00380
E00380
E00380
E00380
B00340
740B40
2E6E00
0BF400
ENDCHAR
STARTCHAR Pi
ENCODING 928
SWIDTH 620 0
DWIDTH 11 0
BBX 9 13 1 0
BITMAP
BFFF80
B55780
B00380
B00380
B00380
B00380
B00380
B00380
B00380
B00380
B00380
B00380
B00380
ENDCHAR
STARTCHAR Rho
ENCODING 929
SWIDTH 554 0
DWIDTH 10 0
BBX 9 13 1 0
BITMAP
BFF400
B56D00
B00B00
B00740
B00740
B00B00
B01E00
BFFC00
B55000
B00000
B00000
B00000
B00000
ENDCHAR
STARTCHAR Sigma
ENCODING 931
SWIDTH 502 0
DWIDTH 9 0
BBX 9 13 0 0
BITMAP
7FFF00
3D5500
1D0000
0B0000
078000
02D000
00E000
02D000
078000
0B0000
1D0000
3D5500
7FFF40
ENDCHAR
STARTCHAR Tau
ENCODING 932
SWIDTH 520 0
DWIDTH 9 0
BBX 9 13 0 0
BITMAP
7FFFC0
55E540
00E000
00E000
00E000
00E000
00E000
00E000
00E000
00E000
00E000
00E000
00E000
ENDCHAR
STARTCHAR Upsilon
ENCODING 933
SWIDTH 524 0
DWIDTH 9 0
BBX 9 13 0 0
BITMAP
B403C0
380740
2C0B00
1D0E00
0B1C00
077800
03F400
01E000
00E000
00E000
00E000
00E000
00E000
ENDCHAR
STARTCHAR Phi
ENCODING 934
SWIDTH 621 0
DWIDTH 11 0
BBX 11 13 0 0
BITMAP
007400
007400
06FE40
1EBAD0
2C74B0
347474
747438
747434
387474
2D75E0
0BFF80
007900
007400
ENDCHAR
STARTCHAR Chi
ENCODING 935
SWIDTH 550 0
DWIDTH 10 0
BBX 8 13 1 0
BITMAP
E00F
B41D
382C
2D74
0EB0
07D0
03C0
0BD0
0EB0
2C78
382C
B41E
E00B
ENDCHAR
STARTCHAR Psi
ENCODING 936
SWIDTH 600 0
DWIDTH 11 0
BBX 10 13 0 0
BITMAP
74B0B0
74B0B0
74B0B0
74B0B0
74B0B0
34B0A0
38B0E0
1EB6C0
0BFF40
01B400
00B000
00B000
00B000
ENDCHAR
STARTCHAR Omega.dup2
ENCODING 937
SWIDTH 581 0
DWIDTH 10 0
BBX 9 13 1 0
BITMAP
0BE000
2E7C00
740E00
B00B00
E00740
E00740
E00740
E00740
A00700
B00A00
341D00
6D7D00
FE7F40
ENDCHAR
STARTCHAR Iotadieresis
ENCODING 938
SWIDTH 250 0
DWIDTH 5 0
BBX 6 16 -1 0
BITMAP
6060
74B0
0000
0B00
0B00
0B00
0B00
0B00
0B00
0B00
0B00
0B00
0B00
0B00
0B00
0B00
ENDCHAR
STARTCHAR Upsilondieresis
ENCODING 939
SWIDTH 524 0
DWIDTH 9 0
BBX 9 16 0 0
BITMAP
0A0900
0E0D00
000000
B403C0
380740
2C0B00
1D0E00
0B1C00
077800
03F400
01E000
00E000
00E000
00E000
00E000
00E000
ENDCHAR
STARTCHAR alphatonos
ENCODING 940
SWIDTH 494 0
DWIDTH 9 0
BBX 8 14 1 0
BITMAP
01C0
0280
0240
0000
1F68
79B8
B038
E038
D038
D038
E038
B038
79BD
2F5D
ENDCHAR
STARTCHAR epsilontonos
ENCODING 941
SWIDTH 470 0
DWIDTH 8 0
BBX 7 14 1 0
BITMAP
0340
0700
0600
0000
2F90
B5B0
E024
B000
3F80
B540
E000
E034
B5B4
2F90
ENDCHAR
STARTCHAR etatonos
ENCODING 942
SWIDTH 498 0
DWIDTH 9 0
BBX 7 18 1 -4
BITMAP
0280
0340
0200
0000
A7E0
B9B4
B038
A038
A038
A038
A038
A038
A038
A038
0038
0038
0038
0038
ENDCHAR
STARTCHAR iotatonos
ENCODING 943
SWIDTH 299 0
DWIDTH 5 0
BBX 4 14 1 0
BITMAP
28
34
20
00
74
74
74
74
74
74
74
74
79
2E
ENDCHAR
STARTCHAR upsilondieresistonos
ENCODING 944
SWIDTH 480 0
DWIDTH 9 0
BBX 7 14 1 0
BITMAP
0340
A660
A070
0000
A0B0
A074
A038
A038
A028
A038
A038
B074
79E0
1F80
ENDCHAR
STARTCHAR alpha
ENCODING 945
SWIDTH 494 0
DWIDTH 9 0
BBX 8 10 1 0
BITMAP
1F68
79B8
B038
E038
D038
D038
E038
B038
79BD
2F5D
ENDCHAR
STARTCHAR beta
ENCODING 946
SWIDTH 517 0
DWIDTH 9 0
BBX 8 16 1 -3
BITMAP
1BD0
39B4
B028
B02C
B078
B3E0
B178
B02C
B01D
B01D
B02C
B9B8
BBE0
B000
B000
B000
ENDCHAR
STARTCHAR gamma
ENCODING 947
SWIDTH 444 0
DWIDTH 8 0
BBX 8 14 0 -4
BITMAP
740D
381C
282C
1C38
1D74
0E70
0BA0
07D0
03C0
02C0
0280
0280
0280
0280
ENDCHAR
STARTCHAR delta
ENCODING 948
SWIDTH 498 0
DWIDTH 9 0
BBX 7 14 1 0
BITMAP
1BD0
3D90
3400
3800
1F40
1FE0
74B4
A038
E02C
D02C
E02C
B038
79B4
1F90
ENDCHAR
STARTCHAR epsilon
ENCODING 949
SWIDTH 470 0
DWIDTH 8 0
BBX 7 10 1 0
BITMAP
2F90
B5B0
E024
B000
3F80
B540
E000
E034
B5B4
2F90
ENDCHAR
STARTCHAR zeta
ENCODING 950
SWIDTH 462 0
DWIDTH 8 0
BBX 7 16 1 -3
BITMAP
FFF4
55B0
00D0
0280
0740
0E00
2C00
3800
7400
7000
7400
3900
1FD0
01B0
00A0
0090
ENDCHAR
STARTCHAR eta
ENCODING 951
SWIDTH 498 0
DWIDTH 9 0
BBX 7 14 1 -4
BITMAP
A7E0
B9B4
B038
A038
A038
A038
A038
A038
A038
A038
0038
0038
0038
0038
ENDCHAR
STARTCHAR theta
ENCODING 952
SWIDTH 496 0
DWIDTH 9 0
BBX 7 13 1 0
BITMAP
1B90
39B0
B034
A038
E02C
E02C
FFFC
E56C
E028
A038
B034
39B0
1B90
ENDCHAR
STARTCHAR iota
ENCODING 953
SWIDTH 299 0
DWIDTH 5 0
BBX 4 10 1 0
BITMAP
74
74
74
74
74
74
74
74
79
2E
ENDCHAR
STARTCHAR kappa
ENCODING 954
SWIDTH 491 0
DWIDTH 9 0
BBX 7 10 1 0
BITMAP
B078
B0B0
B2D0
B780
BF00
BB40
B2C0
B1E0
B0B4
B03C
ENDCHAR
STARTCHAR lambda
ENCODING 955
SWIDTH 485 0
DWIDTH 9 0
BBX 8 13 0 0
BITMAP
2D00
1F00
0740
0380
03C0
03D0
07E0
0AB0
0D74
1C38
2C2C
381E
740B
ENDCHAR
STARTCHAR uni03BC
ENCODING 956
SWIDTH 498 0
DWIDTH 9 0
BBX 7 14 1 -4
BITMAP
B038
B038
B038
B038
B038
B038
B038
B038
B9B8
BBA8
B000
B000
B000
B000
ENDCHAR
STARTCHAR nu
ENCODING 957
SWIDTH 427 0
DWIDTH 8 0
BBX 7 10 0 0
BITMAP
701C
3428
3838
2C74
1C70
0DA0
0AD0
07C0
03C0
0380
ENDCHAR
STARTCHAR xi
ENCODING 958
SWIDTH 431 0
DWIDTH 8 0
BBX 6 16 1 -3
BITMAP
1BE0
7950
B000
B000
7800
1FD0
7940
A000
D000
E000
F000
7E40
0AE0
0070
00B0
0090
ENDCHAR
STARTCHAR omicron
ENCODING 959
SWIDTH 501 0
DWIDTH 9 0
BBX 8 10 1 0
BITMAP
1FD0
79B4
B028
E01C
D01D
D01C
E01C
A02C
79B4
1FD0
ENDCHAR
STARTCHAR pi
ENCODING 960
SWIDTH 520 0
DWIDTH 9 0
BBX 9 10 0 0
BITMAP
BFFF80
6D5E40
1D0E00
1D0E00
1D0E00
1D0E00
1D0E00
1D0E00
1D0F40
1D07C0
ENDCHAR
STARTCHAR rho
ENCODING 961
SWIDTH 498 0
DWIDTH 9 0
BBX 7 14 1 -4
BITMAP
0BD0
3DB4
7438
B02C
A02C
A02C
A02C
B038
B9B4
ABD0
A000
A000
A000
A000
ENDCHAR
STARTCHAR sigma1
ENCODING 962
SWIDTH 472 0
DWIDTH 9 0
BBX 7 13 1 -3
BITMAP
1B90
79B0
B034
E014
D000
D000
E000
B400
3E00
0BE0
00B0
00A0
0090
ENDCHAR
STARTCHAR sigma
ENCODING 963
SWIDTH 498 0
DWIDTH 9 0
BBX 8 10 1 0
BITMAP
1BFE
79B5
B034
E02C
D02C
D02C
E02C
B038
79B0
1B90
ENDCHAR
STARTCHAR tau
ENCODING 964
SWIDTH 460 0
DWIDTH 8 0
BBX 8 10 0 0
BITMAP
7FFD
16D4
02C0
02C0
02C0
02C0
02C0
02C0
02D0
00F4
ENDCHAR
STARTCHAR upsilon
ENCODING 965
SWIDTH 480 0
DWIDTH 9 0
BBX 7 10 1 0
BITMAP
A0B0
A074
A038
A038
A028
A038
A038
B074
79E0
1F80
ENDCHAR
STARTCHAR phi
ENCODING 966
SWIDTH 617 0
DWIDTH 11 0
BBX 11 14 0 -4
BITMAP
082E40
2D7AD0
3874B0
347474
747474
747474
387474
2C74F0
0FBBD0
02FE40
007400
007400
007400
007400
ENDCHAR
STARTCHAR chi
ENCODING 967
SWIDTH 438 0
DWIDTH 8 0
BBX 8 14 0 -4
BITMAP
741D
6C2C
0E38
0B74
07F0
03D0
02C0
03D0
07E0
0BB0
0E74
1D38
2C1E
340B
ENDCHAR
STARTCHAR psi
ENCODING 968
SWIDTH 612 0
DWIDTH 11 0
BBX 11 14 0 -4
BITMAP
7474E0
7474B0
7474B0
747474
747474
347474
3874B0
2C75E0
0FBBD0
02FE00
007400
007400
007400
007400
ENDCHAR
STARTCHAR omega
ENCODING 969
SWIDTH 711 0
DWIDTH 13 0
BBX 11 10 1 0
BITMAP
3400B0
740074
B01034
E07038
E07038
E07038
E07438
B0B874
79EEF0
1F4BD0
ENDCHAR
STARTCHAR iotadieresis
ENCODING 970
SWIDTH 299 0
DWIDTH 5 0
BBX 6 13 0 0
BITMAP
9180
D1D0
0000
1D00
1D00
1D00
1D00
1D00
1D00
1D00
1D00
1E40
0B80
ENDCHAR
STARTCHAR upsilondieresis
ENCODING 971
SWIDTH 480 0
DWIDTH 9 0
BBX 7 13 1 0
BITMAP
6060
70B0
0000
A0B0
A074
A038
A038
A028
A038
A038
B074
79E0
1F80
ENDCHAR
STARTCHAR omicrontonos
ENCODING 972
SWIDTH 501 0
DWIDTH 9 0
BBX 8 14 1 0
BITMAP
0280
0340
0200
0000
1FD0
79B4
B028
E01C
D01D
D01C
E01C
A02C
79B4
1FD0
ENDCHAR
STARTCHAR upsilontonos
ENCODING 973
SWIDTH 480 0
DWIDTH 9 0
BBX 7 14 1 0
BITMAP
0340
0700
0600
0000
A0B0
A074
A038
A038
A028
A038
A038
B074
79E0
1F80
ENDCHAR
STARTCHAR omegatonos
ENCODING 974
SWIDTH 711 0
DWIDTH 13 0
BBX 11 14 1 0
BITMAP
002800
003400
002000
000000
3400B0
740074
B01034
E07038
E07038
E07038
E07438
B0B874
79EEF0
1F4BD0
ENDCHAR
STARTCHAR theta1
ENCODING 977
SWIDTH 507 0
DWIDTH 9 0
BBX 8 13 1 0
BITMAP
07E0
0EB4
1D38
1D38
0E38
0B78
A2FE
E038
E038
E038
B074
79B0
1F90
ENDCHAR
STARTCHAR Upsilon1
ENCODING 978
SWIDTH 465 0
DWIDTH 8 0
BBX 9 13 0 0
BITMAP
E00B40
B80E00
2C2C00
1D3800
0E7400
0BB000
03E000
02C000
02C000
02C000
02C000
02C000
02C000
ENDCHAR
STARTCHAR omega1
ENCODING 982
SWIDTH 678 0
DWIDTH 12 0
BBX 12 10 0 0
BITMAP
7FFFFE
2D557D
2C002C
282C2C
382C1C
382C1C
282C1C
2C3D2C
1EBA78
07D2E0
ENDCHAR
STARTCHAR uni0400
ENCODING 1024
SWIDTH 496 0
DWIDTH 9 0
BBX 8 17 1 0
BITMAP
2D00
0B00
0340
0000
BFFD
B554
B000
B000
B000
B000
BFF8
B554
B000
B000
B000
B554
BFFD
ENDCHAR
STARTCHAR uni0401
ENCODING 1025
SWIDTH 496 0
DWIDTH 9 0
BBX 8 16 1 0
BITMAP
2824
3834
0000
BFFD
B554
B000
B000
B000
B000
BFF8
B554
B000
B000
B000
B554
BFFD
ENDCHAR
STARTCHAR uni0402
ENCODING 1026
SWIDTH 650 0
DWIDTH 12 0
BBX 11 13 0 0
BITMAP
BFFF80
56D540
02C000
02C000
02C000
02EF90
02EAF4
02C038
02C02C
02C02C
02C038
02C1B4
02C290
ENDCHAR
STARTCHAR uni0403
ENCODING 1027
SWIDTH 487 0
DWIDTH 9 0
BBX 7 17 1 0
BITMAP
00B4
01D0
0280
0000
BFFC
B554
B000
B000
B000
B000
B000
B000
B000
B000
B000
B000
B000
ENDCHAR
STARTCHAR uni0404
ENCODING 1028
SWIDTH 589 0
DWIDTH 11 0
BBX 9 13 1 0
BITMAP
07F400
2E6D00
780B00
B00740
A00100
E00000
FFE000
E55000
E00100
B00740
740B00
2E6D00
0BF400
ENDCHAR
STARTCHAR uni0405
ENCODING 1029
SWIDTH 518 0
DWIDTH 9 0
BBX 9 13 0 0
BITMAP
06F800
1E6E00
2C0740
380340
2C0000
1F8000
06F800
006F00
000740
740380
380740
1E5F00
06F800
ENDCHAR
STARTCHAR uni0406
ENCODING 1030
SWIDTH 250 0
DWIDTH 5 0
BBX 2 13 1 0
BITMAP
B0
B0
B0
B0
B0
B0
B0
B0
B0
B0
B0
B0
B0
ENDCHAR
STARTCHAR uni0407
ENCODING 1031
SWIDTH 250 0
DWIDTH 5 0
BBX 6 16 -1 0
BITMAP
6060
74B0
0000
0B00
0B00
0B00
0B00
0B00
0B00
0B00
0B00
0B00
0B00
0B00
0B00
0B00
ENDCHAR
STARTCHAR uni0408
ENCODING 1032
SWIDTH 483 0
DWIDTH 9 0
BBX 8 13 0 0
BITMAP
001D
001D
001D
001D
001D
001D
001D
001D
001D
601D
741D
3DB8
0BE0
ENDCHAR
STARTCHAR uni0409
ENCODING 1033
SWIDTH 923 0
DWIDTH 17 0
BBX 16 13 0 0
BITMAP
03FFE000
0795E000
0740E000
0740E000
0740E000
0740FFE4
0740E57D
0700E00E
0700E00B
0B00E00A
0E00E00E
6D00E57C
7800FFE4
ENDCHAR
STARTCHAR uni040A
ENCODING 1034
SWIDTH 927 0
DWIDTH 17 0
BBX 15 13 1 0
BITMAP
B0038000
B0038000
B0038000
B0038000
B0038000
B003FF90
BFFF95B4
B5578038
B003802C
B003802C
B0038038
B00396F4
B003FF90
ENDCHAR
STARTCHAR uni040B
ENCODING 1035
SWIDTH 705 0
DWIDTH 13 0
BBX 12 13 0 0
BITMAP
7FFFC0
16E540
01D000
01D000
01D000
01EFE0
01E5B8
01D02C
01D01D
01D01D
01D01D
01D01D
01D01D
ENDCHAR
STARTCHAR uni040C
ENCODING 1036
SWIDTH 544 0
DWIDTH 10 0
BBX 9 17 1 0
BITMAP
00F000
02D000
024000
000000
B00F00
B02D00
B07800
B0F000
B2D000
B74000
BF8000
BAD000
B0F000
B07800
B02D00
B00E00
B00740
ENDCHAR
STARTCHAR uni040D
ENCODING 1037
SWIDTH 619 0
DWIDTH 11 0
BBX 9 17 1 0
BITMAP
0B4000
038000
01D000
000000
B00780
B00B80
B00F80
B02B80
B03380
B0A380
B0D380
B28380
B34380
BA0380
BD0380
B80380
B40380
ENDCHAR
STARTCHAR uni040E
ENCODING 1038
SWIDTH 547 0
DWIDTH 10 0
BBX 8 16 1 0
BITMAP
2C34
0BE0
0000
E00B
B00E
741D
382C
2C38
0D74
0BB0
07E0
03D0
02C0
0380
1B40
2D00
ENDCHAR
STARTCHAR uni040F
ENCODING 1039
SWIDTH 621 0
DWIDTH 11 0
BBX 9 16 1 -3
BITMAP
B00380
B00380
B00380
B00380
B00380
B00380
B00380
B00380
B00380
B00380
B00380
B55780
BFFF80
01D000
01D000
01D000
ENDCHAR
STARTCHAR uni0410
ENCODING 1040
SWIDTH 576 0
DWIDTH 10 0
BBX 10 13 0 0
BITMAP
00B000
00F400
01F800
029C00
038D00
074A00
0B0B00
0E0740
1FFF80
2D56C0
3801D0
3400E0
7400B0
ENDCHAR
STARTCHAR uni0411
ENCODING 1041
SWIDTH 549 0
DWIDTH 10 0
BBX 8 13 1 0
BITMAP
BFFC
B554
B000
B000
B000
BFF4
B56D
B00B
B007
B007
B00B
B56D
BFF4
ENDCHAR
STARTCHAR uni0412
ENCODING 1042
SWIDTH 545 0
DWIDTH 10 0
BBX 8 13 1 0
BITMAP
BFE4
B57C
B01D
B00E
B01D
B02C
BFF4
B56D
B00E
B00E
B00E
B56D
BFE4
ENDCHAR
STARTCHAR uni0413
ENCODING 1043
SWIDTH 487 0
DWIDTH 9 0
BBX 7 13 1 0
BITMAP
BFFC
B554
B000
B000
B000
B000
B000
B000
B000
B000
B000
B000
B000
ENDCHAR
STARTCHAR uni0414
ENCODING 1044
SWIDTH 660 0
DWIDTH 12 0
BBX 12 16 0 -3
BITMAP
03FFE0
0395E0
0380A0
0380A0
0380A0
0380A0
0340A0
0740A0
0740A0
0B00A0
0E00A0
6E55F4
BFFFFD
B0001D
B0001D
B0001D
ENDCHAR
STARTCHAR uni0415
ENCODING 1045
SWIDTH 496 0
DWIDTH 9 0
BBX 8 13 1 0
BITMAP
BFFD
B554
B000
B000
B000
B000
BFF8
B554
B000
B000
B000
B554
BFFD
ENDCHAR
STARTCHAR uni0416
ENCODING 1046
SWIDTH 791 0
DWIDTH 14 0
BBX 14 13 0 0
BITMAP
380B01D0
2D0B03C0
0E0B0740
0B0B0B00
038B1D00
02CB2C00
01FFF800
02DB6C00
078B1E00
0B0B0B00
1E0B0780
2C0B02D0
780B01E0
ENDCHAR
STARTCHAR uni0417
ENCODING 1047
SWIDTH 517 0
DWIDTH 9 0
BBX 8 13 1 0
BITMAP
1BE0
79B8
E02C
901D
001D
0078
0BF0
05B8
001D
900E
E01D
B9BC
1BE0
ENDCHAR
STARTCHAR uni0418
ENCODING 1048
SWIDTH 619 0
DWIDTH 11 0
BBX 9 13 1 0
BITMAP
B00780
B00B80
B00F80
B02B80
B03380
B0A380
B0D380
B28380
B34380
BA0380
BD0380
B80380
B40380
ENDCHAR
STARTCHAR uni0419
ENCODING 1049
SWIDTH 619 0
DWIDTH 11 0
BBX 9 16 1 0
BITMAP
0E1C00
06F400
000000
B00780
B00B80
B00F80
B02B80
B03380
B0A380
B0D380
B28380
B34380
BA0380
BD0380
B80380
B40380
ENDCHAR
STARTCHAR uni041A
ENCODING 1050
SWIDTH 560 0
DWIDTH 10 0
BBX 9 13 1 0
BITMAP
B00B40
B01E00
B03C00
B0B400
B1E000
B7C000
BF8000
B1D000
B0B000
B07800
B02D00
B00F00
B00780
ENDCHAR
STARTCHAR uni041B
ENCODING 1051
SWIDTH 615 0
DWIDTH 11 0
BBX 10 13 0 0
BITMAP
03FFE0
0795E0
0740E0
0740E0
0740E0
0740E0
0740E0
0740E0
0700E0
0B00E0
0E00E0
6D00E0
7800E0
ENDCHAR
STARTCHAR uni041C
ENCODING 1052
SWIDTH 755 0
DWIDTH 14 0
BBX 12 13 1 0
BITMAP
B8003D
BC007D
BD00BD
BE00ED
BB01ED
B742DD
B3839D
B2875D
B1CB1D
B0DE1D
B0BD1D
B07C1D
B0381D
ENDCHAR
STARTCHAR uni041D
ENCODING 1053
SWIDTH 620 0
DWIDTH 11 0
BBX 9 13 1 0
BITMAP
B00380
B00380
B00380
B00380
B00380
B00380
BFFF80
B55780
B00380
B00380
B00380
B00380
B00380
ENDCHAR
STARTCHAR uni041E
ENCODING 1054
SWIDTH 600 0
DWIDTH 11 0
BBX 9 13 1 0
BITMAP
0BF400
2EAE00
740B40
B00340
E00380
E00380
E00380
E00380
E00380
B00340
740B40
2E6E00
0BF400
ENDCHAR
STARTCHAR uni041F
ENCODING 1055
SWIDTH 620 0
DWIDTH 11 0
BBX 9 13 1 0
BITMAP
BFFF80
B55780
B00380
B00380
B00380
B00380
B00380
B00380
B00380
B00380
B00380
B00380
B00380
ENDCHAR
STARTCHAR uni0420
ENCODING 1056
SWIDTH 554 0
DWIDTH 10 0
BBX 9 13 1 0
BITMAP
BFF400
B56D00
B00B00
B00740
B00740
B00B00
B01E00
BFFC00
B55000
B00000
B00000
B00000
B00000
ENDCHAR
STARTCHAR uni0421
ENCODING 1057
SWIDTH 566 0
DWIDTH 10 0
BBX 9 13 1 0
BITMAP
0BF400
2E6E00
740B00
B00740
E00100
E00000
E00000
E00000
E00100
B00740
740B00
2E6E00
0BF400
ENDCHAR
STARTCHAR uni0422
ENCODING 1058
SWIDTH 520 0
DWIDTH 9 0
BBX 9 13 0 0
BITMAP
7FFFC0
55E540
00E000
00E000
00E000
00E000
00E000
00E000
00E000
00E000
00E000
00E000
00E000
ENDCHAR
STARTCHAR uni0423
ENCODING 1059
SWIDTH 547 0
DWIDTH 10 0
BBX 8 13 1 0
BITMAP
E00B
B00E
741D
382C
2C38
0D74
0BB0
07E0
03D0
02C0
0380
1B40
2D00
ENDCHAR
STARTCHAR uni0424
ENCODING 1060
SWIDTH 676 0
DWIDTH 12 0
BBX 11 14 1 -1
BITMAP
00B000
00B000
0BFE40
3DB6D0
B0B0B0
E0B074
D0B034
D0B034
E0B074
B0B0B0
3DB6D0
0BFE40
00B000
00B000
ENDCHAR
STARTCHAR uni0425
ENCODING 1061
SWIDTH 550 0
DWIDTH 10 0
BBX 8 13 1 0
BITMAP
E00F
B41D
382C
2D74
0EB0
07D0
03C0
0BD0
0EB0
2C78
382C
B41E
E00B
ENDCHAR
STARTCHAR uni0426
ENCODING 1062
SWIDTH 639 0
DWIDTH 12 0
BBX 10 16 1 -3
BITMAP
B00380
B00380
B00380
B00380
B00380
B00380
B00380
B00380
B00380
B00380
B00380
B55790
BFFFE0
0000A0
0000A0
0000A0
ENDCHAR
STARTCHAR uni0427
ENCODING 1063
SWIDTH 600 0
DWIDTH 11 0
BBX 9 13 1 0
BITMAP
B00740
B00740
B00740
B00740
B00740
B00740
781B40
2FFF40
015740
000740
000740
000740
000740
ENDCHAR
STARTCHAR uni0428
ENCODING 1064
SWIDTH 814 0
DWIDTH 15 0
BBX 13 13 1 0
BITMAP
B01C0740
B01C0740
B01C0740
B01C0740
B01C0740
B01C0740
B01C0740
B01C0740
B01C0740
B01C0740
B01C0740
B56D5B40
BFFFFF40
ENDCHAR
STARTCHAR uni0429
ENCODING 1065
SWIDTH 841 0
DWIDTH 15 0
BBX 14 16 1 -3
BITMAP
B01C0740
B01C0740
B01C0740
B01C0740
B01C0740
B01C0740
B01C0740
B01C0740
B01C0740
B01C0740
B01C0740
B56D5B40
BFFFFFD0
000001D0
000001D0
000001D0
ENDCHAR
STARTCHAR uni042A
ENCODING 1066
SWIDTH 651 0
DWIDTH 12 0
BBX 11 13 0 0
BITMAP
BF8000
578000
028000
028000
028000
02FFD0
02D5B4
028038
02802C
02802C
028038
02D5B4
02FF90
ENDCHAR
STARTCHAR uni042B
ENCODING 1067
SWIDTH 755 0
DWIDTH 14 0
BBX 11 13 1 0
BITMAP
B0002C
B0002C
B0002C
B0002C
B0002C
BFF82C
B56E2C
B00B2C
B0076C
B0076C
B00B2C
B56E2C
BFF82C
ENDCHAR
STARTCHAR uni042C
ENCODING 1068
SWIDTH 551 0
DWIDTH 10 0
BBX 8 13 1 0
BITMAP
B000
B000
B000
B000
B000
BFF4
B56D
B00B
B007
B007
B00B
B56D
BFF4
ENDCHAR
STARTCHAR uni042D
ENCODING 1069
SWIDTH 589 0
DWIDTH 11 0
BBX 9 13 1 0
BITMAP
0BE400
2E6D00
740B00
B00740
100380
000380
03FF80
015780
100380
B00740
740B00
2E6D00
0BE400
ENDCHAR
STARTCHAR uni042E
ENCODING 1070
SWIDTH 765 0
DWIDTH 14 0
BBX 12 13 1 0
BITMAP
B01BE0
B07ABC
B0E01E
B1D00B
B1D00B
B1C00B
BFC00B
B6C00B
B1D00B
B1D00B
B0E01E
B079BC
B01BE0
ENDCHAR
STARTCHAR uni042F
ENCODING 1071
SWIDTH 562 0
DWIDTH 10 0
BBX 8 13 1 0
BITMAP
0BFE
3E5E
740E
B00E
B00E
B00E
380E
1FFE
0E5E
1D0E
380E
740E
E00E
ENDCHAR
STARTCHAR uni0430
ENCODING 1072
SWIDTH 479 0
DWIDTH 9 0
BBX 7 10 1 0
BITMAP
1F90
79B0
A074
0074
1BF4
7974
E074
E074
BAF4
2F78
ENDCHAR
STARTCHAR uni0431
ENCODING 1073
SWIDTH 484 0
DWIDTH 9 0
BBX 7 14 1 0
BITMAP
0034
01F4
1FD0
3900
A000
ABD0
F9B4
E038
E02C
D02C
E02C
B038
79B4
1F90
ENDCHAR
STARTCHAR uni0432
ENCODING 1074
SWIDTH 503 0
DWIDTH 9 0
BBX 7 10 1 0
BITMAP
BFE0
B5B8
B028
B078
BFF0
B578
B02C
B02C
B578
BFE0
ENDCHAR
STARTCHAR uni0433
ENCODING 1075
SWIDTH 371 0
DWIDTH 7 0
BBX 6 10 1 0
BITMAP
BFD0
B540
B000
B000
B000
B000
B000
B000
B000
B000
ENDCHAR
STARTCHAR uni0434
ENCODING 1076
SWIDTH 536 0
DWIDTH 10 0
BBX 9 13 0 -3
BITMAP
07FF00
07AB00
070B00
070B00
0B0B00
0B0B00
0A0B00
1D0B00
2D5B40
7FFFC0
7002C0
7002C0
B002C0
ENDCHAR
STARTCHAR uni0435
ENCODING 1077
SWIDTH 468 0
DWIDTH 8 0
BBX 7 10 1 0
BITMAP
1F90
79B0
A038
D038
FFF8
E554
E000
E000
7974
1FE0
ENDCHAR
STARTCHAR uni0436
ENCODING 1078
SWIDTH 662 0
DWIDTH 12 0
BBX 12 10 0 0
BITMAP
78282C
2C2878
0E28B0
0B29D0
03FFC0
07BED0
0E28E0
1D2874
3C2838
74282D
ENDCHAR
STARTCHAR uni0437
ENCODING 1079
SWIDTH 446 0
DWIDTH 8 0
BBX 6 10 1 0
BITMAP
2F80
B5E0
D0B0
00A0
1FD0
05E0
0070
D0B0
B5E0
2F80
ENDCHAR
STARTCHAR uni0438
ENCODING 1080
SWIDTH 509 0
DWIDTH 9 0
BBX 7 10 1 0
BITMAP
B03C
B07C
B0FC
B1EC
B26C
B72C
BA2C
BC2C
B82C
B02C
ENDCHAR
STARTCHAR uni0439
ENCODING 1081
SWIDTH 509 0
DWIDTH 9 0
BBX 7 13 1 0
BITMAP
3870
1BD0
0000
B03C
B07C
B0FC
B1EC
B26C
B72C
BA2C
BC2C
B82C
B02C
ENDCHAR
STARTCHAR uni043A
ENCODING 1082
SWIDTH 479 0
DWIDTH 9 0
BBX 7 10 1 0
BITMAP
B038
B0B0
B1D0
B380
BF00
B780
B2C0
B0E0
B0B4
B03C
ENDCHAR
STARTCHAR uni043B
ENCODING 1083
SWIDTH 509 0
DWIDTH 9 0
BBX 8 10 0 0
BITMAP
0BFF
0B5B
0A0B
0A0B
0E0B
0E0B
0E0B
1D0B
6C0B
B40B
ENDCHAR
STARTCHAR uni043C
ENCODING 1084
SWIDTH 645 0
DWIDTH 12 0
BBX 10 10 1 0
BITMAP
B402D0
B803D0
BC07D0
BD0BD0
BA0ED0
B71DD0
B369D0
B2B5D0
B1F1D0
B0E1D0
ENDCHAR
STARTCHAR uni043D
ENCODING 1085
SWIDTH 508 0
DWIDTH 9 0
BBX 7 10 1 0
BITMAP
B02C
B02C
B02C
B02C
BFFC
B56C
B02C
B02C
B02C
B02C
ENDCHAR
STARTCHAR uni043E
ENCODING 1086
SWIDTH 501 0
DWIDTH 9 0
BBX 8 10 1 0
BITMAP
1FD0
79B4
B028
E01C
D01D
D01C
E01C
A02C
79B4
1FD0
ENDCHAR
STARTCHAR uni043F
ENCODING 1087
SWIDTH 509 0
DWIDTH 9 0
BBX 7 10 1 0
BITMAP
BFFC
B56C
B02C
B02C
B02C
B02C
B02C
B02C
B02C
B02C
ENDCHAR
STARTCHAR uni0440
ENCODING 1088
SWIDTH 493 0
DWIDTH 9 0
BBX 7 14 1 -4
BITMAP
ABE0
B9B4
A038
A02C
A02C
A02C
A02C
A038
B9B4
ABE0
A000
A000
A000
A000
ENDCHAR
STARTCHAR uni0441
ENCODING 1089
SWIDTH 461 0
DWIDTH 8 0
BBX 7 10 1 0
BITMAP
1F90
79B0
E038
D014
D000
D000
D000
E038
79B0
1F90
ENDCHAR
STARTCHAR uni0442
ENCODING 1090
SWIDTH 424 0
DWIDTH 8 0
BBX 8 10 0 0
BITMAP
BFFD
1794
0380
0380
0380
0380
0380
0380
0380
0380
ENDCHAR
STARTCHAR uni0443
ENCODING 1091
SWIDTH 416 0
DWIDTH 8 0
BBX 7 14 0 -4
BITMAP
B02C
7438
3834
2C74
1CB0
0DA0
0ED0
0BC0
0780
0380
0340
0700
1E00
7800
ENDCHAR
STARTCHAR uni0444
ENCODING 1092
SWIDTH 628 0
DWIDTH 11 0
BBX 10 18 1 -4
BITMAP
01D000
01D000
01D000
01D000
2FFE00
7AE780
A1D2C0
E1D1D0
D1D0D0
D1D0D0
E1D1D0
E1D2C0
79E780
2FFE00
01D000
01D000
01D000
01D000
ENDCHAR
STARTCHAR uni0445
ENCODING 1093
SWIDTH 438 0
DWIDTH 8 0
BBX 7 10 0 0
BITMAP
782C
2C38
1DB0
0BE0
03C0
07C0
0AE0
1DB0
2C38
742C
ENDCHAR
STARTCHAR uni0446
ENCODING 1094
SWIDTH 524 0
DWIDTH 9 0
BBX 8 13 1 -3
BITMAP
B02C
B02C
B02C
B02C
B02C
B02C
B02C
B02C
B56D
BFFE
000A
000A
000A
ENDCHAR
STARTCHAR uni0447
ENCODING 1095
SWIDTH 479 0
DWIDTH 9 0
BBX 7 10 1 0
BITMAP
D074
D074
D074
E074
B074
7FF4
0574
0074
0074
0074
ENDCHAR
STARTCHAR uni0448
ENCODING 1096
SWIDTH 703 0
DWIDTH 13 0
BBX 11 10 1 0
BITMAP
B07074
B07074
B07074
B07074
B07074
B07074
B07074
B07074
B5B574
BFFFF4
ENDCHAR
STARTCHAR uni0449
ENCODING 1097
SWIDTH 722 0
DWIDTH 13 0
BBX 12 13 1 -3
BITMAP
A0B074
A0B074
A0B074
A0B074
A0B074
A0B074
A0B074
A0B074
B5B5B4
BFFFFD
00000D
00000D
00000D
ENDCHAR
STARTCHAR uni044A
ENCODING 1098
SWIDTH 538 0
DWIDTH 10 0
BBX 9 10 0 0
BITMAP
BF4000
5B4000
074000
07FE00
075780
0742C0
0741C0
0742C0
075780
07FE00
ENDCHAR
STARTCHAR uni044B
ENCODING 1099
SWIDTH 679 0
DWIDTH 12 0
BBX 10 10 1 0
BITMAP
B000E0
B000E0
B000E0
BFD0E0
B5B4E0
B038E0
B028E0
B038E0
B5B4E0
BFD0E0
ENDCHAR
STARTCHAR uni044C
ENCODING 1100
SWIDTH 478 0
DWIDTH 9 0
BBX 7 10 1 0
BITMAP
B000
B000
B000
BFD0
B5B4
B038
B028
B038
B5B4
BFD0
ENDCHAR
STARTCHAR uni044D
ENCODING 1101
SWIDTH 472 0
DWIDTH 9 0
BBX 7 10 1 0
BITMAP
2F80
B5E0
E070
0034
0BF4
0578
5074
E0B0
B5E0
2F80
ENDCHAR
STARTCHAR uni044E
ENCODING 1102
SWIDTH 706 0
DWIDTH 13 0
BBX 11 10 1 0
BITMAP
B01F80
B079F0
B0E034
B1D028
BFD02C
B6D02C
B1D028
B0E038
B079F0
B01F80
ENDCHAR
STARTCHAR uni044F
ENCODING 1103
SWIDTH 482 0
DWIDTH 9 0
BBX 8 10 0 0
BITMAP
0BFD
2D5D
381D
341D
381D
1FFD
0B5D
1D1D
2C1D
741D
ENDCHAR
STARTCHAR uni0450
ENCODING 1104
SWIDTH 468 0
DWIDTH 8 0
BBX 7 14 1 0
BITMAP
3C00
1E00
0A00
0000
1F90
79B0
A038
D038
FFF8
E554
E000
E000
7974
1FE0
ENDCHAR
STARTCHAR uni0451
ENCODING 1105
SWIDTH 468 0
DWIDTH 8 0
BBX 7 13 1 0
BITMAP
6460
7470
0000
1F90
79B0
A038
D038
FFF8
E554
E000
E000
7974
1FE0
ENDCHAR
STARTCHAR uni0452
ENCODING 1106
SWIDTH 482 0
DWIDTH 9 0
BBX 8 18 0 -4
BITMAP
3800
3800
FF80
7940
3AF4
3E6C
3C0D
380E
380E
380E
380E
380E
380E
380E
000E
000D
006D
00B4
ENDCHAR
STARTCHAR uni0453
ENCODING 1107
SWIDTH 371 0
DWIDTH 7 0
BBX 6 14 1 0
BITMAP
0780
0F00
1D00
0000
BFD0
B540
B000
B000
B000
B000
B000
B000
B000
B000
ENDCHAR
STARTCHAR uni0454
ENCODING 1108
SWIDTH 472 0
DWIDTH 9 0
BBX 7 10 1 0
BITMAP
1B90
79B0
B038
E014
FF40
E500
E000
B038
79B4
1B90
ENDCHAR
STARTCHAR uni0455
ENCODING 1109
SWIDTH 455 0
DWIDTH 8 0
BBX 7 10 1 0
BITMAP
2F80
79E0
A070
B400
3E40
07E0
00B4
E074
B5B0
2F90
ENDCHAR
STARTCHAR uni0456
ENCODING 1110
SWIDTH 229 0
DWIDTH 4 0
BBX 2 14 1 0
BITMAP
60
A0
00
00
B0
B0
B0
B0
B0
B0
B0
B0
B0
B0
ENDCHAR
STARTCHAR uni0457
ENCODING 1111
SWIDTH 234 0
DWIDTH 4 0
BBX 6 13 -1 0
BITMAP
60A0
B0A0
0000
0B00
0B00
0B00
0B00
0B00
0B00
0B00
0B00
0B00
0B00
ENDCHAR
STARTCHAR uni0458
ENCODING 1112
SWIDTH 223 0
DWIDTH 4 0
BBX 3 18 0 -4
BITMAP
28
28
00
00
28
28
28
28
28
28
28
28
28
28
28
28
78
E0
ENDCHAR
STARTCHAR uni0459
ENCODING 1113
SWIDTH 729 0
DWIDTH 13 0
BBX 13 10 0 0
BITMAP
0BFE0000
0B5E0000
0A0E0000
0A0E0000
0E0FF900
0E0E5B00
0D0E0340
1D0E0340
7C0E5B00
B40FF900
ENDCHAR
STARTCHAR uni045A
ENCODING 1114
SWIDTH 743 0
DWIDTH 13 0
BBX 12 10 1 0
BITMAP
B02C00
B02C00
B02C00
B02C00
BFFFF4
B56D6D
B02C0E
B02C0E
B02D6D
B02FF4
ENDCHAR
STARTCHAR uni045B
ENCODING 1115
SWIDTH 499 0
DWIDTH 9 0
BBX 8 14 0 0
BITMAP
3800
3800
BFC0
7940
3AF4
3E6C
3C0D
380E
380E
380E
380E
380E
380E
380E
ENDCHAR
STARTCHAR uni045C
ENCODING 1116
SWIDTH 479 0
DWIDTH 9 0
BBX 7 14 1 0
BITMAP
01E0
0380
0600
0000
B038
B0B0
B1D0
B380
BF00
B780
B2C0
B0E0
B0B4
B03C
ENDCHAR
STARTCHAR uni045D
ENCODING 1117
SWIDTH 509 0
DWIDTH 9 0
BBX 7 14 1 0
BITMAP
2D00
0E00
0740
0000
B03C
B07C
B0FC
B1EC
B26C
B72C
BA2C
BC2C
B82C
B02C
ENDCHAR
STARTCHAR uni045E
ENCODING 1118
SWIDTH 416 0
DWIDTH 8 0
BBX 7 17 0 -4
BITMAP
2874
0BE0
0000
B02C
7438
3834
2C74
1CB0
0DA0
0ED0
0BC0
0780
0380
0340
0700
1E00
7800
ENDCHAR
STARTCHAR uni045F
ENCODING 1119
SWIDTH 509 0
DWIDTH 9 0
BBX 7 13 1 -3
BITMAP
B02C
B02C
B02C
B02C
B02C
B02C
B02C
B02C
B56C
BFFC
0740
0740
0740
ENDCHAR
STARTCHAR uni0460
ENCODING 1120
SWIDTH 754 0
DWIDTH 14 0
BBX 12 13 1 0
BITMAP
B0381D
B0381D
B0381D
B0381D
B0381D
B0381D
B0381D
B0381D
B0381D
B0381D
B07C1D
79FE78
1F87E0
ENDCHAR
STARTCHAR uni0461
ENCODING 1121
SWIDTH 650 0
DWIDTH 12 0
BBX 10 10 1 0
BITMAP
E0E0A0
E0E0A0
E0E0A0
E0E0A0
E0E0A0
E0E0A0
E0E0A0
E0E0E0
B6FAD0
2F5F40
ENDCHAR
STARTCHAR uni0462
ENCODING 1122
SWIDTH 551 0
DWIDTH 10 0
BBX 10 13 -1 0
BITMAP
0B0000
0B0000
7FE000
1B4000
0B0000
0BFF40
0B56D0
0B00B0
0B0070
0B0070
0B00B0
0B56D0
0BFF40
ENDCHAR
STARTCHAR uni0463
ENCODING 1123
SWIDTH 477 0
DWIDTH 9 0
BBX 8 14 0 0
BITMAP
2C00
2C00
2C00
FFD0
6D40
2C00
2C00
2FF4
2D6D
2C0E
2C0A
2C0E
2D6D
2FF4
ENDCHAR
STARTCHAR uni0464
ENCODING 1124
SWIDTH 772 0
DWIDTH 14 0
BBX 12 13 1 0
BITMAP
B01BE0
B079B8
B0F01D
B1D00E
B1C005
B2C000
BFFFC0
B6D540
B2C000
B1D00E
B0E01D
B079B8
B01BE0
ENDCHAR
STARTCHAR uni0465
ENCODING 1125
SWIDTH 646 0
DWIDTH 12 0
BBX 10 10 1 0
BITMAP
A06F40
A0E6D0
A2C0A0
A28050
BFFE00
B79500
A28010
A1C0A0
A0E6D0
A06F40
ENDCHAR
STARTCHAR uni0466
ENCODING 1126
SWIDTH 526 0
DWIDTH 9 0
BBX 10 13 0 0
BITMAP
00B000
00F400
01F400
02A800
03AC00
075D00
0B0E00
0E0B00
1FFF40
1EFB40
2CA380
38A2C0
74A1D0
ENDCHAR
STARTCHAR uni0467
ENCODING 1127
SWIDTH 470 0
DWIDTH 8 0
BBX 8 10 0 0
BITMAP
02C0
03D0
07E0
0BB0
0E74
1D38
2FFC
3AED
76CE
B2CB
ENDCHAR
STARTCHAR uni0468
ENCODING 1128
SWIDTH 759 0
DWIDTH 14 0
BBX 13 13 1 0
BITMAP
74038000
7407C000
7407D000
740AE000
740DB000
741D7400
742C3800
74383800
7FFFFC00
79B7AD00
74A38E00
74D38B00
75D38740
ENDCHAR
STARTCHAR uni0469
ENCODING 1129
SWIDTH 654 0
DWIDTH 12 0
BBX 11 10 1 0
BITMAP
701D00
702E00
703F00
707740
70B380
70E2C0
7FFFD0
76EEE0
739DB0
775D74
ENDCHAR
STARTCHAR uni046A
ENCODING 1130
SWIDTH 747 0
DWIDTH 13 0
BBX 12 13 1 0
BITMAP
1FFFF0
0F56E0
0B42C0
038380
02DB00
00EE00
1BFFE0
7979B8
B0382C
B0381D
B0381D
B0381D
B0381D
ENDCHAR
STARTCHAR uni046B
ENCODING 1131
SWIDTH 645 0
DWIDTH 12 0
BBX 10 10 1 0
BITMAP
1FFF40
0F5E00
075C00
03B800
1BFE00
79E780
B0E1C0
B0E1D0
A0E1D0
A0E1D0
ENDCHAR
STARTCHAR uni046C
ENCODING 1132
SWIDTH 980 0
DWIDTH 18 0
BBX 16 13 1 0
BITMAP
B01FFFF4
B00B55E0
B00741D0
B003C3C0
B001D740
B000EB00
BFFFFFE0
B57E7DBC
B074381D
B0B0381D
B0B0381D
B0B0381D
B0B0381D
ENDCHAR
STARTCHAR uni046D
ENCODING 1133
SWIDTH 856 0
DWIDTH 15 0
BBX 13 10 1 0
BITMAP
B02FFF00
B00E6D00
B00B2C00
B003B400
BFFFFE00
B5B9EB80
B0B0D2C0
B0E0D1C0
B0E0D1C0
B0E0D1C0
ENDCHAR
STARTCHAR uni046E
ENCODING 1134
SWIDTH 454 0
DWIDTH 8 0
BBX 7 21 0 -4
BITMAP
0D34
07A0
02C0
0000
3F90
15B4
0038
0028
0038
0074
0FD0
05B4
0028
002C
0028
05B4
2F90
7400
7400
3800
1800
ENDCHAR
STARTCHAR uni046F
ENCODING 1135
SWIDTH 423 0
DWIDTH 8 0
BBX 7 18 0 -4
BITMAP
1CA0
0AC0
0740
0000
3F90
15B4
0038
0074
0FE0
05B4
0038
0038
05B4
2FD0
7400
7400
3800
0800
ENDCHAR
STARTCHAR uni0470
ENCODING 1136
SWIDTH 600 0
DWIDTH 11 0
BBX 10 13 0 0
BITMAP
74B0B0
74B0B0
74B0B0
74B0B0
74B0B0
34B0A0
38B0E0
1EB6C0
0BFF40
01B400
00B000
00B000
00B000
ENDCHAR
STARTCHAR uni0471
ENCODING 1137
SWIDTH 612 0
DWIDTH 11 0
BBX 11 14 0 -4
BITMAP
7474E0
7474B0
7474B0
747474
747474
347474
3874B0
2C75E0
0FBBD0
02FE00
007400
007400
007400
007400
ENDCHAR
STARTCHAR uni0472
ENCODING 1138
SWIDTH 593 0
DWIDTH 11 0
BBX 9 13 1 0
BITMAP
0BE400
2E6D00
740B00
B00740
E00380
E00380
FFFF80
E55780
E00380
B00740
740B00
2E6D00
0BE400
ENDCHAR
STARTCHAR uni0473
ENCODING 1139
SWIDTH 497 0
DWIDTH 9 0
BBX 7 10 1 0
BITMAP
1B90
79B4
B038
E02C
FFFC
E56C
E02C
B038
79B4
1B90
ENDCHAR
STARTCHAR uni0474
ENCODING 1140
SWIDTH 553 0
DWIDTH 10 0
BBX 10 13 0 0
BITMAP
B401D0
7402D0
380340
2C0700
1D0B00
0D0E00
0A0D00
0B1C00
076800
03B400
02F400
01F000
00E000
ENDCHAR
STARTCHAR uni0475
ENCODING 1141
SWIDTH 443 0
DWIDTH 8 0
BBX 8 10 0 0
BITMAP
740A
342D
2838
2C34
1C70
0DA0
0A90
07D0
03C0
0280
ENDCHAR
STARTCHAR uni0476
ENCODING 1142
SWIDTH 553 0
DWIDTH 10 0
BBX 10 16 0 0
BITMAP
2DE000
077400
000000
B401D0
7402D0
380340
2C0700
1D0B00
0D0E00
0A0D00
0B1C00
076800
03B400
02F400
01F000
00E000
ENDCHAR
STARTCHAR uni0477
ENCODING 1143
SWIDTH 443 0
DWIDTH 8 0
BBX 8 13 0 0
BITMAP
7680
1DD0
0000
740A
342D
2838
2C34
1C70
0DA0
0A90
07D0
03C0
0280
ENDCHAR
STARTCHAR uni0478
ENCODING 1144
SWIDTH 1017 0
DWIDTH 18 0
BBX 17 17 1 -4
BITMAP
0BF4000000
2EAE000000
740B400000
B0034B0280
E003874380
E003874740
E003838B00
E00382CA00
E00381DD00
B00340ED00
740B40BC00
2E6E007800
0BF4007400
0000007000
000000A000
000006D000
0000078000
ENDCHAR
STARTCHAR uni0479
ENCODING 1145
SWIDTH 918 0
DWIDTH 17 0
BBX 15 14 1 -4
BITMAP
1FD0B02C
79B47428
B0283834
E01C2C74
D01D1CB0
D01C0DA0
E01C0ED0
A02C0BC0
79B407C0
1FD00380
00000340
00000700
00001E00
00003800
ENDCHAR
STARTCHAR uni047A
ENCODING 1146
SWIDTH 593 0
DWIDTH 11 0
BBX 9 15 1 -1
BITMAP
01C000
0BF400
2EFD00
744B00
B00740
E00340
E00380
E00380
E00380
E00340
B00740
744B00
2EED00
0BF400
01C000
ENDCHAR
STARTCHAR uni047B
ENCODING 1147
SWIDTH 498 0
DWIDTH 9 0
BBX 7 12 1 -1
BITMAP
0740
1FD0
7BB4
B138
E02C
D01C
D01C
E02C
B138
7BB4
1FD0
0740
ENDCHAR
STARTCHAR uni047C
ENCODING 1148
SWIDTH 752 0
DWIDTH 14 0
BBX 12 16 1 0
BITMAP
01F900
0286C0
002800
1D28A0
382078
B0002C
B0001D
B0001D
B0141D
B0381D
B0381D
B0381D
B0381D
B07C2C
39FE78
1F87E0
ENDCHAR
STARTCHAR uni047D
ENCODING 1149
SWIDTH 654 0
DWIDTH 12 0
BBX 10 14 1 0
BITMAP
02F500
071B40
007000
007000
285240
7402D0
A000E0
E000A0
E050A0
E0E0A0
E0E0A0
A0E0E0
76FAD0
2F5F40
ENDCHAR
STARTCHAR uni047E
ENCODING 1150
SWIDTH 754 0
DWIDTH 14 0
BBX 12 16 1 0
BITMAP
07FFC0
003800
000000
B0381D
B0381D
B0381D
B0381D
B0381D
B0381D
B0381D
B0381D
B0381D
B0381D
B07C1D
79FE78
1F87E0
ENDCHAR
STARTCHAR uni047F
ENCODING 1151
SWIDTH 650 0
DWIDTH 12 0
BBX 10 13 1 0
BITMAP
0FFF00
00A000
000000
E0E0A0
E0E0A0
E0E0A0
E0E0A0
E0E0A0
E0E0A0
E0E0A0
E0E0E0
B6FAD0
2F5F40
ENDCHAR
STARTCHAR uni0480
ENCODING 1152
SWIDTH 570 0
DWIDTH 10 0
BBX 8 16 1 -3
BITMAP
0BE4
2E6D
740F
B00B
E001
E000
E000
E000
E000
B000
7400
2D40
0BC0
02C0
02C0
02C0
ENDCHAR
STARTCHAR uni0481
ENCODING 1153
SWIDTH 472 0
DWIDTH 9 0
BBX 7 13 1 -3
BITMAP
1B80
79B0
B034
E014
D000
D000
E000
B000
7900
1F40
0740
0740
0740
ENDCHAR
STARTCHAR uni0482
ENCODING 1154
SWIDTH 547 0
DWIDTH 10 0
BBX 8 12 1 0
BITMAP
001C
0428
0B74
02F0
00F8
018A
9340
7F00
0F40
1DE0
3410
7000
ENDCHAR
STARTCHAR uni0483
ENCODING 1155
SWIDTH 0 0
DWIDTH 0 0
BBX 6 3 -7 11
BITMAP
00A0
BFE0
A000
ENDCHAR
STARTCHAR uni0484
ENCODING 1156
SWIDTH 0 0
DWIDTH 0 0
BBX 6 2 -7 11
BITMAP
1BE0
B930
ENDCHAR
STARTCHAR uni0485
ENCODING 1157
SWIDTH 0 0
DWIDTH 0 0
BBX 2 3 -5 11
BITMAP
A0
A0
20
ENDCHAR
STARTCHAR uni0486
ENCODING 1158
SWIDTH 0 0
DWIDTH 0 0
BBX 2 3 -4 11
BITMAP
E0
D0
80
ENDCHAR
STARTCHAR uni0488
ENCODING 1160
SWIDTH 0 0
DWIDTH 0 0
BBX 17 16 -13 -3
BITMAP
0002D00000
0009600000
0000000000
0F4000B800
2580018800
0000000000
0000000000
B800001F40
8900002580
0000000000
0000000000
0000000000
1F4000B400
2580018C00
0002D00000
0006300000
ENDCHAR
STARTCHAR uni0489
ENCODING 1161
SWIDTH 0 0
DWIDTH 0 0
BBX 16 17 -13 -4
BITMAP
0000C000
00018000
05028000
07000064
024002D0
01000000
00000000
E4000028
1800001A
00000000
00000000
00000040
078001C0
090000D0
0001C050
00024000
00020000
ENDCHAR
STARTCHAR uni048A
ENCODING 1162
SWIDTH 666 0
DWIDTH 12 0
BBX 11 20 1 -4
BITMAP
070E00
02F800
000000
B00780
B00B80
B00F80
B02B80
B03380
B0A380
B0D380
B28380
B34380
BA0380
BD0380
B80380
B403F4
000074
000070
0000A0
000090
ENDCHAR
STARTCHAR uni048B
ENCODING 1163
SWIDTH 550 0
DWIDTH 10 0
BBX 9 17 1 -4
BITMAP
1C3800
0BE000
000000
B03C00
B07C00
B0FC00
B1EC00
B26C00
B72C00
BA2C00
BC2C00
B82C00
B02F40
000340
000740
000B00
000900
ENDCHAR
STARTCHAR uni048C
ENCODING 1164
SWIDTH 551 0
DWIDTH 10 0
BBX 10 13 -1 0
BITMAP
0B0000
0B0000
7FE000
1B4000
0B0000
0BFF40
0B56D0
0B00B0
0B0070
0B0070
0B00B0
0B56D0
0BFF40
ENDCHAR
STARTCHAR uni048D
ENCODING 1165
SWIDTH 477 0
DWIDTH 9 0
BBX 8 15 0 0
BITMAP
2800
2C00
FFD0
6D40
2C00
2C00
2C00
2C00
2FF4
2D6D
2C0E
2C0A
2C0E
2D6D
2FF4
ENDCHAR
STARTCHAR uni048E
ENCODING 1166
SWIDTH 557 0
DWIDTH 10 0
BBX 9 13 1 0
BITMAP
BFF400
B56E00
B00B00
B00740
B01740
B03F00
B02E00
BFFF00
B55340
B00000
B00000
B00000
B00000
ENDCHAR
STARTCHAR uni048F
ENCODING 1167
SWIDTH 496 0
DWIDTH 9 0
BBX 7 14 1 -4
BITMAP
ABD0
B9B4
A038
A02C
A02C
A02C
A06C
A0F8
B9F4
ABEC
A004
A000
A000
A000
ENDCHAR
STARTCHAR uni0490
ENCODING 1168
SWIDTH 479 0
DWIDTH 9 0
BBX 7 16 1 0
BITMAP
002C
002C
002C
BFFC
B554
B000
B000
B000
B000
B000
B000
B000
B000
B000
B000
B000
ENDCHAR
STARTCHAR uni0491
ENCODING 1169
SWIDTH 395 0
DWIDTH 7 0
BBX 6 13 1 0
BITMAP
0090
01D0
01D0
BFD0
B540
A000
A000
A000
A000
A000
A000
A000
A000
ENDCHAR
STARTCHAR uni0492
ENCODING 1170
SWIDTH 487 0
DWIDTH 9 0
BBX 8 13 0 0
BITMAP
2FFF
2D55
2C00
2C00
2C00
2C00
FFC0
6D40
2C00
2C00
2C00
2C00
2C00
ENDCHAR
STARTCHAR uni0493
ENCODING 1171
SWIDTH 371 0
DWIDTH 7 0
BBX 7 10 0 0
BITMAP
2FF4
2D50
2C00
2C00
FFC0
6D40
2C00
2C00
2C00
2C00
ENDCHAR
STARTCHAR uni0494
ENCODING 1172
SWIDTH 539 0
DWIDTH 10 0
BBX 8 16 1 -3
BITMAP
BFFC
B554
B000
B000
B000
B000
BFD0
B5B8
B01D
B00E
B00E
B00A
B00E
000D
006C
00A4
ENDCHAR
STARTCHAR uni0495
ENCODING 1173
SWIDTH 443 0
DWIDTH 8 0
BBX 7 12 1 -2
BITMAP
BFD0
B540
A000
A000
BF40
B6E0
A0B0
A074
A074
A0B0
02E0
0280
ENDCHAR
STARTCHAR uni0496
ENCODING 1174
SWIDTH 833 0
DWIDTH 15 0
BBX 15 17 0 -4
BITMAP
380B01D0
2D0B03C0
0E0B0740
0B0B0B00
038B1D00
02CB2C00
01FFF800
02DB6C00
078B1E00
0B0B0B00
1E0B0780
2C0B02D0
780B01F8
00000038
00000038
00000038
00000038
ENDCHAR
STARTCHAR uni0497
ENCODING 1175
SWIDTH 696 0
DWIDTH 13 0
BBX 12 14 0 -4
BITMAP
78282C
2C2878
0E28B0
0B29D0
03FFC0
07BED0
0E28E0
1D2874
3C2838
74282F
00000B
00000B
00000B
00000B
ENDCHAR
STARTCHAR uni0498
ENCODING 1176
SWIDTH 517 0
DWIDTH 9 0
BBX 8 18 1 -5
BITMAP
1BE0
79B8
E02C
901D
001D
0078
0BF0
05B8
001D
900E
E01D
B9BC
1BE0
0340
0340
0340
0340
0340
ENDCHAR
STARTCHAR uni0499
ENCODING 1177
SWIDTH 446 0
DWIDTH 8 0
BBX 6 15 1 -5
BITMAP
2F80
B5E0
D0B0
00A0
1FD0
05E0
0070
D0B0
B5E0
2F80
0A00
0A00
0A00
0A00
0A00
ENDCHAR
STARTCHAR uni049A
ENCODING 1178
SWIDTH 617 0
DWIDTH 11 0
BBX 10 17 1 -4
BITMAP
B00B40
B01E00
B03C00
B0B400
B1E000
B7C000
BF8000
B1D000
B0B000
B07800
B02D00
B00F00
B007D0
0001D0
0001D0
0001D0
0001D0
ENDCHAR
STARTCHAR uni049B
ENCODING 1179
SWIDTH 524 0
DWIDTH 9 0
BBX 8 14 1 -4
BITMAP
B038
B0B0
B1D0
B380
BF00
B780
B2C0
B0E0
B0B4
B03F
000B
000B
000B
000B
ENDCHAR
STARTCHAR uni049C
ENCODING 1180
SWIDTH 553 0
DWIDTH 10 0
BBX 9 13 1 0
BITMAP
B00B40
B00E00
B01D00
B12C00
B63400
B67000
BFE000
BBB000
B67800
B52C00
B01E00
B00F00
B00740
ENDCHAR
STARTCHAR uni049D
ENCODING 1181
SWIDTH 498 0
DWIDTH 9 0
BBX 8 10 1 0
BITMAP
B01D
B038
B674
BAA0
BFD0
BBE0
BAB0
B038
B02C
B01E
ENDCHAR
STARTCHAR uni049E
ENCODING 1182
SWIDTH 570 0
DWIDTH 10 0
BBX 10 13 0 0
BITMAP
1D01E0
1D03C0
FFCB40
6D5E00
1D3C00
1D7400
1FF000
1EB400
1D2C00
1D1E00
1D0740
1D02C0
1D01E0
ENDCHAR
STARTCHAR uni049F
ENCODING 1183
SWIDTH 462 0
DWIDTH 8 0
BBX 9 14 -1 0
BITMAP
0B0000
7FD000
1B4000
0B0000
0B0740
0B0B00
0B1D00
0B3800
0BF400
0B7800
0B1D00
0B0E00
0B0740
0B03C0
ENDCHAR
STARTCHAR uni04A0
ENCODING 1184
SWIDTH 710 0
DWIDTH 13 0
BBX 13 13 0 0
BITMAP
7FE00F00
15E02D00
00E07800
00E0B000
00E1E000
00E3C000
00FF4000
00F7C000
00E1E000
00E0B400
00E03C00
00E01E00
00E00B40
ENDCHAR
STARTCHAR uni04A1
ENCODING 1185
SWIDTH 607 0
DWIDTH 11 0
BBX 11 10 0 0
BITMAP
7FD0B4
16D1D0
01D380
01DB00
01FE00
01EB00
01D780
01D2D0
01D0E0
01D074
ENDCHAR
STARTCHAR uni04A2
ENCODING 1186
SWIDTH 662 0
DWIDTH 12 0
BBX 10 17 1 -4
BITMAP
B00380
B00380
B00380
B00380
B00380
B00380
BFFF80
B55780
B00380
B00380
B00380
B00380
B003F0
000070
000070
000070
000070
ENDCHAR
STARTCHAR uni04A3
ENCODING 1187
SWIDTH 541 0
DWIDTH 10 0
BBX 9 14 1 -4
BITMAP
B02C00
B02C00
B02C00
B02C00
BFFC00
B56C00
B02C00
B02C00
B02C00
B02F40
000740
000740
000740
000740
ENDCHAR
STARTCHAR uni04A4
ENCODING 1188
SWIDTH 829 0
DWIDTH 15 0
BBX 14 13 1 0
BITMAP
B003FFD0
B003D540
B0038000
B0038000
B0038000
B0038000
BFFF8000
B5578000
B0038000
B0038000
B0038000
B0038000
B0038000
ENDCHAR
STARTCHAR uni04A5
ENCODING 1189
SWIDTH 614 0
DWIDTH 11 0
BBX 10 10 1 0
BITMAP
A02FD0
A02D40
A02800
A02800
BFF800
B57800
A02800
A02800
A02800
A02800
ENDCHAR
STARTCHAR uni04A6
ENCODING 1190
SWIDTH 880 0
DWIDTH 16 0
BBX 14 16 1 -3
BITMAP
BFFF8000
B5578000
B0038000
B0038000
B0038000
B0038000
B003FE00
B0039B80
B00381D0
B00380E0
B00380B0
B00380B0
B00380A0
000000E0
000006C0
00000A40
ENDCHAR
STARTCHAR uni04A7
ENCODING 1191
SWIDTH 755 0
DWIDTH 14 0
BBX 12 12 1 -2
BITMAP
BFF800
B57800
A02800
A02800
A02FE4
A02DBC
A0280E
A0280B
A0280B
A0280E
00002D
000034
ENDCHAR
STARTCHAR uni04A8
ENCODING 1192
SWIDTH 641 0
DWIDTH 12 0
BBX 10 13 1 0
BITMAP
192E40
3DBBC0
70E1D0
B1D0E0
E1D0E0
E1D0E0
E1D0E0
E1D0E0
E0E0E0
B0B6D0
787F80
1E7F90
06E5A0
ENDCHAR
STARTCHAR uni04A9
ENCODING 1193
SWIDTH 528 0
DWIDTH 10 0
BBX 8 10 1 0
BITMAP
28B4
76EC
A34D
E34E
E34E
E38E
A3DD
B1FC
39FD
0B9B
ENDCHAR
STARTCHAR uni04AA
ENCODING 1194
SWIDTH 566 0
DWIDTH 10 0
BBX 9 18 1 -5
BITMAP
0BF400
2E6E00
740B00
B00740
E00100
E00000
E00000
E00000
E00100
B00740
740B00
2E6E00
0BF400
02C000
02C000
02C000
02C000
02C000
ENDCHAR
STARTCHAR uni04AB
ENCODING 1195
SWIDTH 461 0
DWIDTH 8 0
BBX 7 15 1 -5
BITMAP
1F90
79B0
E038
D014
D000
D000
D010
E038
79B0
1F90
0B00
0B00
0B00
0B00
0B00
ENDCHAR
STARTCHAR uni04AC
ENCODING 1196
SWIDTH 520 0
DWIDTH 9 0
BBX 9 17 0 -4
BITMAP
7FFFC0
55E540
00E000
00E000
00E000
00E000
00E000
00E000
00E000
00E000
00E000
00E000
00F800
002800
002800
002800
002800
ENDCHAR
STARTCHAR uni04AD
ENCODING 1197
SWIDTH 424 0
DWIDTH 8 0
BBX 8 14 0 -4
BITMAP
BFFD
1794
0380
0380
0380
0380
0380
0380
0380
03F0
00B0
00B0
00B0
00B0
ENDCHAR
STARTCHAR uni04AE
ENCODING 1198
SWIDTH 524 0
DWIDTH 9 0
BBX 9 13 0 0
BITMAP
B403C0
380740
2C0B00
1D0E00
0B1C00
077800
03F400
01E000
00E000
00E000
00E000
00E000
00E000
ENDCHAR
STARTCHAR uni04AF
ENCODING 1199
SWIDTH 444 0
DWIDTH 8 0
BBX 8 14 0 -4
BITMAP
740D
381C
282C
1C38
1D74
0E70
0BA0
07D0
03C0
02C0
0280
0280
0280
0280
ENDCHAR
STARTCHAR uni04B0
ENCODING 1200
SWIDTH 524 0
DWIDTH 9 0
BBX 9 13 0 0
BITMAP
B403C0
380740
2C0B00
1D0E00
0B1C00
077800
02F400
0BFC00
05E400
00E000
00E000
00E000
00E000
ENDCHAR
STARTCHAR uni04B1
ENCODING 1201
SWIDTH 444 0
DWIDTH 8 0
BBX 8 14 0 -4
BITMAP
740D
381C
2828
1C38
0D74
0EB0
0BA0
07D0
07D0
1FF4
0280
0280
0280
0280
ENDCHAR
STARTCHAR uni04B2
ENCODING 1202
SWIDTH 559 0
DWIDTH 10 0
BBX 9 17 1 -4
BITMAP
E00F00
B41D00
382C00
2D7400
0EB000
07D000
03C000
0BD000
0EB000
2C7800
382C00
B41E00
E00B80
000380
000380
000380
000380
ENDCHAR
STARTCHAR uni04B3
ENCODING 1203
SWIDTH 465 0
DWIDTH 8 0
BBX 8 14 0 -4
BITMAP
782C
2C38
1DB0
0BE0
03C0
07C0
0AE0
1DB0
2C38
742F
000B
000B
000B
000B
ENDCHAR
STARTCHAR uni04B4
ENCODING 1204
SWIDTH 781 0
DWIDTH 14 0
BBX 13 16 0 -3
BITMAP
7FFE0E00
16D50E00
02C00E00
02C00E00
02C00E00
02C00E00
02C00E00
02C00E00
02C00E00
02C00E00
02C00E00
02D55E40
02FFFF80
00000380
00000380
00000380
ENDCHAR
STARTCHAR uni04B5
ENCODING 1205
SWIDTH 587 0
DWIDTH 11 0
BBX 10 13 0 -3
BITMAP
BFE2C0
5B52C0
0B02C0
0B02C0
0B02C0
0B02C0
0B02C0
0B02C0
0B56D0
0BFFF0
0000A0
0000A0
0000A0
ENDCHAR
STARTCHAR uni04B6
ENCODING 1206
SWIDTH 638 0
DWIDTH 12 0
BBX 10 17 1 -4
BITMAP
B00740
B00740
B00740
B00740
B00740
B00740
781B40
2FFF40
015740
000740
000740
000740
0007E0
0000E0
0000E0
0000E0
0000E0
ENDCHAR
STARTCHAR uni04B7
ENCODING 1207
SWIDTH 512 0
DWIDTH 9 0
BBX 8 14 1 -4
BITMAP
D074
D074
D074
E074
B074
7FF4
0574
0074
0074
007E
000E
000E
000E
000E
ENDCHAR
STARTCHAR uni04B8
ENCODING 1208
SWIDTH 595 0
DWIDTH 11 0
BBX 9 13 1 0
BITMAP
B00740
B00740
B00740
B00740
B08740
B0C740
74DB40
2FFF40
05D740
00C740
008740
000740
000740
ENDCHAR
STARTCHAR uni04B9
ENCODING 1209
SWIDTH 483 0
DWIDTH 9 0
BBX 7 10 1 0
BITMAP
E038
E038
E138
E738
B738
3FF8
0778
0238
0038
0038
ENDCHAR
STARTCHAR uni04BA
ENCODING 1210
SWIDTH 595 0
DWIDTH 11 0
BBX 9 13 1 0
BITMAP
E00000
E00000
E00000
E00000
E00000
FBF800
F96E00
E00B00
E00700
E00740
E00740
E00740
E00740
ENDCHAR
STARTCHAR uni04BB
ENCODING 1211
SWIDTH 482 0
DWIDTH 9 0
BBX 7 14 1 0
BITMAP
E000
E000
E000
E000
EBD0
F9B0
F034
E038
E038
E038
E038
E038
E038
E038
ENDCHAR
STARTCHAR uni04BC
ENCODING 1212
SWIDTH 674 0
DWIDTH 12 0
BBX 11 13 0 0
BITMAP
001F80
00B9F0
01D038
02C02C
72C02C
3B801C
1FFFFC
039554
038000
02C000
01D000
00B9A4
001FE0
ENDCHAR
STARTCHAR uni04BD
ENCODING 1213
SWIDTH 518 0
DWIDTH 9 0
BBX 9 10 0 0
BITMAP
01F800
079E00
CE0740
ED0340
7FFF80
1E5540
1D0000
0E0100
079B40
01F900
ENDCHAR
STARTCHAR uni04BE
ENCODING 1214
SWIDTH 674 0
DWIDTH 12 0
BBX 11 18 0 -5
BITMAP
001F80
00B9F0
01D038
02C02C
72C02C
3B801C
1FFFFC
039554
038000
02C000
01D000
00B9A4
001FE0
000740
000740
000740
000740
000740
ENDCHAR
STARTCHAR uni04BF
ENCODING 1215
SWIDTH 518 0
DWIDTH 9 0
BBX 9 15 0 -5
BITMAP
01F800
079E00
CE0740
ED0340
7FFF80
1E5540
1D0000
0E0100
079B40
01F900
007400
007400
007400
007400
007400
ENDCHAR
STARTCHAR uni04C0
ENCODING 1216
SWIDTH 250 0
DWIDTH 5 0
BBX 2 13 1 0
BITMAP
B0
B0
B0
B0
B0
B0
B0
B0
B0
B0
B0
B0
B0
ENDCHAR
STARTCHAR uni04C1
ENCODING 1217
SWIDTH 791 0
DWIDTH 14 0
BBX 14 16 0 0
BITMAP
0074A000
002F8000
00000000
380B01D0
2D0B03C0
0E0B0740
0B0B0B00
038B1D00
02CB2C00
01FFF800
02DB6C00
078B1E00
0B0B0B00
1E0B0780
2C0B02D0
780B01E0
ENDCHAR
STARTCHAR uni04C2
ENCODING 1218
SWIDTH 662 0
DWIDTH 12 0
BBX 12 13 0 0
BITMAP
02C340
00BE00
000000
78282C
2C2878
0E28B0
0B29D0
03FFC0
07BED0
0E28E0
1D2874
3C2838
74282D
ENDCHAR
STARTCHAR uni04C3
ENCODING 1219
SWIDTH 553 0
DWIDTH 10 0
BBX 9 16 1 -3
BITMAP
B00B00
B01D00
B03800
B0B400
B1E000
B3C000
BFE400
BABD00
B00E00
B00B00
B00740
B00740
B00740
000B00
002D00
007400
ENDCHAR
STARTCHAR uni04C4
ENCODING 1220
SWIDTH 481 0
DWIDTH 9 0
BBX 7 12 1 -2
BITMAP
B038
B0B0
B2D0
B740
BF90
B6F4
B038
B02C
B02C
B038
00B4
0090
ENDCHAR
STARTCHAR uni04C5
ENCODING 1221
SWIDTH 662 0
DWIDTH 12 0
BBX 12 17 0 -4
BITMAP
03FFE0
0795E0
0740E0
0740E0
0740E0
0740E0
0740E0
0740E0
0700E0
0B00E0
0E00E0
6D00E0
7800FD
00001D
00001C
000028
000024
ENDCHAR
STARTCHAR uni04C6
ENCODING 1222
SWIDTH 551 0
DWIDTH 10 0
BBX 10 14 0 -4
BITMAP
0BFF00
0B5B00
0A0B00
0A0B00
0E0B00
0E0B00
0E0B00
1D0B00
6C0B00
B40BD0
0000E0
0001D0
0002C0
000240
ENDCHAR
STARTCHAR uni04C7
ENCODING 1223
SWIDTH 620 0
DWIDTH 11 0
BBX 9 17 1 -4
BITMAP
B00380
B00380
B00380
B00380
B00380
BFFF80
B55780
B00380
B00380
B00380
B00380
B00380
B00380
000380
000380
001B40
002E00
ENDCHAR
STARTCHAR uni04C8
ENCODING 1224
SWIDTH 498 0
DWIDTH 9 0
BBX 7 14 1 -4
BITMAP
A028
A028
A028
A028
BFF8
B578
A028
A028
A028
A028
0028
0038
0174
01E0
ENDCHAR
STARTCHAR uni04C9
ENCODING 1225
SWIDTH 671 0
DWIDTH 12 0
BBX 11 17 1 -4
BITMAP
B00380
B00380
B00380
B00380
B00380
B00380
BFFF80
B55780
B00380
B00380
B00380
B00380
B003F4
000074
000074
0000B0
000090
ENDCHAR
STARTCHAR uni04CA
ENCODING 1226
SWIDTH 550 0
DWIDTH 10 0
BBX 9 14 1 -4
BITMAP
B02C00
B02C00
B02C00
B02C00
BFFC00
B56C00
B02C00
B02C00
B02C00
B02F40
000340
000740
000B00
000900
ENDCHAR
STARTCHAR uni04CB
ENCODING 1227
SWIDTH 600 0
DWIDTH 11 0
BBX 9 17 1 -4
BITMAP
B00740
B00740
B00740
B00740
B00740
B00740
781B40
2FFF40
015740
000740
000740
000740
002F40
002C00
002C00
002C00
002C00
ENDCHAR
STARTCHAR uni04CC
ENCODING 1228
SWIDTH 479 0
DWIDTH 9 0
BBX 7 14 1 -4
BITMAP
D074
D074
D074
E074
B074
7FF4
0574
0074
0074
02F4
02C0
02C0
02C0
02C0
ENDCHAR
STARTCHAR uni04CD
ENCODING 1229
SWIDTH 801 0
DWIDTH 14 0
BBX 13 17 1 -4
BITMAP
B8003D00
BC007D00
BD00BD00
BE00ED00
BB01ED00
B742DD00
B3839D00
B2875D00
B1CB1D00
B0DE1D00
B0BD1D00
B07C1D00
B0381F80
00000380
00000380
00000740
00000600
ENDCHAR
STARTCHAR uni04CE
ENCODING 1230
SWIDTH 687 0
DWIDTH 12 0
BBX 11 14 1 -4
BITMAP
B402D0
B803D0
BC07D0
BD0BD0
BA0ED0
B71DD0
B369D0
B2B5D0
B1F1D0
B0E1FC
00002C
000028
000034
000060
ENDCHAR
STARTCHAR uni04CF
ENCODING 1231
SWIDTH 250 0
DWIDTH 5 0
BBX 2 13 1 0
BITMAP
B0
B0
B0
B0
B0
B0
B0
B0
B0
B0
B0
B0
B0
ENDCHAR
STARTCHAR uni04D0
ENCODING 1232
SWIDTH 576 0
DWIDTH 10 0
BBX 10 16 0 0
BITMAP
074A00
01F800
000000
00B000
00F400
01F800
029C00
038D00
074A00
0B0B00
0E0740
1FFF80
2D56C0
3801D0
3400E0
7400B0
ENDCHAR
STARTCHAR uni04D1
ENCODING 1233
SWIDTH 479 0
DWIDTH 9 0
BBX 7 13 1 0
BITMAP
3470
1F90
0000
1F90
79B0
A074
0074
1BF4
7974
E074
E074
BAF4
2F78
ENDCHAR
STARTCHAR uni04D2
ENCODING 1234
SWIDTH 576 0
DWIDTH 10 0
BBX 10 16 0 0
BITMAP
060600
070B00
000000
00B000
00F400
01F800
029C00
038D00
074A00
0B0B00
0E0740
1FFF80
2D56C0
3801D0
3400E0
7400B0
ENDCHAR
STARTCHAR uni04D3
ENCODING 1235
SWIDTH 479 0
DWIDTH 9 0
BBX 7 13 1 0
BITMAP
2460
7474
0000
1F90
79B0
A074
0074
1BF4
7974
E074
E074
BAF4
2F78
ENDCHAR
STARTCHAR uni04D4
ENCODING 1236
SWIDTH 812 0
DWIDTH 15 0
BBX 15 13 0 0
BITMAP
000BFFE0
001F9550
002B8000
00778000
00A28000
01D28000
0282FFC0
0742D540
0BFFC000
1EAAC000
2C02C000
7802D550
B002FFF4
ENDCHAR
STARTCHAR uni04D5
ENCODING 1237
SWIDTH 728 0
DWIDTH 13 0
BBX 13 10 0 0
BITMAP
0BE1F800
2E7F9E00
382E0740
001D0340
0BFFFF40
2D6D5500
741D0000
741E0000
3DBB9B00
1F91FD00
ENDCHAR
STARTCHAR uni04D6
ENCODING 1238
SWIDTH 496 0
DWIDTH 9 0
BBX 8 16 1 0
BITMAP
2874
0BD0
0000
BFFD
B554
B000
B000
B000
B000
BFF8
B554
B000
B000
B000
B554
BFFD
ENDCHAR
STARTCHAR uni04D7
ENCODING 1239
SWIDTH 468 0
DWIDTH 8 0
BBX 7 13 1 0
BITMAP
34B0
1F90
0000
1F90
79B0
A038
D038
FFF8
E554
E000
E000
7974
1FE0
ENDCHAR
STARTCHAR uni04D8
ENCODING 1240
SWIDTH 597 0
DWIDTH 11 0
BBX 10 13 0 0
BITMAP
0BF900
0E6F40
0003C0
0001D0
0000E0
0000E0
7FFFE0
7955E0
3400E0
3801D0
2C03C0
0F9B40
02F900
ENDCHAR
STARTCHAR uni04D9
ENCODING 1241
SWIDTH 465 0
DWIDTH 8 0
BBX 7 10 1 0
BITMAP
2F80
A5E0
0074
0034
0038
FFF8
E574
E074
79E0
2F80
ENDCHAR
STARTCHAR uni04DA
ENCODING 1242
SWIDTH 597 0
DWIDTH 11 0
BBX 10 16 0 0
BITMAP
0A0900
0E0D00
000000
0BF900
0E6F40
0003C0
0001D0
0000E0
0000E0
7FFFE0
7955E0
3400E0
3801D0
2C03C0
0F9B40
02F900
ENDCHAR
STARTCHAR uni04DB
ENCODING 1243
SWIDTH 465 0
DWIDTH 8 0
BBX 7 13 1 0
BITMAP
6060
74B0
0000
2F80
A5E0
0074
0034
0038
FFF8
E574
E074
79E0
2F80
ENDCHAR
STARTCHAR uni04DC
ENCODING 1244
SWIDTH 791 0
DWIDTH 14 0
BBX 14 16 0 0
BITMAP
0060A000
0070A000
00000000
380B01D0
2D0B03C0
0E0B0740
0B0B0B00
038B1D00
02CB2C00
01FFF800
02DB6C00
078B1E00
0B0B0B00
1E0B0780
2C0B02D0
780B01E0
ENDCHAR
STARTCHAR uni04DD
ENCODING 1245
SWIDTH 662 0
DWIDTH 12 0
BBX 12 13 0 0
BITMAP
028240
028380
000000
78282C
2C2878
0E28B0
0B29D0
03FFC0
07BED0
0E28E0
1D2874
3C2838
74282D
ENDCHAR
STARTCHAR uni04DE
ENCODING 1246
SWIDTH 517 0
DWIDTH 9 0
BBX 8 16 1 0
BITMAP
2464
3874
0000
1BE0
79B8
E02C
901D
001D
0078
0BF0
05B8
001D
900E
E01D
B9BC
1BE0
ENDCHAR
STARTCHAR uni04DF
ENCODING 1247
SWIDTH 446 0
DWIDTH 8 0
BBX 6 13 1 0
BITMAP
60A0
B0A0
0000
2F80
B5E0
D0B0
00A0
1FD0
05E0
0070
D0B0
B5E0
2F80
ENDCHAR
STARTCHAR uni04E0
ENCODING 1248
SWIDTH 510 0
DWIDTH 9 0
BBX 7 13 1 0
BITMAP
BFF8
55B4
00E0
02C0
0B00
0F90
05B4
002C
002C
902C
E02C
79B4
1FD0
ENDCHAR
STARTCHAR uni04E1
ENCODING 1249
SWIDTH 510 0
DWIDTH 9 0
BBX 7 13 1 -3
BITMAP
BFF8
55B4
00E0
02C0
0B40
0F90
05B4
002C
002C
901C
E02C
79B4
1FD0
ENDCHAR
STARTCHAR uni04E2
ENCODING 1250
SWIDTH 619 0
DWIDTH 11 0
BBX 9 17 1 0
BITMAP
055400
0FFD00
000000
000000
B00780
B00B80
B00F80
B02B80
B03380
B0A380
B0D380
B28380
B34380
BA0380
BD0380
B80380
B40380
ENDCHAR
STARTCHAR uni04E3
ENCODING 1251
SWIDTH 509 0
DWIDTH 9 0
BBX 7 14 1 0
BITMAP
1550
3FF4
0000
0000
B03C
B07C
B0FC
B1EC
B26C
B72C
BA2C
BC2C
B82C
B02C
ENDCHAR
STARTCHAR uni04E4
ENCODING 1252
SWIDTH 619 0
DWIDTH 11 0
BBX 9 16 1 0
BITMAP
091900
0D1D00
000000
B00780
B00B80
B00F80
B02B80
B03380
B0A380
B0D380
B28380
B34380
BA0380
BD0380
B80380
B40380
ENDCHAR
STARTCHAR uni04E5
ENCODING 1253
SWIDTH 509 0
DWIDTH 9 0
BBX 7 13 1 0
BITMAP
2464
3474
0000
B03C
B07C
B0FC
B1EC
B26C
B72C
BA2C
BC2C
B82C
B02C
ENDCHAR
STARTCHAR uni04E6
ENCODING 1254
SWIDTH 600 0
DWIDTH 11 0
BBX 9 16 1 0
BITMAP
091800
1D1C00
000000
0BF400
2EAE00
740B40
B00340
E00380
E00380
E00380
E00380
E00380
B00340
740B40
2E6E00
0BF400
ENDCHAR
STARTCHAR uni04E7
ENCODING 1255
SWIDTH 501 0
DWIDTH 9 0
BBX 8 13 1 0
BITMAP
2460
7470
0000
1FD0
79B4
B028
E01C
D01D
D01C
E01C
A02C
79B4
1FD0
ENDCHAR
STARTCHAR uni04E8
ENCODING 1256
SWIDTH 593 0
DWIDTH 11 0
BBX 9 13 1 0
BITMAP
0BE400
2E6D00
740B00
B00740
E00380
E00380
FFFF80
E55780
E00380
B00740
740B00
2E6D00
0BE400
ENDCHAR
STARTCHAR uni04E9
ENCODING 1257
SWIDTH 497 0
DWIDTH 9 0
BBX 7 10 1 0
BITMAP
1B90
79B4
B038
E02C
FFFC
E56C
E02C
B038
79B4
1B90
ENDCHAR
STARTCHAR uni04EA
ENCODING 1258
SWIDTH 593 0
DWIDTH 11 0
BBX 9 16 1 0
BITMAP
091800
1D1D00
000000
0BE400
2E6D00
740B00
B00740
E00380
E00380
FFFF80
E55780
E00380
B00740
740B00
2E6D00
0BE400
ENDCHAR
STARTCHAR uni04EB
ENCODING 1259
SWIDTH 497 0
DWIDTH 9 0
BBX 7 13 1 0
BITMAP
6060
74B0
0000
1B90
79B4
B038
E02C
FFFC
E56C
E02C
B038
79B4
1B90
ENDCHAR
STARTCHAR uni04EC
ENCODING 1260
SWIDTH 589 0
DWIDTH 11 0
BBX 9 16 1 0
BITMAP
181800
1D2C00
000000
0BE400
2E6D00
740B00
B00740
100380
000380
03FF80
015780
100380
B00740
740B00
2E6D00
0BE400
ENDCHAR
STARTCHAR uni04ED
ENCODING 1261
SWIDTH 472 0
DWIDTH 9 0
BBX 7 13 1 0
BITMAP
6060
70B0
0000
2F80
B5E0
E070
0034
0BF4
0578
5074
E0B0
B5E0
2F80
ENDCHAR
STARTCHAR uni04EE
ENCODING 1262
SWIDTH 547 0
DWIDTH 10 0
BBX 8 17 1 0
BITMAP
0550
2FF8
0000
0000
E00B
B00E
741D
382C
2C38
0D74
0BB0
07E0
03D0
02C0
0380
1B40
2D00
ENDCHAR
STARTCHAR uni04EF
ENCODING 1263
SWIDTH 416 0
DWIDTH 8 0
BBX 7 18 0 -4
BITMAP
0550
2FF8
0000
0000
B02C
7438
3834
2C74
1CB0
0DA0
0ED0
0BC0
0780
0380
0340
0700
1E00
7800
ENDCHAR
STARTCHAR uni04F0
ENCODING 1264
SWIDTH 547 0
DWIDTH 10 0
BBX 8 16 1 0
BITMAP
2824
2838
0000
E00B
B00E
741D
382C
2C38
0D74
0BB0
07E0
03D0
02C0
0380
1B40
2D00
ENDCHAR
STARTCHAR uni04F1
ENCODING 1265
SWIDTH 416 0
DWIDTH 8 0
BBX 7 17 0 -4
BITMAP
2824
2838
0000
B02C
7438
3834
2C74
1CB0
0DA0
0ED0
0BC0
0780
0380
0340
0700
1E00
7800
ENDCHAR
STARTCHAR uni04F2
ENCODING 1266
SWIDTH 547 0
DWIDTH 10 0
BBX 8 17 1 0
BITMAP
03AD
0B78
0960
0000
E00B
B00E
741D
382C
2C38
0D74
0BB0
07E0
03D0
02C0
0380
1B40
2D00
ENDCHAR
STARTCHAR uni04F3
ENCODING 1267
SWIDTH 416 0
DWIDTH 8 0
BBX 7 18 0 -4
BITMAP
03AC
0B74
09A0
0000
B02C
7438
3834
2C74
1CB0
0DA0
0ED0
0BC0
0780
0380
0340
0700
1E00
7800
ENDCHAR
STARTCHAR uni04F4
ENCODING 1268
SWIDTH 600 0
DWIDTH 11 0
BBX 9 16 1 0
BITMAP
181800
1D2C00
000000
B00740
B00740
B00740
B00740
B00740
B00740
781B40
2FFF40
015740
000740
000740
000740
000740
ENDCHAR
STARTCHAR uni04F5
ENCODING 1269
SWIDTH 479 0
DWIDTH 9 0
BBX 7 13 1 0
BITMAP
60A0
B0A0
0000
D074
D074
D074
E074
B074
7FF4
0574
0074
0074
0074
ENDCHAR
STARTCHAR uni04F6
ENCODING 1270
SWIDTH 487 0
DWIDTH 9 0
BBX 7 17 1 -4
BITMAP
BFFC
B554
B000
B000
B000
B000
B000
B000
B000
B000
B000
B000
BD00
1D00
1D00
1D00
1D00
ENDCHAR
STARTCHAR uni04F7
ENCODING 1271
SWIDTH 371 0
DWIDTH 7 0
BBX 6 14 1 -4
BITMAP
BFD0
B540
B000
B000
B000
B000
B000
B000
B000
BD00
1D00
1D00
1D00
1D00
ENDCHAR
STARTCHAR uni04F8
ENCODING 1272
SWIDTH 755 0
DWIDTH 14 0
BBX 11 16 1 0
BITMAP
028240
038340
000000
B0002C
B0002C
B0002C
B0002C
B0002C
BFF82C
B56E2C
B00B2C
B0076C
B0076C
B00B2C
B56E2C
BFF82C
ENDCHAR
STARTCHAR uni04F9
ENCODING 1273
SWIDTH 679 0
DWIDTH 12 0
BBX 10 13 1 0
BITMAP
0A0900
0B0E00
000000
B000E0
B000E0
B000E0
BFD0E0
B5B4E0
B038E0
B028E0
B038E0
B5B4E0
BFD0E0
ENDCHAR
STARTCHAR uni04FA
ENCODING 1274
SWIDTH 520 0
DWIDTH 9 0
BBX 9 17 0 -4
BITMAP
0FFF80
0E5540
0E0000
0E0000
0E0000
7FD000
1F4000
0E0000
0E0000
0E0000
0E0000
0F4000
0FC000
02C000
02C000
078000
0E0000
ENDCHAR
STARTCHAR uni04FB
ENCODING 1275
SWIDTH 410 0
DWIDTH 7 0
BBX 7 14 0 -4
BITMAP
0FFC
0E54
0E00
0E00
7FD0
1F40
0E00
0E00
0E40
0FC0
02C0
02C0
0780
1E00
ENDCHAR
STARTCHAR uni04FC
ENCODING 1276
SWIDTH 570 0
DWIDTH 10 0
BBX 9 17 1 -4
BITMAP
E00F00
B41D00
382C00
2D7400
0EB000
07D000
03C000
0BD000
0EB000
2C7800
382C00
B41E40
E00BC0
0002C0
000280
000780
001E00
ENDCHAR
STARTCHAR uni04FD
ENCODING 1277
SWIDTH 476 0
DWIDTH 9 0
BBX 8 14 0 -4
BITMAP
782C
2C38
1DB0
0BE0
03C0
07C0
0AE0
1DB0
2C39
742F
0007
000B
001E
0039
ENDCHAR
STARTCHAR uni04FE
ENCODING 1278
SWIDTH 550 0
DWIDTH 10 0
BBX 8 13 1 0
BITMAP
E00F
B41E
382C
2D78
0EB0
0BE0
1FF4
0BE0
0EB0
1D74
382C
B41E
E00B
ENDCHAR
STARTCHAR uni04FF
ENCODING 1279
SWIDTH 438 0
DWIDTH 8 0
BBX 7 10 0 0
BITMAP
782C
2C38
0DB0
0BD0
1FF4
0BD0
0AE0
1DB0
2C38
742C
ENDCHAR
STARTCHAR uni0500
ENCODING 1280
SWIDTH 555 0
DWIDTH 10 0
BBX 8 13 1 0
BITMAP
000E
000E
000E
000E
000E
1FFE
795E
E00E
E00E
E00E
E00E
795E
1FFE
ENDCHAR
STARTCHAR uni0501
ENCODING 1281
SWIDTH 496 0
DWIDTH 9 0
BBX 7 14 1 0
BITMAP
0038
0038
0038
0038
2F78
B9B8
E038
D038
D038
D038
D038
E038
79B8
2F68
ENDCHAR
STARTCHAR uni0502
ENCODING 1282
SWIDTH 723 0
DWIDTH 13 0
BBX 12 13 1 0
BITMAP
000E00
000E00
000E00
000E00
000E00
1FFE00
795E18
E00E1D
E00E0D
E00E0D
F00E1D
795F7C
1FFFE0
ENDCHAR
STARTCHAR uni0503
ENCODING 1283
SWIDTH 743 0
DWIDTH 13 0
BBX 12 14 1 0
BITMAP
003800
003800
003800
003800
1F7800
79B814
B0381C
E0381D
D0381D
D0381D
E0381D
B0382C
79BDB4
2F4BD0
ENDCHAR
STARTCHAR uni0504
ENCODING 1284
SWIDTH 685 0
DWIDTH 12 0
BBX 12 13 0 0
BITMAP
7F9000
15B400
003800
002C00
003814
00742C
0FE02C
05B41C
00381D
002C2C
002C28
001EB4
000BD0
ENDCHAR
STARTCHAR uni0505
ENCODING 1285
SWIDTH 562 0
DWIDTH 10 0
BBX 10 10 0 0
BITMAP
7F4000
16D000
00E000
00E180
01D1D0
2F80D0
16E0D0
00E1D0
00B780
007E00
ENDCHAR
STARTCHAR uni0506
ENCODING 1286
SWIDTH 470 0
DWIDTH 8 0
BBX 8 16 0 -3
BITMAP
7F80
15E0
0074
0074
0074
00B0
2FC0
15E0
0074
0074
0074
003E
003E
000E
001D
0018
ENDCHAR
STARTCHAR uni0507
ENCODING 1287
SWIDTH 443 0
DWIDTH 8 0
BBX 7 13 1 -3
BITMAP
FE00
57C0
01D0
01D0
02C0
7F40
16C0
01D0
01E4
00F8
0038
0074
0060
ENDCHAR
STARTCHAR uni0508
ENCODING 1288
SWIDTH 834 0
DWIDTH 15 0
BBX 15 13 0 0
BITMAP
03FFE000
0395E000
0380E000
0340E000
0340E050
0740E0B0
0740E074
0740E074
0740E074
0700E074
0B00E0B0
2E00B6D0
78002F40
ENDCHAR
STARTCHAR uni0509
ENCODING 1289
SWIDTH 698 0
DWIDTH 13 0
BBX 12 10 0 0
BITMAP
0BFE00
0B5E00
0B0E09
0B0E0A
0B0E0B
0A0E0B
0A0E0B
0E0A0E
2D076D
7802F4
ENDCHAR
STARTCHAR uni050A
ENCODING 1290
SWIDTH 864 0
DWIDTH 16 0
BBX 14 13 1 0
BITMAP
B0038000
B0038000
B0038000
B0038000
B0038140
BFFF81C0
B55781D0
B00381D0
B00381D0
B00381D0
B00282C0
B002EB40
B000BD00
ENDCHAR
STARTCHAR uni050B
ENCODING 1291
SWIDTH 716 0
DWIDTH 13 0
BBX 12 10 1 0
BITMAP
A02C00
A02C00
A02C28
A02C2C
BFFC1C
B56C1D
A02C1C
A02C2C
A01EB4
A007E0
ENDCHAR
STARTCHAR uni050C
ENCODING 1292
SWIDTH 541 0
DWIDTH 10 0
BBX 8 13 1 0
BITMAP
0BF4
2E68
7400
B000
E000
E000
E00E
E00A
E00B
B00B
740E
2E6D
0BE4
ENDCHAR
STARTCHAR uni050D
ENCODING 1293
SWIDTH 452 0
DWIDTH 8 0
BBX 7 10 1 0
BITMAP
1FD0
7990
B000
E000
D000
D070
E074
B074
79B0
1B90
ENDCHAR
STARTCHAR uni050E
ENCODING 1294
SWIDTH 616 0
DWIDTH 11 0
BBX 11 13 0 0
BITMAP
BFFFC0
55E540
00D000
00D000
00D050
00D0B0
00D070
00D074
00D074
00D0B0
00E0E0
00B6D0
002F40
ENDCHAR
STARTCHAR uni050F
ENCODING 1295
SWIDTH 558 0
DWIDTH 10 0
BBX 9 10 0 0
BITMAP
7FFD00
16D400
028000
028280
0282C0
0281C0
0281C0
02C2C0
01EB40
00BE00
ENDCHAR
STARTCHAR uni0510
ENCODING 1296
SWIDTH 589 0
DWIDTH 11 0
BBX 9 13 1 0
BITMAP
0BF800
3E6E00
740740
B00240
740000
390000
0FE000
3E5000
B40000
B00240
B40740
3E6F00
0BF800
ENDCHAR
STARTCHAR uni0511
ENCODING 1297
SWIDTH 470 0
DWIDTH 8 0
BBX 7 10 1 0
BITMAP
2F90
B5B0
E024
B000
3F80
B540
E000
E034
B5B4
2F90
ENDCHAR
STARTCHAR uni0512
ENCODING 1298
SWIDTH 664 0
DWIDTH 12 0
BBX 11 17 0 -4
BITMAP
03FFE0
0795E0
0740E0
0740E0
0740E0
0740E0
0740E0
0740E0
0700E0
0B00E0
0E00E0
6D00E4
7800FC
00001C
00002C
000078
0000E4
ENDCHAR
STARTCHAR uni0513
ENCODING 1299
SWIDTH 553 0
DWIDTH 10 0
BBX 10 14 0 -4
BITMAP
0BFF00
0B5B00
0A0B00
0A0B00
0E0B00
0E0B00
0E0B00
1D0B00
6C0B40
B40BD0
0000D0
0001D0
0006C0
000B40
ENDCHAR
STARTCHAR uni1E00
ENCODING 7680
SWIDTH 576 0
DWIDTH 10 0
BBX 10 17 0 -4
BITMAP
00B000
00F400
01F800
029C00
038D00
074A00
0B0B00
0E0740
1FFF80
2D56C0
3801D0
3400E0
7400B0
000000
00B400
009800
00B400
ENDCHAR
STARTCHAR uni1E01
ENCODING 7681
SWIDTH 479 0
DWIDTH 9 0
BBX 7 14 1 -4
BITMAP
1F90
79B0
A074
0074
1BF4
7974
E074
E074
BAF4
2F78
0000
0E00
1600
0E00
ENDCHAR
STARTCHAR uni1E3E
ENCODING 7742
SWIDTH 755 0
DWIDTH 14 0
BBX 12 17 1 0
BITMAP
000B40
001D00
002800
000000
B8003D
BC007D
BD00BD
BE00ED
BB01ED
B742DD
B3839D
B2875D
B1CB1D
B0DE1D
B0BD1D
B07C1D
B0381D
ENDCHAR
STARTCHAR uni1E3F
ENCODING 7743
SWIDTH 752 0
DWIDTH 14 0
BBX 12 14 1 0
BITMAP
000B40
001D00
002800
000000
ABD2F4
B9BE7C
A0781D
A0381D
A0381D
A0381D
A0381D
A0381D
A0381D
A0381D
ENDCHAR
STARTCHAR Wgrave
ENCODING 7808
SWIDTH 761 0
DWIDTH 14 0
BBX 13 17 0 0
BITMAP
00780000
002D0000
000A0000
00000000
740A01C0
380F02C0
381F4280
2C1F4380
1C2A8340
1D35C700
0D71CB00
0E70DA00
0AA0AE00
0BD0AD00
07D07D00
03C03C00
03803800
ENDCHAR
STARTCHAR wgrave
ENCODING 7809
SWIDTH 649 0
DWIDTH 12 0
BBX 11 14 0 0
BITMAP
02D000
00B000
003400
000000
70381C
74382C
387C28
28AD34
2CDA74
1DCB70
0EC7A0
0B83D0
0B42D0
0701C0
ENDCHAR
STARTCHAR Wacute
ENCODING 7810
SWIDTH 761 0
DWIDTH 14 0
BBX 13 17 0 0
BITMAP
0002D000
00078000
000A0000
00000000
740A01C0
380F02C0
381F4280
2C1F4380
1C2A8340
1D35C700
0D71CB00
0E70DA00
0AA0AE00
0BD0AD00
07D07D00
03C03C00
03803800
ENDCHAR
STARTCHAR wacute
ENCODING 7811
SWIDTH 649 0
DWIDTH 12 0
BBX 11 14 0 0
BITMAP
000B40
001D00
002800
000000
70381C
74382C
387C28
28AD34
2CDA74
1DCB70
0EC7A0
0B83D0
0B42D0
0701C0
ENDCHAR
STARTCHAR Wdieresis
ENCODING 7812
SWIDTH 761 0
DWIDTH 14 0
BBX 13 16 0 0
BITMAP
00A0A000
00B0A000
00000000
740A01C0
380F02C0
381F4280
2C1F4380
1C2A8340
1D35C700
0D71CB00
0E70DA00
0AA0AE00
0BD0AD00
07D07D00
03C03C00
03803800
ENDCHAR
STARTCHAR wdieresis
ENCODING 7813
SWIDTH 649 0
DWIDTH 12 0
BBX 11 13 0 0
BITMAP
028240
028340
000000
70381C
74382C
387C28
28AD34
2CDA74
1DCB70
0EC7A0
0B83D0
0B42D0
0701C0
ENDCHAR
STARTCHAR uni1EA0
ENCODING 7840
SWIDTH 576 0
DWIDTH 10 0
BBX 10 16 0 -3
BITMAP
00B000
00F400
01F800
029C00
038D00
074A00
0B0B00
0E0740
1FFF80
2D56C0
3801D0
3400E0
7400B0
000000
00B000
006000
ENDCHAR
STARTCHAR uni1EA1
ENCODING 7841
SWIDTH 479 0
DWIDTH 9 0
BBX 7 13 1 -3
BITMAP
1F90
79B0
A074
0074
1BF4
7974
E074
E074
BAF4
2F78
0000
0E00
0900
ENDCHAR
STARTCHAR uni1EA2
ENCODING 7842
SWIDTH 576 0
DWIDTH 10 0
BBX 10 18 0 0
BITMAP
007400
001800
002800
007000
000000
00B000
00F400
01F800
029C00
038D00
074A00
0B0B00
0E0740
1FFF80
2D56C0
3801D0
3400E0
7400B0
ENDCHAR
STARTCHAR uni1EA3
ENCODING 7843
SWIDTH 479 0
DWIDTH 9 0
BBX 7 15 1 0
BITMAP
0340
01C0
02C0
0300
0000
1F90
79B0
A074
0074
1BF4
7974
E074
E074
BAF4
2F78
ENDCHAR
STARTCHAR uni1EA4
ENCODING 7844
SWIDTH 576 0
DWIDTH 10 0
BBX 10 18 0 0
BITMAP
0000A0
000180
01F800
068E00
000000
00B000
00F400
01F800
029C00
038D00
074A00
0B0B00
0E0740
1FFF80
2D56C0
3801D0
3400E0
7400B0
ENDCHAR
STARTCHAR uni1EA5
ENCODING 7845
SWIDTH 479 0
DWIDTH 9 0
BBX 8 15 1 0
BITMAP
000B
0009
0B80
28A0
0000
1F90
79B0
A074
0074
1BF4
7974
E074
E074
BAF4
2F78
ENDCHAR
STARTCHAR uni1EA6
ENCODING 7846
SWIDTH 576 0
DWIDTH 10 0
BBX 10 18 0 0
BITMAP
740000
280000
01F800
079D00
000000
00B000
00F400
01F800
029C00
038D00
074A00
0B0B00
0E0740
1FFF80
2D56C0
3801D0
3400E0
7400B0
ENDCHAR
STARTCHAR uni1EA7
ENCODING 7847
SWIDTH 479 0
DWIDTH 9 0
BBX 8 15 0 0
BITMAP
E000
6000
02E0
0A28
0000
07E4
1E6C
281D
001D
06FD
1E5D
381D
381D
2EBD
0BDE
ENDCHAR
STARTCHAR uni1EA8
ENCODING 7848
SWIDTH 576 0
DWIDTH 10 0
BBX 10 18 0 0
BITMAP
000280
0000C0
01FA40
074A00
000000
00B000
00F400
01F800
029C00
038D00
074A00
0B0B00
0E0740
1FFF80
2D56C0
3801D0
3400E0
7400B0
ENDCHAR
STARTCHAR uni1EA9
ENCODING 7849
SWIDTH 479 0
DWIDTH 9 0
BBX 8 15 1 0
BITMAP
0018
0009
0AA8
28A0
0000
1F90
79B0
A074
0074
1BF4
7974
E074
E074
BAF4
2F78
ENDCHAR
STARTCHAR uni1EAA
ENCODING 7850
SWIDTH 576 0
DWIDTH 10 0
BBX 10 19 0 0
BITMAP
01D800
022800
000000
01F800
074A00
000000
00B000
00F400
01F800
029C00
038D00
074A00
0B0B00
0E0740
1FFF80
2D56C0
3801D0
3400E0
7400B0
ENDCHAR
STARTCHAR uni1EAB
ENCODING 7851
SWIDTH 479 0
DWIDTH 9 0
BBX 7 16 1 0
BITMAP
0D50
16C0
0000
0B80
28A0
0000
1F90
79B0
A074
0074
1BF4
7974
E074
E074
BAF4
2F78
ENDCHAR
STARTCHAR uni1EAC
ENCODING 7852
SWIDTH 576 0
DWIDTH 10 0
BBX 10 20 0 -3
BITMAP
00B000
01E800
024900
000000
00B000
00F400
01F800
029C00
038D00
074A00
0B0B00
0E0740
1FFF80
2D56C0
3801D0
3400E0
7400B0
000000
00B000
006000
ENDCHAR
STARTCHAR uni1EAD
ENCODING 7853
SWIDTH 479 0
DWIDTH 9 0
BBX 7 17 1 -3
BITMAP
0740
1EC0
1890
0000
1F90
79B0
A074
0074
1BF4
7974
E074
E074
BAF4
2F78
0000
0E00
0900
ENDCHAR
STARTCHAR uni1EAE
ENCODING 7854
SWIDTH 576 0
DWIDTH 10 0
BBX 10 18 0 0
BITMAP
002400
002000
034D00
01F800
000000
00B000
00F400
01F800
029C00
038D00
074A00
0B0B00
0E0740
1FFF80
2D56C0
3801D0
3400E0
7400B0
ENDCHAR
STARTCHAR uni1EAF
ENCODING 7855
SWIDTH 479 0
DWIDTH 9 0
BBX 7 15 1 0
BITMAP
0180
0200
28A0
1B80
0000
1F90
79B0
A074
0074
1BF4
7974
E074
E074
BAF4
2F78
ENDCHAR
STARTCHAR uni1EB0
ENCODING 7856
SWIDTH 576 0
DWIDTH 10 0
BBX 10 18 0 0
BITMAP
00D000
005000
034D00
01F800
000000
00B000
00F400
01F800
029C00
038D00
074A00
0B0B00
0E0740
1FFF80
2D56C0
3801D0
3400E0
7400B0
ENDCHAR
STARTCHAR uni1EB1
ENCODING 7857
SWIDTH 479 0
DWIDTH 9 0
BBX 7 15 1 0
BITMAP
0900
0200
28A0
1B80
0000
1F90
79B0
A074
0074
1BF4
7974
E074
E074
BAF4
2F78
ENDCHAR
STARTCHAR uni1EB2
ENCODING 7858
SWIDTH 576 0
DWIDTH 10 0
BBX 10 19 0 0
BITMAP
006400
002800
007000
034D00
01F800
000000
00B000
00F400
01F800
029C00
038D00
074A00
0B0B00
0E0740
1FFF80
2D56C0
3801D0
3400E0
7400B0
ENDCHAR
STARTCHAR uni1EB3
ENCODING 7859
SWIDTH 479 0
DWIDTH 9 0
BBX 7 16 1 0
BITMAP
0280
01C0
0340
2890
1B80
0000
1F90
79B0
A074
0074
1BF4
7974
E074
E074
BAF4
2F78
ENDCHAR
STARTCHAR uni1EB4
ENCODING 7860
SWIDTH 576 0
DWIDTH 10 0
BBX 10 19 0 0
BITMAP
01D900
022800
000000
034D00
01F800
000000
00B000
00F400
01F800
029C00
038D00
074A00
0B0B00
0E0740
1FFF80
2D56C0
3801D0
3400E0
7400B0
ENDCHAR
STARTCHAR uni1EB5
ENCODING 7861
SWIDTH 479 0
DWIDTH 9 0
BBX 7 16 1 0
BITMAP
0E50
16C0
0000
28A0
1B80
0000
1F90
79B0
A074
0074
1BF4
7974
E074
E074
BAF4
2F78
ENDCHAR
STARTCHAR uni1EB6
ENCODING 7862
SWIDTH 576 0
DWIDTH 10 0
BBX 10 19 0 -3
BITMAP
074A00
01F800
000000
00B000
00F400
01F800
029C00
038D00
074A00
0B0B00
0E0740
1FFF80
2D56C0
3801D0
3400E0
7400B0
000000
00B000
006000
ENDCHAR
STARTCHAR uni1EB7
ENCODING 7863
SWIDTH 479 0
DWIDTH 9 0
BBX 7 16 1 -3
BITMAP
3470
1F90
0000
1F90
79B0
A074
0074
1BF4
7974
E074
E074
BAF4
2F78
0000
0E00
0900
ENDCHAR
STARTCHAR uni1EB8
ENCODING 7864
SWIDTH 496 0
DWIDTH 9 0
BBX 8 16 1 -3
BITMAP
BFFD
B554
B000
B000
B000
B000
BFF8
B554
B000
B000
B000
B554
BFFD
0000
0340
0240
ENDCHAR
STARTCHAR uni1EB9
ENCODING 7865
SWIDTH 468 0
DWIDTH 8 0
BBX 7 13 1 -3
BITMAP
1F90
79B0
A038
D038
FFF8
E554
E000
E000
7974
1FE0
0000
0700
0600
ENDCHAR
STARTCHAR uni1EBA
ENCODING 7866
SWIDTH 496 0
DWIDTH 9 0
BBX 8 18 1 0
BITMAP
0280
00D0
01D0
0240
0000
BFFD
B554
B000
B000
B000
B000
BFF8
B554
B000
B000
B000
B554
BFFD
ENDCHAR
STARTCHAR uni1EBB
ENCODING 7867
SWIDTH 468 0
DWIDTH 8 0
BBX 7 15 1 0
BITMAP
0740
01C0
02C0
0700
0000
1F90
79B0
A038
D038
FFF8
E554
E000
E000
7974
1FE0
ENDCHAR
STARTCHAR uni1EBC
ENCODING 7868
SWIDTH 496 0
DWIDTH 9 0
BBX 8 17 1 0
BITMAP
0410
1F74
25E0
0000
BFFD
B554
B000
B000
B000
B000
BFF8
B554
B000
B000
B000
B554
BFFD
ENDCHAR
STARTCHAR uni1EBD
ENCODING 7869
SWIDTH 468 0
DWIDTH 8 0
BBX 7 14 1 0
BITMAP
0010
3E70
62D0
0000
1F90
79B0
A038
D038
FFF8
E554
E000
E000
7974
1FE0
ENDCHAR
STARTCHAR uni1EBE
ENCODING 7870
SWIDTH 496 0
DWIDTH 9 0
BBX 9 18 1 0
BITMAP
000740
000A00
0BD000
2CA000
000000
BFFD00
B55400
B00000
B00000
B00000
B00000
BFF800
B55400
B00000
B00000
B00000
B55400
BFFD00
ENDCHAR
STARTCHAR uni1EBF
ENCODING 7871
SWIDTH 468 0
DWIDTH 8 0
BBX 8 15 1 0
BITMAP
000B
000D
1B80
28A0
0000
1F90
79B0
A038
D038
FFF8
E554
E000
E000
7974
1FE0
ENDCHAR
STARTCHAR uni1EC0
ENCODING 7872
SWIDTH 496 0
DWIDTH 9 0
BBX 9 18 0 0
BITMAP
A00000
240000
02F400
0B2800
000000
2FFF40
2D5500
2C0000
2C0000
2C0000
2C0000
2FFE00
2D5500
2C0000
2C0000
2C0000
2D5500
2FFF40
ENDCHAR
STARTCHAR uni1EC1
ENCODING 7873
SWIDTH 468 0
DWIDTH 8 0
BBX 9 15 -1 0
BITMAP
740000
180000
01B800
028A00
000000
01F900
079B00
0A0380
0D0380
0FFF80
0E5540
0E0000
0E0000
079740
01FE00
ENDCHAR
STARTCHAR uni1EC2
ENCODING 7874
SWIDTH 496 0
DWIDTH 9 0
BBX 8 18 1 0
BITMAP
001D
000A
0ADC
2874
0000
BFFD
B554
B000
B000
B000
B000
BFF8
B554
B000
B000
B000
B554
BFFD
ENDCHAR
STARTCHAR uni1EC3
ENCODING 7875
SWIDTH 468 0
DWIDTH 8 0
BBX 8 15 1 0
BITMAP
0028
000D
1EA8
34A0
0000
1F90
79B0
A038
D038
FFF8
E554
E000
E000
7974
1FE0
ENDCHAR
STARTCHAR uni1EC4
ENCODING 7876
SWIDTH 496 0
DWIDTH 9 0
BBX 8 19 1 0
BITMAP
0A60
15D0
0000
0B90
2870
0000
BFFD
B554
B000
B000
B000
B000
BFF8
B554
B000
B000
B000
B554
BFFD
ENDCHAR
STARTCHAR uni1EC5
ENCODING 7877
SWIDTH 468 0
DWIDTH 8 0
BBX 7 16 1 0
BITMAP
1D80
2280
0000
1B80
24A0
0000
1F90
79B0
A038
D038
FFF8
E554
E000
E000
7974
1FE0
ENDCHAR
STARTCHAR uni1EC6
ENCODING 7878
SWIDTH 496 0
DWIDTH 9 0
BBX 8 20 1 -3
BITMAP
0380
0AD0
1860
0000
BFFD
B554
B000
B000
B000
B000
BFF8
B554
B000
B000
B000
B554
BFFD
0000
0340
0240
ENDCHAR
STARTCHAR uni1EC7
ENCODING 7879
SWIDTH 468 0
DWIDTH 8 0
BBX 7 17 1 -3
BITMAP
0B40
1EC0
2890
0000
1F90
79B0
A038
D038
FFF8
E554
E000
E000
7974
1FE0
0000
0700
0600
ENDCHAR
STARTCHAR uni1EC8
ENCODING 7880
SWIDTH 250 0
DWIDTH 5 0
BBX 3 18 1 0
BITMAP
74
1C
28
70
00
B0
B0
B0
B0
B0
B0
B0
B0
B0
B0
B0
B0
B0
ENDCHAR
STARTCHAR uni1EC9
ENCODING 7881
SWIDTH 234 0
DWIDTH 4 0
BBX 3 15 1 0
BITMAP
A4
28
78
60
00
B0
B0
B0
B0
B0
B0
B0
B0
B0
B0
ENDCHAR
STARTCHAR uni1ECA
ENCODING 7882
SWIDTH 250 0
DWIDTH 5 0
BBX 2 16 1 -3
BITMAP
B0
B0
B0
B0
B0
B0
B0
B0
B0
B0
B0
B0
B0
00
B0
60
ENDCHAR
STARTCHAR uni1ECB
ENCODING 7883
SWIDTH 229 0
DWIDTH 4 0
BBX 2 17 1 -3
BITMAP
60
A0
00
00
B0
B0
B0
B0
B0
B0
B0
B0
B0
B0
00
A0
A0
ENDCHAR
STARTCHAR uni1ECC
ENCODING 7884
SWIDTH 600 0
DWIDTH 11 0
BBX 9 16 1 -3
BITMAP
0BF400
2EAE00
740B40
B00340
E00380
E00380
E00380
E00380
E00380
B00340
740B40
2E6E00
0BF400
000000
01C000
018000
ENDCHAR
STARTCHAR uni1ECD
ENCODING 7885
SWIDTH 501 0
DWIDTH 9 0
BBX 8 13 1 -3
BITMAP
1FD0
79B4
B028
E01C
D01D
D01C
E01C
A02C
79B4
1FD0
0000
0740
0640
ENDCHAR
STARTCHAR uni1ECE
ENCODING 7886
SWIDTH 600 0
DWIDTH 11 0
BBX 9 18 1 0
BITMAP
01D000
007000
00B000
00C000
000000
0BF400
2EAE00
740B40
B00340
E00380
E00380
E00380
E00380
E00380
B00340
740B40
2E6E00
0BF400
ENDCHAR
STARTCHAR uni1ECF
ENCODING 7887
SWIDTH 501 0
DWIDTH 9 0
BBX 8 15 1 0
BITMAP
0740
01C0
02C0
0300
0000
1FD0
79B4
B028
E01C
D01D
D01C
E01C
A02C
79B4
1FD0
ENDCHAR
STARTCHAR uni1ED0
ENCODING 7888
SWIDTH 600 0
DWIDTH 11 0
BBX 9 18 1 0
BITMAP
0002C0
000340
02E000
0A2800
000000
0BF400
2EAE00
740B40
B00340
E00380
E00380
E00380
E00380
E00380
B00340
740B40
2E6E00
0BF400
ENDCHAR
STARTCHAR uni1ED1
ENCODING 7889
SWIDTH 501 0
DWIDTH 9 0
BBX 8 15 1 0
BITMAP
000B
000D
0B80
28A0
0000
1FD0
79B4
B028
E01C
D01D
D01C
E01C
A02C
79B4
1FD0
ENDCHAR
STARTCHAR uni1ED2
ENCODING 7890
SWIDTH 600 0
DWIDTH 11 0
BBX 9 18 1 0
BITMAP
E00000
600000
02E000
0A2800
000000
0BF400
2EAE00
740B40
B00340
E00380
E00380
E00380
E00380
E00380
B00340
740B40
2E6E00
0BF400
ENDCHAR
STARTCHAR uni1ED3
ENCODING 7891
SWIDTH 501 0
DWIDTH 9 0
BBX 9 15 0 0
BITMAP
E00000
600000
02E000
0A2800
000000
07F400
1E6D00
2C0A00
380700
340740
340700
380700
280B00
1E6D00
07F400
ENDCHAR
STARTCHAR uni1ED4
ENCODING 7892
SWIDTH 600 0
DWIDTH 11 0
BBX 9 18 1 0
BITMAP
000600
000240
07AA00
092800
000000
0BF400
2EAE00
740B40
B00340
E00380
E00380
E00380
E00380
E00380
B00340
740B40
2E6E00
0BF400
ENDCHAR
STARTCHAR uni1ED5
ENCODING 7893
SWIDTH 501 0
DWIDTH 9 0
BBX 8 15 1 0
BITMAP
0018
0009
1EA8
24A0
0000
1FD0
79B4
B028
E01C
D01D
D01C
E01C
A02C
79B4
1FD0
ENDCHAR
STARTCHAR uni1ED6
ENCODING 7894
SWIDTH 600 0
DWIDTH 11 0
BBX 9 19 1 0
BITMAP
075400
05A000
000000
02E000
0A2800
000000
0BF400
2EAE00
740B40
B00340
E00380
E00380
E00380
E00380
E00380
B00340
740B40
2E6E00
0BF400
ENDCHAR
STARTCHAR uni1ED7
ENCODING 7895
SWIDTH 501 0
DWIDTH 9 0
BBX 8 16 1 0
BITMAP
1D50
1680
0000
0B80
28A0
0000
1FD0
79B4
B028
E01C
D01D
D01C
E01C
A02C
79B4
1FD0
ENDCHAR
STARTCHAR uni1ED8
ENCODING 7896
SWIDTH 600 0
DWIDTH 11 0
BBX 9 20 1 -3
BITMAP
01D000
07B000
0A2400
000000
0BF400
2EAE00
740B40
B00340
E00380
E00380
E00380
E00380
E00380
B00340
740B40
2E6E00
0BF400
000000
01C000
018000
ENDCHAR
STARTCHAR uni1ED9
ENCODING 7897
SWIDTH 501 0
DWIDTH 9 0
BBX 8 17 1 -3
BITMAP
0740
1EC0
2890
0000
1FD0
79B4
B028
E01C
D01D
D01C
E01C
A02C
79B4
1FD0
0000
0740
0640
ENDCHAR
STARTCHAR uni1EDA
ENCODING 7898
SWIDTH 592 0
DWIDTH 11 0
BBX 11 17 0 0
BITMAP
001E00
003C00
007414
000028
02F974
0B9FE0
1D03C0
2C01D0
3800D0
3400E0
7400E0
3400E0
3800D0
2C01D0
1D0280
0B9B40
02F900
ENDCHAR
STARTCHAR uni1EDB
ENCODING 7899
SWIDTH 502 0
DWIDTH 9 0
BBX 8 14 1 0
BITMAP
00E0
02C0
0340
0003
1B97
79BD
B038
E02C
D01C
D01C
E02C
B038
79B4
1B90
ENDCHAR
STARTCHAR uni1EDC
ENCODING 7900
SWIDTH 592 0
DWIDTH 11 0
BBX 11 17 0 0
BITMAP
03C000
01E000
00A014
000028
02F974
0B9FE0
1D03C0
2C01D0
3800D0
3400E0
7400E0
3400E0
3800D0
2C01D0
1D0280
0B9B40
02F900
ENDCHAR
STARTCHAR uni1EDD
ENCODING 7901
SWIDTH 502 0
DWIDTH 9 0
BBX 8 14 1 0
BITMAP
3C00
1E00
0600
0003
1B97
79BD
B038
E02C
D01C
D01C
E02C
B038
79B4
1B90
ENDCHAR
STARTCHAR uni1EDE
ENCODING 7902
SWIDTH 592 0
DWIDTH 11 0
BBX 11 18 0 0
BITMAP
007400
001C00
002800
007014
000028
02F974
0B9FE0
1D03C0
2C01D0
3800D0
3400E0
7400E0
3400E0
3800D0
2C01D0
1D0280
0B9B40
02F900
ENDCHAR
STARTCHAR uni1EDF
ENCODING 7903
SWIDTH 502 0
DWIDTH 9 0
BBX 8 15 1 0
BITMAP
0340
01C0
02C0
0300
0003
1B97
79BD
B038
E02C
D01C
D01C
E02C
B038
79B4
1B90
ENDCHAR
STARTCHAR uni1EE0
ENCODING 7904
SWIDTH 592 0
DWIDTH 11 0
BBX 11 17 0 0
BITMAP
000100
03E700
062D14
000028
02F974
0B9FE0
1D03C0
2C01D0
3800D0
3400E0
7400E0
3400E0
3800D0
2C01D0
1D0280
0B9B40
02F900
ENDCHAR
STARTCHAR uni1EE1
ENCODING 7905
SWIDTH 502 0
DWIDTH 9 0
BBX 8 14 1 0
BITMAP
0410
2E70
32D0
0003
1B97
79BD
B038
E02C
D01C
D01C
E02C
B038
79B4
1B90
ENDCHAR
STARTCHAR uni1EE2
ENCODING 7906
SWIDTH 592 0
DWIDTH 11 0
BBX 11 18 0 -3
BITMAP
000014
000028
02F974
0B9FE0
1D03C0
2C01D0
3800D0
3400E0
7400E0
3400E0
3800D0
2C01D0
1D0280
0B9B40
02F900
000000
00B000
006000
ENDCHAR
STARTCHAR uni1EE3
ENCODING 7907
SWIDTH 502 0
DWIDTH 9 0
BBX 8 14 1 -3
BITMAP
0003
1B97
79BD
B038
E02C
D01C
D01C
E02C
B038
79B4
1B90
0000
0740
0600
ENDCHAR
STARTCHAR uni1EE4
ENCODING 7908
SWIDTH 561 0
DWIDTH 10 0
BBX 8 16 1 -3
BITMAP
E00B
E00B
E00B
E00B
E00B
E00B
E00B
E00B
E00B
A00B
B00E
7D6D
1BE4
0000
0280
0280
ENDCHAR
STARTCHAR uni1EE5
ENCODING 7909
SWIDTH 483 0
DWIDTH 9 0
BBX 7 13 1 -3
BITMAP
E038
E038
E038
E038
E038
E038
E038
B038
79F8
2F78
0000
0E00
0A00
ENDCHAR
STARTCHAR uni1EE6
ENCODING 7910
SWIDTH 561 0
DWIDTH 10 0
BBX 8 18 1 0
BITMAP
0290
00A0
01E0
0180
0000
E00B
E00B
E00B
E00B
E00B
E00B
E00B
E00B
E00B
A00B
B00E
7D6D
1BE4
ENDCHAR
STARTCHAR uni1EE7
ENCODING 7911
SWIDTH 483 0
DWIDTH 9 0
BBX 7 15 1 0
BITMAP
0740
01C0
02C0
0700
0000
E038
E038
E038
E038
E038
E038
E038
B038
79F8
2F78
ENDCHAR
STARTCHAR uni1EE8
ENCODING 7912
SWIDTH 608 0
DWIDTH 11 0
BBX 11 17 1 0
BITMAP
007800
00F000
01D000
000014
E00B28
E00B74
E00BE0
E00B00
E00B00
E00B00
E00B00
E00B00
E00B00
B00B00
B40E00
3D7D00
0BE400
ENDCHAR
STARTCHAR uni1EE9
ENCODING 7913
SWIDTH 549 0
DWIDTH 10 0
BBX 9 14 1 0
BITMAP
00E000
02C000
074000
000180
E03A80
E03E40
E03800
E03800
E03800
E03800
E03800
B03800
79F800
2F7800
ENDCHAR
STARTCHAR uni1EEA
ENCODING 7914
SWIDTH 608 0
DWIDTH 11 0
BBX 11 17 1 0
BITMAP
0F0000
078000
028000
000014
E00B28
E00B74
E00BE0
E00B00
E00B00
E00B00
E00B00
E00B00
E00B00
B00B00
B40E00
3D7D00
0BE400
ENDCHAR
STARTCHAR uni1EEB
ENCODING 7915
SWIDTH 549 0
DWIDTH 10 0
BBX 9 14 1 0
BITMAP
3C0000
1E0000
060000
000180
E03A80
E03E40
E03800
E03800
E03800
E03800
E03800
B03800
79F800
2F7800
ENDCHAR
STARTCHAR uni1EEC
ENCODING 7916
SWIDTH 608 0
DWIDTH 11 0
BBX 11 18 1 0
BITMAP
01D000
007000
00A000
01C000
000014
E00B28
E00B74
E00BE0
E00B00
E00B00
E00B00
E00B00
E00B00
E00B00
B00B00
B40E00
3D7D00
0BE400
ENDCHAR
STARTCHAR uni1EED
ENCODING 7917
SWIDTH 549 0
DWIDTH 10 0
BBX 9 15 1 0
BITMAP
034000
01C000
02C000
030000
000180
E03A80
E03E40
E03800
E03800
E03800
E03800
E03800
B03800
79F800
2F7800
ENDCHAR
STARTCHAR uni1EEE
ENCODING 7918
SWIDTH 608 0
DWIDTH 11 0
BBX 11 17 1 0
BITMAP
000400
0F9C00
18B400
000014
E00B28
E00B74
E00BE0
E00B00
E00B00
E00B00
E00B00
E00B00
E00B00
B00B00
B40E00
3D7D00
0BE400
ENDCHAR
STARTCHAR uni1EEF
ENCODING 7919
SWIDTH 549 0
DWIDTH 10 0
BBX 9 14 1 0
BITMAP
041000
2E7000
32D000
000180
E03A80
E03E40
E03800
E03800
E03800
E03800
E03800
B03800
79F800
2F7800
ENDCHAR
STARTCHAR uni1EF0
ENCODING 7920
SWIDTH 608 0
DWIDTH 11 0
BBX 11 17 1 -3
BITMAP
000014
E00B28
E00B74
E00BE0
E00B00
E00B00
E00B00
E00B00
E00B00
E00B00
B00B00
B40E00
3D7D00
0BE400
000000
01C000
018000
ENDCHAR
STARTCHAR uni1EF1
ENCODING 7921
SWIDTH 549 0
DWIDTH 10 0
BBX 9 14 1 -3
BITMAP
000180
E03A80
E03E40
E03800
E03800
E03800
E03800
E03800
B03800
79F800
2F7800
000000
070000
060000
ENDCHAR
STARTCHAR Ygrave
ENCODING 7922
SWIDTH 524 0
DWIDTH 9 0
BBX 9 17 0 0
BITMAP
0B4000
02C000
00D000
000000
B403C0
380740
2C0B00
1D0E00
0B1C00
077800
03F400
01E000
00E000
00E000
00E000
00E000
00E000
ENDCHAR
STARTCHAR ygrave
ENCODING 7923
SWIDTH 416 0
DWIDTH 8 0
BBX 7 18 0 -4
BITMAP
1D00
0B40
0240
0000
B02C
7438
3834
2C74
1CB0
0DA0
0ED0
0BC0
0780
0380
0340
0700
1E00
7800
ENDCHAR
STARTCHAR uni1EF4
ENCODING 7924
SWIDTH 524 0
DWIDTH 9 0
BBX 9 16 0 -3
BITMAP
B403C0
380740
2C0B00
1D0E00
0B1C00
077800
03F400
01E000
00E000
00E000
00E000
00E000
00E000
000000
00D000
009000
ENDCHAR
STARTCHAR uni1EF5
ENCODING 7925
SWIDTH 416 0
DWIDTH 8 0
BBX 7 14 0 -4
BITMAP
B02C
7438
3834
2C74
1CB0
0DA0
0ED0
0BC0
0780
0380
0340
0700
1E70
7860
ENDCHAR
STARTCHAR uni1EF6
ENCODING 7926
SWIDTH 524 0
DWIDTH 9 0
BBX 9 18 0 0
BITMAP
00A000
003400
007400
009000
000000
B403C0
380740
2C0B00
1D0E00
0B1C00
077800
03F400
01E000
00E000
00E000
00E000
00E000
00E000
ENDCHAR
STARTCHAR uni1EF7
ENCODING 7927
SWIDTH 416 0
DWIDTH 8 0
BBX 7 19 0 -4
BITMAP
0280
00A0
01D0
0280
0000
B02C
7438
3834
2C74
1CB0
0DA0
0ED0
0BC0
0780
0380
0340
0700
1E00
7800
ENDCHAR
STARTCHAR uni1EF8
ENCODING 7928
SWIDTH 524 0
DWIDTH 9 0
BBX 9 17 0 0
BITMAP
010400
07DD00
097800
000000
B403C0
380740
2C0B00
1D0E00
0B1C00
077800
03F400
01E000
00E000
00E000
00E000
00E000
00E000
ENDCHAR
STARTCHAR uni1EF9
ENCODING 7929
SWIDTH 416 0
DWIDTH 8 0
BBX 7 18 0 -4
BITMAP
0014
1F64
25E0
0000
B02C
7438
3834
2C74
1CB0
0DA0
0ED0
0BC0
0780
0380
0340
0700
1E00
7800
ENDCHAR
STARTCHAR uni1F4D
ENCODING 8013
SWIDTH 634 0
DWIDTH 11 0
BBX 15 13 -4 0
BITMAP
72C1BE40
7347EBD0
260B00E0
000E00B0
001D0074
001D0074
001D0074
001D0074
001D0074
000E00B0
000B00E0
0007EBD0
0001BE40
ENDCHAR
STARTCHAR uni2000
ENCODING 8192
SWIDTH 447 0
DWIDTH 8 0
BBX 1 1 0 0
BITMAP
00
ENDCHAR
STARTCHAR uni2001
ENCODING 8193
SWIDTH 876 0
DWIDTH 16 0
BBX 1 1 0 0
BITMAP
00
ENDCHAR
STARTCHAR uni2002
ENCODING 8194
SWIDTH 447 0
DWIDTH 8 0
BBX 1 1 0 0
BITMAP
00
ENDCHAR
STARTCHAR uni2003
ENCODING 8195
SWIDTH 876 0
DWIDTH 16 0
BBX 1 1 0 0
BITMAP
00
ENDCHAR
STARTCHAR uni2004
ENCODING 8196
SWIDTH 305 0
DWIDTH 6 0
BBX 1 1 0 0
BITMAP
00
ENDCHAR
STARTCHAR uni2005
ENCODING 8197
SWIDTH 233 0
DWIDTH 4 0
BBX 1 1 0 0
BITMAP
00
ENDCHAR
STARTCHAR uni2006
ENCODING 8198
SWIDTH 162 0
DWIDTH 3 0
BBX 1 1 0 0
BITMAP
00
ENDCHAR
STARTCHAR uni2007
ENCODING 8199
SWIDTH 491 0
DWIDTH 9 0
BBX 1 1 0 0
BITMAP
00
ENDCHAR
STARTCHAR uni2008
ENCODING 8200
SWIDTH 249 0
DWIDTH 4 0
BBX 1 1 0 0
BITMAP
00
ENDCHAR
STARTCHAR uni2009
ENCODING 8201
SWIDTH 190 0
DWIDTH 3 0
BBX 1 1 0 0
BITMAP
00
ENDCHAR
STARTCHAR uni200A
ENCODING 8202
SWIDTH 105 0
DWIDTH 2 0
BBX 1 1 0 0
BITMAP
00
ENDCHAR
STARTCHAR uni200B
ENCODING 8203
SWIDTH 0 0
DWIDTH 0 0
BBX 1 1 0 0
BITMAP
00
ENDCHAR
STARTCHAR uni2010
ENCODING 8208
SWIDTH 248 0
DWIDTH 4 0
BBX 4 2 0 4
BITMAP
BF
55
ENDCHAR
STARTCHAR uni2011
ENCODING 8209
SWIDTH 248 0
DWIDTH 4 0
BBX 4 2 0 4
BITMAP
BF
55
ENDCHAR
STARTCHAR endash
ENCODING 8211
SWIDTH 572 0
DWIDTH 10 0
BBX 8 2 1 5
BITMAP
BFFE
5555
ENDCHAR
STARTCHAR emdash
ENCODING 8212
SWIDTH 678 0
DWIDTH 12 0
BBX 11 2 1 5
BITMAP
BFFFF4
555550
ENDCHAR
STARTCHAR uni2015
ENCODING 8213
SWIDTH 678 0
DWIDTH 12 0
BBX 11 2 1 5
BITMAP
BFFFF4
555550
ENDCHAR
STARTCHAR underscoredbl
ENCODING 8215
SWIDTH 402 0
DWIDTH 7 0
BBX 7 4 0 -4
BITMAP
BFFC
5554
BFFC
5554
ENDCHAR
STARTCHAR quoteleft
ENCODING 8216
SWIDTH 194 0
DWIDTH 4 0
BBX 2 4 1 10
BITMAP
60
A0
D0
D0
ENDCHAR
STARTCHAR quoteright
ENCODING 8217
SWIDTH 194 0
DWIDTH 4 0
BBX 3 4 0 10
BITMAP
28
38
34
60
ENDCHAR
STARTCHAR quotesinglbase
ENCODING 8218
SWIDTH 194 0
DWIDTH 4 0
BBX 3 4 0 -2
BITMAP
24
38
34
60
ENDCHAR
STARTCHAR quotereversed
ENCODING 8219
SWIDTH 194 0
DWIDTH 4 0
BBX 3 4 0 10
BITMAP
74
74
38
18
ENDCHAR
STARTCHAR quotedblleft
ENCODING 8220
SWIDTH 333 0
DWIDTH 6 0
BBX 5 4 1 10
BITMAP
2240
A740
E700
EB00
ENDCHAR
STARTCHAR quotedblright
ENCODING 8221
SWIDTH 337 0
DWIDTH 6 0
BBX 6 4 0 10
BITMAP
2DD0
29D0
3AC0
6240
ENDCHAR
STARTCHAR quotedblbase
ENCODING 8222
SWIDTH 326 0
DWIDTH 6 0
BBX 5 5 0 -3
BITMAP
3AC0
3AC0
3AC0
7780
6200
ENDCHAR
STARTCHAR dagger
ENCODING 8224
SWIDTH 482 0
DWIDTH 9 0
BBX 8 13 0 0
BITMAP
01C0
01C0
01C0
7FFF
16D5
01C0
01C0
01C0
01C0
01C0
01C0
01C0
01C0
ENDCHAR
STARTCHAR daggerdbl
ENCODING 8225
SWIDTH 500 0
DWIDTH 9 0
BBX 8 17 0 -4
BITMAP
01D0
01D0
01D0
7FFF
16D5
01D0
01D0
01D0
01D0
01D0
01D0
16D5
7FFF
01D0
01D0
01D0
01D0
ENDCHAR
STARTCHAR bullet
ENCODING 8226
SWIDTH 336 0
DWIDTH 6 0
BBX 4 4 1 5
BITMAP
7D
BE
BE
69
ENDCHAR
STARTCHAR twodotenleader
ENCODING 8229
SWIDTH 420 0
DWIDTH 8 0
BBX 6 2 1 0
BITMAP
71D0
B1D0
ENDCHAR
STARTCHAR ellipsis
ENCODING 8230
SWIDTH 590 0
DWIDTH 11 0
BBX 9 2 1 0
BITMAP
71D340
B1D340
ENDCHAR
STARTCHAR uni2027
ENCODING 8231
SWIDTH 181 0
DWIDTH 3 0
BBX 2 2 1 4
BITMAP
D0
90
ENDCHAR
STARTCHAR perthousand
ENCODING 8240
SWIDTH 818 0
DWIDTH 15 0
BBX 14 13 0 0
BITMAP
1F400000
35C14000
60C30000
60CA0000
35CC0000
1F680000
00300000
00A2E780
00CA2DA0
02891830
03091830
060A2DA0
0002E780
ENDCHAR
STARTCHAR minute
ENCODING 8242
SWIDTH 174 0
DWIDTH 3 0
BBX 2 4 1 10
BITMAP
D0
D0
C0
C0
ENDCHAR
STARTCHAR second
ENCODING 8243
SWIDTH 319 0
DWIDTH 6 0
BBX 4 4 1 10
BITMAP
96
96
96
96
ENDCHAR
STARTCHAR guilsinglleft
ENCODING 8249
SWIDTH 271 0
DWIDTH 5 0
BBX 3 7 1 1
BITMAP
1C
28
70
E0
70
24
1C
ENDCHAR
STARTCHAR guilsinglright
ENCODING 8250
SWIDTH 271 0
DWIDTH 5 0
BBX 3 7 1 1
BITMAP
D0
70
38
1C
38
70
D0
ENDCHAR
STARTCHAR exclamdbl
ENCODING 8252
SWIDTH 491 0
DWIDTH 9 0
BBX 7 13 1 0
BITMAP
B034
B034
B034
B034
B034
B034
B034
B034
7034
1010
0000
6024
7034
ENDCHAR
STARTCHAR fraction
ENCODING 8260
SWIDTH 403 0
DWIDTH 7 0
BBX 7 11 0 1
BITMAP
0014
0034
0060
00D0
0180
0340
0600
0D00
1800
3400
6000
ENDCHAR
STARTCHAR uni2074
ENCODING 8308
SWIDTH 329 0
DWIDTH 6 0
BBX 6 7 0 6
BITMAP
0380
0B80
1E80
3680
7FD0
0280
0280
ENDCHAR
STARTCHAR uni207F
ENCODING 8319
SWIDTH 374 0
DWIDTH 7 0
BBX 5 7 1 6
BITMAP
DF40
F780
D280
D280
D280
D280
D280
ENDCHAR
STARTCHAR franc
ENCODING 8355
SWIDTH 480 0
DWIDTH 9 0
BBX 8 13 0 0
BITMAP
2FFF
2D55
2C00
2C00
2C00
2C00
2FFD
2D54
2C00
BFC0
7D40
2C00
2C00
ENDCHAR
STARTCHAR lira
ENCODING 8356
SWIDTH 510 0
DWIDTH 9 0
BBX 9 13 0 0
BITMAP
01F800
0B9F00
0E0740
0E0100
0E0000
7FF000
0E0000
7FF000
0E0000
0E0000
0D0000
2E5540
3FFF80
ENDCHAR
STARTCHAR uni20A6
ENCODING 8358
SWIDTH 691 0
DWIDTH 12 0
BBX 12 13 0 0
BITMAP
0F0074
0F8074
0FC074
0EE074
BFFFFF
5E6D79
0E1C74
BFFFFF
5E5BB9
0E03B4
0E01F4
0E00F4
0E0074
ENDCHAR
STARTCHAR peseta
ENCODING 8359
SWIDTH 709 0
DWIDTH 13 0
BBX 11 13 1 0
BITMAP
BF9000
B5B1C0
B075C0
B03FF8
B03AD0
B035C0
B0B1C0
BFD1C0
B501C0
B001C0
B001D0
B001E4
B000B8
ENDCHAR
STARTCHAR uni20A8
ENCODING 8360
SWIDTH 911 0
DWIDTH 16 0
BBX 15 13 1 0
BITMAP
BFE40000
B57D0000
B00E0000
B00E1F90
B00E79B0
B02DB074
BFF87400
B5B02E40
B07406E0
B0380074
B01DA034
B00E79B4
B00B1F90
ENDCHAR
STARTCHAR uni20A9
ENCODING 8361
SWIDTH 634 0
DWIDTH 11 0
BBX 11 13 0 0
BITMAP
743838
347838
387874
28BC74
BFFFFC
6DEEB4
1DD9A0
BFFFFC
5EDBE4
0B87C0
0B87C0
078380
074380
ENDCHAR
STARTCHAR uni20AA
ENCODING 8362
SWIDTH 669 0
DWIDTH 12 0
BBX 10 10 1 0
BITMAP
BFE0B0
A578B0
A02CB0
A3ACB0
A3ACB0
A3ACB0
A3ACB0
A380A0
A396D0
A3FF80
ENDCHAR
STARTCHAR dong
ENCODING 8363
SWIDTH 510 0
DWIDTH 9 0
BBX 8 17 1 -3
BITMAP
0038
0038
02FF
017D
2F78
B9B8
E038
D038
D038
D038
D038
E038
79B8
2F68
0000
BFFD
5554
ENDCHAR
STARTCHAR Euro
ENCODING 8364
SWIDTH 493 0
DWIDTH 9 0
BBX 7 13 1 0
BITMAP
02F8
0B94
1D00
2C00
2C00
FFE0
2800
FFE0
2C00
2C00
1D00
0B94
02F8
ENDCHAR
STARTCHAR uni20B1
ENCODING 8369
SWIDTH 648 0
DWIDTH 12 0
BBX 12 13 0 0
BITMAP
0FFE40
0E57C0
BFFFFD
5E55E4
BFFFFD
5E57D4
0FFF80
0E5400
0D0000
0D0000
0D0000
0D0000
0D0000
ENDCHAR
STARTCHAR uni20B9
ENCODING 8377
SWIDTH 462 0
DWIDTH 8 0
BBX 8 13 0 0
BITMAP
7FFE
56F5
0074
7FFE
55B9
01F0
7FD0
7D00
2D00
0F40
0780
02D0
00F0
ENDCHAR
STARTCHAR uni20BA
ENCODING 8378
SWIDTH 500 0
DWIDTH 9 0
BBX 9 13 0 0
BITMAP
0B0000
0B6000
0BE000
6F4000
AF6000
0BE000
6F4740
AF0700
0B0B00
0B0A00
0B1D00
0BB800
0BE000
ENDCHAR
STARTCHAR uni20BC
ENCODING 8380
SWIDTH 575 0
DWIDTH 10 0
BBX 10 10 0 0
BITMAP
00B000
00B000
02F900
0BFB40
1DB380
28B1C0
38B0D0
34B0D0
74B0E0
74B0E0
ENDCHAR
STARTCHAR uni20BD
ENCODING 8381
SWIDTH 583 0
DWIDTH 11 0
BBX 10 13 0 0
BITMAP
0FFE40
0E57D0
0E00E0
0E00E0
0E00E0
0E02D0
BFFF80
5E5400
0E0000
BFF000
5E5000
0E0000
0E0000
ENDCHAR
STARTCHAR uni2105
ENCODING 8453
SWIDTH 640 0
DWIDTH 12 0
BBX 10 13 1 0
BITMAP
2D0000
A70500
D10D00
D11800
A73400
2D6000
00D000
018B80
0368D0
0634A0
0D34A0
0828D0
000B80
ENDCHAR
STARTCHAR uni2113
ENCODING 8467
SWIDTH 422 0
DWIDTH 8 0
BBX 6 14 1 0
BITMAP
0B80
1ED0
1CA0
2CA0
2CE0
2CD0
2DC0
2F80
2F00
FC00
6C00
1C00
0E40
0640
ENDCHAR
STARTCHAR uni2116
ENCODING 8470
SWIDTH 886 0
DWIDTH 16 0
BBX 14 13 1 0
BITMAP
B40E1B80
B80E39E0
BC0E3470
BD0E7070
B70E3470
B34E39E0
B28E1B80
B1CE0000
B0DE3FE0
B07E1550
B03E0000
B02E0000
B01E0000
ENDCHAR
STARTCHAR trademark
ENCODING 8482
SWIDTH 547 0
DWIDTH 10 0
BBX 7 5 1 8
BITMAP
FA4C
228C
2298
2268
2228
ENDCHAR
STARTCHAR Omega
ENCODING 8486
SWIDTH 581 0
DWIDTH 10 0
BBX 9 13 1 0
BITMAP
0BE000
2E7C00
740E00
B00B00
E00740
E00740
E00740
E00740
A00700
B00A00
341D00
6D7D00
FE7F40
ENDCHAR
STARTCHAR estimated
ENCODING 8494
SWIDTH 636 0
DWIDTH 11 0
BBX 10 10 1 0
BITMAP
02F800
1D0740
380280
7802C0
BFFFD0
B80000
780000
380000
1D0640
06F900
ENDCHAR
STARTCHAR oneeighth
ENCODING 8539
SWIDTH 666 0
DWIDTH 12 0
BBX 11 13 0 0
BITMAP
1A0000
7E0200
0A0700
0A0900
0A1C00
0A2400
0A72F4
009768
01C368
0242F4
07076C
05076C
0002F4
ENDCHAR
STARTCHAR threeeighths
ENCODING 8540
SWIDTH 736 0
DWIDTH 13 0
BBX 11 13 1 0
BITMAP
7E0000
974180
1B0240
1A0700
034900
D75C00
7E25F4
00636C
00935C
0182F4
02435C
02075C
0002F4
ENDCHAR
STARTCHAR fiveeighths
ENCODING 8541
SWIDTH 736 0
DWIDTH 13 0
BBX 11 13 1 0
BITMAP
BF0000
900240
FE0300
570A00
434C00
D72800
7D31F4
00A36C
00C36C
0282F4
03036C
06075C
0002F4
ENDCHAR
STARTCHAR seveneighths
ENCODING 8542
SWIDTH 692 0
DWIDTH 12 0
BBX 12 13 0 0
BITMAP
7FD000
01C180
028240
034700
070900
0D1C00
1C24B8
00729D
00928D
0180F8
02429D
02029D
0001F8
ENDCHAR
STARTCHAR partialdiff
ENCODING 8706
SWIDTH 497 0
DWIDTH 9 0
BBX 7 13 1 0
BITMAP
2F80
66E0
0074
0038
1FAC
79BC
B02C
E01C
E02C
E02C
B038
79B0
1B90
ENDCHAR
STARTCHAR Delta
ENCODING 8710
SWIDTH 614 0
DWIDTH 11 0
BBX 11 13 0 0
BITMAP
007400
00B800
00FC00
01DD00
02CA00
038700
074340
0B0380
0E02C0
1D01D0
2C00E0
3955B0
7FFFF4
ENDCHAR
STARTCHAR product
ENCODING 8719
SWIDTH 614 0
DWIDTH 11 0
BBX 9 15 1 -2
BITMAP
BFFF80
B55780
B00380
B00380
B00380
B00380
B00380
B00380
B00380
B00380
B00380
B00380
B00380
B00380
B00380
ENDCHAR
STARTCHAR summation
ENCODING 8721
SWIDTH 513 0
DWIDTH 9 0
BBX 9 15 0 -2
BITMAP
7FFF40
395500
1D0000
0B0000
038000
01D000
00B400
003800
007400
01E000
038000
0B0000
1D0000
395540
7FFFC0
ENDCHAR
STARTCHAR minus
ENCODING 8722
SWIDTH 499 0
DWIDTH 9 0
BBX 7 2 1 5
BITMAP
BFF8
5554
ENDCHAR
STARTCHAR radical
ENCODING 8730
SWIDTH 536 0
DWIDTH 10 0
BBX 9 13 0 0
BITMAP
0002C0
000380
000340
000700
000A00
000D00
7D1C00
1E2800
0B3400
07B400
03F000
02E000
01D000
ENDCHAR
STARTCHAR infinity
ENCODING 8734
SWIDTH 874 0
DWIDTH 16 0
BBX 14 10 1 0
BITMAP
1B807E00
79B1E780
B03B81D0
E01F00E0
D00E00A0
D00E00A0
E01F00E0
B03B81D0
79B1E780
1B807E00
ENDCHAR
STARTCHAR integral
ENCODING 8747
SWIDTH 235 0
DWIDTH 4 0
BBX 6 18 -1 -4
BITMAP
01F0
0790
0700
0B00
0B00
0B00
0B00
0B00
0B00
0B00
0B00
0B00
0B00
0B00
0B00
0B00
1E00
7800
ENDCHAR
STARTCHAR approxequal
ENCODING 8776
SWIDTH 492 0
DWIDTH 9 0
BBX 7 7 1 2
BITMAP
BD04
EBF8
0050
0000
BD04
EBF8
0050
ENDCHAR
STARTCHAR notequal
ENCODING 8800
SWIDTH 479 0
DWIDTH 9 0
BBX 7 10 1 1
BITMAP
0060
0090
BFF4
5794
0300
0900
BFF4
6954
3000
1000
ENDCHAR
STARTCHAR lessequal
ENCODING 8804
SWIDTH 445 0
DWIDTH 8 0
BBX 7 10 0 0
BITMAP
0018
01F8
1F80
7800
2E40
02F4
0028
0000
1554
7FF8
ENDCHAR
STARTCHAR greaterequal
ENCODING 8805
SWIDTH 460 0
DWIDTH 8 0
BBX 7 10 1 0
BITMAP
9000
BD00
0BD0
00B8
06E0
7E00
A000
0000
5550
BFF4
ENDCHAR
STARTCHAR lozenge
ENCODING 9674
SWIDTH 442 0
DWIDTH 8 0
BBX 8 13 0 0
BITMAP
0280
07D0
0AA0
1D70
2C38
341C
701D
341C
2C38
1D70
0AA0
07D0
0280
ENDCHAR
STARTCHAR uniEE01
ENCODING 60929
SWIDTH 271 0
DWIDTH 5 0
BBX 3 9 1 2
BITMAP
74
74
00
00
00
00
00
74
74
ENDCHAR
STARTCHAR uniEE02
ENCODING 60930
SWIDTH 298 0
DWIDTH 5 0
BBX 4 4 1 6
BITMAP
CA
CA
CA
CA
ENDCHAR
STARTCHAR uniF6C3
ENCODING 63171
SWIDTH 235 0
DWIDTH 4 0
BBX 2 4 1 -2
BITMAP
A0
A0
D0
80
ENDCHAR
STARTCHAR uniFB01
ENCODING 64257
SWIDTH 489 0
DWIDTH 9 0
BBX 8 14 0 0
BITMAP
06F4
0FA4
1D00
1C00
BF8D
2D4D
1C0D
1C0D
1C0D
1C0D
1C0D
1C0D
1C0D
1C0D
ENDCHAR
STARTCHAR uniFB02
ENCODING 64258
SWIDTH 503 0
DWIDTH 9 0
BBX 8 14 0 0
BITMAP
02F9
0B5E
0E0A
0D0A
7FCA
1E4A
0D0A
0D0A
0D0A
0D0A
0D0A
0D0A
0D0A
0D0A
ENDCHAR
STARTCHAR uniFB03
ENCODING 64259
SWIDTH 744 0
DWIDTH 13 0
BBX 12 14 0 0
BITMAP
02D1F8
0B57A8
0E0B00
0D0A00
7FFFD7
1E5E47
0D0A07
0D0A07
0D0A07
0D0A07
0D0A07
0D0A07
0D0A07
0D0A07
ENDCHAR
STARTCHAR uniFB04
ENCODING 64260
SWIDTH 744 0
DWIDTH 13 0
BBX 12 14 0 0
BITMAP
02D2FA
0B579B
0E0A07
0D0A07
7FFFD7
1E5E47
0D0A07
0D0A07
0D0A07
0D0A07
0D0A07
0D0A07
0D0A07
0D0A07
ENDCHAR
STARTCHAR uniFEFF
ENCODING 65279
SWIDTH 0 0
DWIDTH 0 0
BBX 1 1 0 0
BITMAP
00
ENDCHAR
STARTCHAR uniFFFC
ENCODING 65532
SWIDTH 1024 0
DWIDTH 18 0
BBX 18 17 0 -4
BITMAP
7E7CF9F3F0
6000000030
6000000030
0000000000
6000000030
6000000030
01F8F80600
6249890630
6209FC0630
0249899600
61F8FD7D30
6000000030
6000000030
0000000000
6000000030
6000000030
7E7CF9F3F0
ENDCHAR
STARTCHAR uniFFFD
ENCODING 65533
SWIDTH 1025 0
DWIDTH 18 0
BBX 17 17 1 -3
BITMAP
0001800000
0007E00000
001FF80000
007FFE0000
01FFFF8000
07F41BE000
1FE183F800
7FFFC3FE00
FFFF4BFF40
7FFD3FFE00
1FFFFFF800
07FD3FE000
01FD3F8000
007FFE0000
001FF80000
0007E00000
0001800000
ENDCHAR
STARTCHAR .notdef
ENCODING -1
SWIDTH 392 0
DWIDTH 7 0
BBX 5 13 1 0
BITMAP
FFC0
8080
5140
5140
5140
4840
4840
4840
5140
5140
5140
8080
FFC0
ENDCHAR
STARTCHAR glyph369
ENCODING -1
SWIDTH 364 0
DWIDTH 7 0
BBX 5 3 1 10
BITMAP
D380
A700
6900
ENDCHAR
STARTCHAR uni2009.locl
ENCODING -1
SWIDTH 124 0
DWIDTH 2 0
BBX 1 1 0 0
BITMAP
00
ENDCHAR
STARTCHAR f_f.dlig
ENCODING -1
SWIDTH 546 0
DWIDTH 10 0
BBX 10 14 0 0
BITMAP
02D2E0
0B5B50
0E0E00
0D0E00
7FFFD0
1E5E40
0D0E00
0D0E00
0D0E00
0D0E00
0D0E00
0D0E00
0D0E00
0D0E00
ENDCHAR
STARTCHAR longs_t.dlig
ENCODING -1
SWIDTH 544 0
DWIDTH 10 0
BBX 9 14 0 0
BITMAP
06E800
0F5E00
0D0E00
0D0E00
7D7FC0
1D1E40
0D0E00
0D0E00
0D0E00
0D0E00
0D0E00
0D0E00
0D0B40
0907C0
ENDCHAR
STARTCHAR s_t.dlig
ENCODING -1
SWIDTH 710 0
DWIDTH 13 0
BBX 11 14 1 0
BITMAP
002F40
00B6D0
00D0E0
00E0E0
2FE7FC
B5F1E4
A060E0
B400E0
2F40E0
06E0E0
00B4E0
E074E0
B5B0B4
2F907C
ENDCHAR
STARTCHAR two.dnom
ENCODING -1
SWIDTH 329 0
DWIDTH 6 0
BBX 6 7 0 0
BITMAP
1F40
76C0
11C0
0380
0A00
2800
7FD0
ENDCHAR
STARTCHAR one.dnom
ENCODING -1
SWIDTH 329 0
DWIDTH 6 0
BBX 3 7 1 0
BITMAP
28
FC
1C
1C
1C
1C
1C
ENDCHAR
STARTCHAR zero.dnom
ENCODING -1
SWIDTH 329 0
DWIDTH 6 0
BBX 6 7 0 0
BITMAP
1F40
36C0
70C0
70D0
70C0
36C0
1F40
ENDCHAR
STARTCHAR nine.c2sc
ENCODING -1
SWIDTH 447 0
DWIDTH 8 0
BBX 6 10 1 0
BITMAP
2F80
B6D0
E0B0
D0B0
E0B0
B5F0
2EB0
00E0
1BC0
2E00
ENDCHAR
STARTCHAR eight.c2sc
ENCODING -1
SWIDTH 447 0
DWIDTH 8 0
BBX 6 10 1 0
BITMAP
2F80
B5E0
E0B0
B0E0
3FC0
B5E0
E0B0
E070
B5E0
2F80
ENDCHAR
STARTCHAR seven.c2sc
ENCODING -1
SWIDTH 447 0
DWIDTH 8 0
BBX 8 10 0 0
BITMAP
7FFD
156C
0028
0074
00A0
01D0
02C0
0380
0B00
0E00
ENDCHAR
STARTCHAR six.c2sc
ENCODING -1
SWIDTH 447 0
DWIDTH 8 0
BBX 7 10 1 0
BITMAP
0BC0
3E40
B000
AB80
F9E0
E070
E074
B070
79E0
2F80
ENDCHAR
STARTCHAR five.c2sc
ENCODING -1
SWIDTH 447 0
DWIDTH 8 0
BBX 7 10 1 0
BITMAP
7FF0
7550
7000
BB80
75F0
0074
0074
A074
79E0
1F80
ENDCHAR
STARTCHAR four.c2sc
ENCODING -1
SWIDTH 447 0
DWIDTH 8 0
BBX 8 10 0 0
BITMAP
00B4
01F4
03B4
0B74
1D74
3474
7FFE
1579
0074
0074
ENDCHAR
STARTCHAR three.c2sc
ENCODING -1
SWIDTH 447 0
DWIDTH 8 0
BBX 6 10 1 0
BITMAP
2F80
F5E0
90B0
01E0
1FC0
05E0
00B0
90B0
F5E0
6F80
ENDCHAR
STARTCHAR two.c2sc
ENCODING -1
SWIDTH 447 0
DWIDTH 8 0
BBX 7 10 1 0
BITMAP
2F80
B5E0
D0B0
40B0
01E0
0380
0F00
2C00
B550
FFF4
ENDCHAR
STARTCHAR one.c2sc
ENCODING -1
SWIDTH 447 0
DWIDTH 8 0
BBX 5 10 1 0
BITMAP
1B40
BF40
4740
0740
0740
0740
0740
0740
0740
0740
ENDCHAR
STARTCHAR zero.c2sc
ENCODING -1
SWIDTH 447 0
DWIDTH 8 0
BBX 6 10 1 0
BITMAP
2F80
79E0
E0B0
D070
D070
D070
D070
E0B0
79E0
2F80
ENDCHAR
STARTCHAR Z.c2sc
ENCODING -1
SWIDTH 454 0
DWIDTH 8 0
BBX 8 10 0 0
BITMAP
7FFD
156C
0074
00A0
01D0
0380
0B00
1D00
3955
7FFE
ENDCHAR
STARTCHAR Y.c2sc
ENCODING -1
SWIDTH 458 0
DWIDTH 8 0
BBX 8 10 0 0
BITMAP
B40E
381D
2C38
0E74
0BA0
03D0
02C0
02C0
02C0
02C0
ENDCHAR
STARTCHAR X.c2sc
ENCODING -1
SWIDTH 478 0
DWIDTH 9 0
BBX 8 10 0 0
BITMAP
780E
2C2D
0E38
07B0
03D0
03E0
0BB0
0E38
2C1D
780F
ENDCHAR
STARTCHAR W.c2sc
ENCODING -1
SWIDTH 655 0
DWIDTH 12 0
BBX 12 10 0 0
BITMAP
70281D
343C1C
387D2C
28A928
2C9A34
1CD774
0DC3B0
0F82E0
0B42E0
0741D0
ENDCHAR
STARTCHAR V.c2sc
ENCODING -1
SWIDTH 487 0
DWIDTH 9 0
BBX 9 10 0 0
BITMAP
B00740
740B00
380E00
2C1D00
1D2C00
0E3800
0B3400
07B000
03E000
01D000
ENDCHAR
STARTCHAR U.c2sc
ENCODING -1
SWIDTH 488 0
DWIDTH 9 0
BBX 7 10 1 0
BITMAP
E02C
E02C
E02C
E02C
E02C
E02C
E02C
E038
79B4
1F90
ENDCHAR
STARTCHAR T.c2sc
ENCODING -1
SWIDTH 456 0
DWIDTH 8 0
BBX 8 10 0 0
BITMAP
BFFE
56D5
02C0
02C0
02C0
02C0
02C0
02C0
02C0
02C0
ENDCHAR
STARTCHAR S.c2sc
ENCODING -1
SWIDTH 453 0
DWIDTH 8 0
BBX 8 10 0 0
BITMAP
0BE4
2D6C
381D
3C00
1F90
01B8
101D
740D
2D6D
0BE4
ENDCHAR
STARTCHAR R.c2sc
ENCODING -1
SWIDTH 465 0
DWIDTH 8 0
BBX 7 10 1 0
BITMAP
FF90
E5B4
E038
E038
E074
FFE0
E6D0
E0E0
E074
E038
ENDCHAR
STARTCHAR Q.c2sc
ENCODING -1
SWIDTH 519 0
DWIDTH 9 0
BBX 9 12 0 -2
BITMAP
06F400
1E6E00
2C0B00
340740
740340
740340
340740
2C0B00
1E6E00
06FD00
000B40
000100
ENDCHAR
STARTCHAR P.c2sc
ENCODING -1
SWIDTH 481 0
DWIDTH 9 0
BBX 7 10 1 0
BITMAP
FFE0
E5B8
E02C
E02C
E078
FFF4
E540
E000
E000
E000
ENDCHAR
STARTCHAR O.c2sc
ENCODING -1
SWIDTH 519 0
DWIDTH 9 0
BBX 8 10 1 0
BITMAP
1BD0
79B8
B02C
E01D
D00D
D00D
E01D
B02C
79B8
1BE0
ENDCHAR
STARTCHAR N.c2sc
ENCODING -1
SWIDTH 533 0
DWIDTH 10 0
BBX 8 10 1 0
BITMAP
F00D
F80D
FC0D
EA0D
E74D
E28D
E0DD
E0BD
E03D
E01D
ENDCHAR
STARTCHAR M.c2sc
ENCODING -1
SWIDTH 652 0
DWIDTH 12 0
BBX 10 10 1 0
BITMAP
F402E0
F803E0
FC07E0
ED0AE0
EA0DE0
E71CE0
E368E0
E2B4E0
E1F0E0
E0E0E0
ENDCHAR
STARTCHAR L.c2sc
ENCODING -1
SWIDTH 411 0
DWIDTH 7 0
BBX 6 10 1 0
BITMAP
E000
E000
E000
E000
E000
E000
E000
E000
E550
FFF0
ENDCHAR
STARTCHAR K.c2sc
ENCODING -1
SWIDTH 473 0
DWIDTH 9 0
BBX 7 10 1 0
BITMAP
E038
E0B0
E2D0
E740
FF00
FF40
F2C0
E0E0
E074
E02C
ENDCHAR
STARTCHAR J.c2sc
ENCODING -1
SWIDTH 419 0
DWIDTH 8 0
BBX 7 10 0 0
BITMAP
0034
0034
0034
0034
0034
0034
0034
7074
79B0
1B90
ENDCHAR
STARTCHAR I.c2sc
ENCODING -1
SWIDTH 221 0
DWIDTH 4 0
BBX 2 10 1 0
BITMAP
A0
A0
A0
A0
A0
A0
A0
A0
A0
A0
ENDCHAR
STARTCHAR H.c2sc
ENCODING -1
SWIDTH 533 0
DWIDTH 10 0
BBX 8 10 1 0
BITMAP
E00D
E00D
E00D
E00D
FFFD
E55D
E00D
E00D
E00D
E00D
ENDCHAR
STARTCHAR G.c2sc
ENCODING -1
SWIDTH 509 0
DWIDTH 9 0
BBX 7 10 1 0
BITMAP
1BE0
79B8
B02C
E000
D000
D1FC
E06C
B01C
796C
1BE4
ENDCHAR
STARTCHAR F.c2sc
ENCODING -1
SWIDTH 415 0
DWIDTH 7 0
BBX 6 10 1 0
BITMAP
FFF0
E550
E000
E000
FFD0
E540
E000
E000
E000
E000
ENDCHAR
STARTCHAR dollar.c2sc
ENCODING -1
SWIDTH 453 0
DWIDTH 8 0
BBX 8 14 0 -2
BITMAP
0180
01C0
0BE4
2D6C
380D
3C00
1F90
01B8
101D
740D
2D6D
0BE4
01C0
01C0
ENDCHAR
STARTCHAR sterling.c2sc
ENCODING -1
SWIDTH 467 0
DWIDTH 8 0
BBX 8 10 0 0
BITMAP
06E4
0F7C
1D1D
1D05
1D00
7FF0
1D00
1C00
2D55
3FFE
ENDCHAR
STARTCHAR yen.c2sc
ENCODING -1
SWIDTH 400 0
DWIDTH 7 0
BBX 7 10 0 0
BITMAP
B038
3474
28B0
1DD0
0BC0
3FF4
0740
3FF4
0740
0740
ENDCHAR
STARTCHAR Gamma.c2sc
ENCODING -1
SWIDTH 405 0
DWIDTH 7 0
BBX 6 10 1 0
BITMAP
FFF0
E550
E000
E000
E000
E000
E000
E000
E000
E000
ENDCHAR
STARTCHAR Delta.c2sc
ENCODING -1
SWIDTH 487 0
DWIDTH 9 0
BBX 9 10 0 0
BITMAP
01D000
03E000
07B000
0B3400
0E2800
1D2C00
2C1D00
380E00
795B00
BFFF40
ENDCHAR
STARTCHAR Theta.c2sc
ENCODING -1
SWIDTH 519 0
DWIDTH 9 0
BBX 8 10 1 0
BITMAP
1BD0
79B8
B02C
E01D
DFDD
D55D
E01D
B02C
79B8
1BE0
ENDCHAR
STARTCHAR Lambda.c2sc
ENCODING -1
SWIDTH 487 0
DWIDTH 9 0
BBX 9 10 0 0
BITMAP
01D000
03E000
07B000
0B3400
0E3800
1D2C00
2C1D00
380E00
740B00
B00740
ENDCHAR
STARTCHAR Xi.c2sc
ENCODING -1
SWIDTH 389 0
DWIDTH 7 0
BBX 7 10 0 0
BITMAP
7FF4
1550
0000
0000
3FF0
1550
0000
0000
1550
7FF4
ENDCHAR
STARTCHAR Pi.c2sc
ENCODING -1
SWIDTH 525 0
DWIDTH 9 0
BBX 8 10 1 0
BITMAP
FFFD
E56D
E01D
E01D
E01D
E01D
E01D
E01D
E01D
E01D
ENDCHAR
STARTCHAR Sigma.c2sc
ENCODING -1
SWIDTH 435 0
DWIDTH 8 0
BBX 8 10 0 0
BITMAP
7FFC
7954
2D00
0F00
0780
0780
0F00
2D00
7954
7FFD
ENDCHAR
STARTCHAR Phi.c2sc
ENCODING -1
SWIDTH 587 0
DWIDTH 11 0
BBX 9 10 1 0
BITMAP
01C000
1BF800
7AEE00
A1C740
D1C380
D1C380
E1C380
76DB00
2FFD00
02D000
ENDCHAR
STARTCHAR Psi.c2sc
ENCODING -1
SWIDTH 560 0
DWIDTH 10 0
BBX 9 10 1 0
BITMAP
D28740
D28740
D28740
E28700
E28B00
769E00
2FF800
03C000
028000
028000
ENDCHAR
STARTCHAR Omega.c2sc
ENCODING -1
SWIDTH 540 0
DWIDTH 10 0
BBX 8 10 1 0
BITMAP
1BE0
3DB8
B01D
E00E
E00A
E00E
A00E
701D
7D79
FDBE
ENDCHAR
STARTCHAR uni0402.c2sc
ENCODING -1
SWIDTH 596 0
DWIDTH 11 0
BBX 10 10 0 0
BITMAP
BFFD00
579400
038000
03EF80
03E6E0
0380B0
0380B0
0380B0
0382E0
038780
ENDCHAR
STARTCHAR uni0404.c2sc
ENCODING -1
SWIDTH 490 0
DWIDTH 9 0
BBX 7 10 1 0
BITMAP
1BD0
79B8
A02C
D004
FF80
E540
E004
B02C
79B8
1FD0
ENDCHAR
STARTCHAR uni0409.c2sc
ENCODING -1
SWIDTH 782 0
DWIDTH 14 0
BBX 14 10 0 0
BITMAP
0BFF4000
0B5B4000
0A074000
0A074000
0E07FE40
0E0757C0
0E0741D0
0D0741D0
6C0757C0
B407FE40
ENDCHAR
STARTCHAR uni040A.c2sc
ENCODING -1
SWIDTH 788 0
DWIDTH 14 0
BBX 13 10 1 0
BITMAP
E01D0000
E01D0000
E01D0000
E01D0000
FFFFF900
E55E5B00
E01D0340
E01D0340
E01E5B00
E01FF900
ENDCHAR
STARTCHAR uni040B.c2sc
ENCODING -1
SWIDTH 596 0
DWIDTH 11 0
BBX 10 10 0 0
BITMAP
BFFD00
579400
038000
03FF80
03E6D0
0380B0
0380B0
0380B0
0380B0
0380B0
ENDCHAR
STARTCHAR uni040F.c2sc
ENCODING -1
SWIDTH 524 0
DWIDTH 9 0
BBX 8 13 1 -3
BITMAP
E01D
E01D
E01D
E01D
E01D
E01D
E01D
E01D
E56D
FFFD
0380
0380
0380
ENDCHAR
STARTCHAR uni0411.c2sc
ENCODING -1
SWIDTH 479 0
DWIDTH 9 0
BBX 7 10 1 0
BITMAP
FFF0
E550
E000
E000
FFD0
E5B4
E028
E028
E5B4
FFD0
ENDCHAR
STARTCHAR uni0414.c2sc
ENCODING -1
SWIDTH 563 0
DWIDTH 10 0
BBX 10 13 0 -3
BITMAP
07FF80
075780
070380
070380
0B0380
0B0380
0A0380
0D0380
2D5790
7FFFE0
7000E0
7000E0
7000E0
ENDCHAR
STARTCHAR uni0416.c2sc
ENCODING -1
SWIDTH 651 0
DWIDTH 12 0
BBX 11 10 0 0
BITMAP
383838
2D38B4
0E38E0
077AC0
03FF80
07BAC0
0F39E0
1D38B0
3C3878
78383C
ENDCHAR
STARTCHAR uni0417.c2sc
ENCODING -1
SWIDTH 466 0
DWIDTH 8 0
BBX 8 10 0 0
BITMAP
0BE4
3D7C
241D
002C
03F4
0168
001D
641D
3D7C
1BE4
ENDCHAR
STARTCHAR uni0418.c2sc
ENCODING -1
SWIDTH 537 0
DWIDTH 10 0
BBX 8 10 1 0
BITMAP
E01E
E03E
E07E
E0EE
E2CE
E74E
EA0E
FD0E
F80E
F00E
ENDCHAR
STARTCHAR uni041A.c2sc
ENCODING -1
SWIDTH 473 0
DWIDTH 9 0
BBX 7 10 1 0
BITMAP
E078
E0E0
E2C0
E740
FE00
EB40
E380
E1D0
E0B0
E078
ENDCHAR
STARTCHAR uni041B.c2sc
ENCODING -1
SWIDTH 521 0
DWIDTH 9 0
BBX 9 10 0 0
BITMAP
0BFF40
0B5B40
0A0740
0A0740
0E0740
0E0740
0E0740
0D0740
6C0740
B40740
ENDCHAR
STARTCHAR uni0423.c2sc
ENCODING -1
SWIDTH 454 0
DWIDTH 8 0
BBX 8 10 0 0
BITMAP
740E
381D
2C2C
1D38
0E70
0BA0
03D0
02C0
0780
1E00
ENDCHAR
STARTCHAR uni0426.c2sc
ENCODING -1
SWIDTH 564 0
DWIDTH 10 0
BBX 9 13 1 -3
BITMAP
E01D00
E01D00
E01D00
E01D00
E01D00
E01D00
E01D00
E01D00
E56E40
FFFF80
000380
000380
000380
ENDCHAR
STARTCHAR uni0427.c2sc
ENCODING -1
SWIDTH 487 0
DWIDTH 9 0
BBX 8 10 0 0
BITMAP
700E
700E
700E
740E
381E
1FFE
014E
000E
000E
000E
ENDCHAR
STARTCHAR uni0428.c2sc
ENCODING -1
SWIDTH 691 0
DWIDTH 12 0
BBX 11 10 1 0
BITMAP
E0B074
E0B074
E0B074
E0B074
E0B074
E0B074
E0B074
E0B074
E5B5B4
FFFFF4
ENDCHAR
STARTCHAR uni0429.c2sc
ENCODING -1
SWIDTH 731 0
DWIDTH 13 0
BBX 12 13 1 -3
BITMAP
E0B074
E0B074
E0B074
E0B074
E0B074
E0B074
E0B074
E0B074
E5B5B9
FFFFFE
00000E
00000E
00000E
ENDCHAR
STARTCHAR uni042A.c2sc
ENCODING -1
SWIDTH 559 0
DWIDTH 10 0
BBX 10 10 0 0
BITMAP
BF4000
5B4000
074000
074000
07FE40
0757C0
0741D0
0741D0
0757C0
07FE40
ENDCHAR
STARTCHAR uni042B.c2sc
ENCODING -1
SWIDTH 658 0
DWIDTH 12 0
BBX 10 10 1 0
BITMAP
E000E0
E000E0
E000E0
E000E0
FFD0E0
E5B4E0
E028E0
E028E0
E5B4E0
FFD0E0
ENDCHAR
STARTCHAR uni042C.c2sc
ENCODING -1
SWIDTH 475 0
DWIDTH 9 0
BBX 7 10 1 0
BITMAP
E000
E000
E000
E000
FFD0
E5B4
E028
E028
E5B4
FFD0
ENDCHAR
STARTCHAR uni042D.c2sc
ENCODING -1
SWIDTH 491 0
DWIDTH 9 0
BBX 7 10 1 0
BITMAP
2F90
B5B0
D038
402C
0BFC
056C
402C
D038
B5B0
2F90
ENDCHAR
STARTCHAR uni042E.c2sc
ENCODING -1
SWIDTH 705 0
DWIDTH 13 0
BBX 11 10 1 0
BITMAP
E02F80
E0F5F0
E1D074
E2C038
FF8028
E68028
E2C038
E1D074
E0B5F0
E02F80
ENDCHAR
STARTCHAR uni042F.c2sc
ENCODING -1
SWIDTH 499 0
DWIDTH 9 0
BBX 7 10 1 0
BITMAP
1FF8
7968
B028
A028
B428
2FF8
1D68
3828
7428
E028
ENDCHAR
STARTCHAR uni0492.c2sc
ENCODING -1
SWIDTH 444 0
DWIDTH 8 0
BBX 8 10 0 0
BITMAP
0FFE
0E55
0D00
0D00
BFC0
5E40
0D00
0D00
0D00
0D00
ENDCHAR
STARTCHAR uni0496.c2sc
ENCODING -1
SWIDTH 676 0
DWIDTH 12 0
BBX 12 13 0 -3
BITMAP
383838
2D38B4
0E38E0
077AC0
03FF80
07BAC0
0F39E0
1D38B0
3C3879
78383E
00000A
00000A
00000A
ENDCHAR
STARTCHAR uni049A.c2sc
ENCODING -1
SWIDTH 492 0
DWIDTH 9 0
BBX 8 13 1 -3
BITMAP
E078
E0E0
E2C0
E740
FE00
EB40
E380
E1D0
E0B4
E07D
000D
000D
000D
ENDCHAR
STARTCHAR uni049C.c2sc
ENCODING -1
SWIDTH 562 0
DWIDTH 10 0
BBX 9 10 1 0
BITMAP
E00B40
E01D00
E93800
E9B000
FFD000
EAE000
E97400
E02C00
E01E00
E00B40
ENDCHAR
STARTCHAR uni04A0.c2sc
ENCODING -1
SWIDTH 571 0
DWIDTH 10 0
BBX 10 10 0 0
BITMAP
BF42D0
574780
034E00
036C00
03F400
03AC00
035E00
034B40
0343C0
0341E0
ENDCHAR
STARTCHAR uni04A8.c2sc
ENCODING -1
SWIDTH 625 0
DWIDTH 11 0
BBX 10 10 1 0
BITMAP
1D7E00
79E780
A1C2C0
E2C1C0
D2C1C0
D2C2C0
E1E380
B0BF00
3EBFD0
0BE2D0
ENDCHAR
STARTCHAR uni04B0.c2sc
ENCODING -1
SWIDTH 480 0
DWIDTH 9 0
BBX 8 10 0 0
BITMAP
B40E
381D
2C38
0E74
0BA0
03D0
1FF4
07D0
02C0
02C0
ENDCHAR
STARTCHAR uni04B2.c2sc
ENCODING -1
SWIDTH 514 0
DWIDTH 9 0
BBX 9 13 0 -3
BITMAP
780E00
2C2D00
0E3800
07B000
03D000
03E000
0BB000
0E3800
2C1D40
780F80
000280
000280
000280
ENDCHAR
STARTCHAR uni04B4.c2sc
ENCODING -1
SWIDTH 695 0
DWIDTH 13 0
BBX 12 13 0 -3
BITMAP
BFFD74
579474
038074
038074
038074
038074
038074
038074
0395B5
03FFFE
00000D
00000D
00000D
ENDCHAR
STARTCHAR uni04B8.c2sc
ENCODING -1
SWIDTH 487 0
DWIDTH 9 0
BBX 8 10 0 0
BITMAP
700E
700E
700E
768E
3A9E
1FFE
028E
028E
000E
000E
ENDCHAR
STARTCHAR uni04BA.c2sc
ENCODING -1
SWIDTH 487 0
DWIDTH 9 0
BBX 7 10 1 0
BITMAP
E000
E000
E000
FBE0
F978
E02C
E01C
E01C
E01C
E01C
ENDCHAR
STARTCHAR uni04BC.c2sc
ENCODING -1
SWIDTH 632 0
DWIDTH 11 0
BBX 11 10 0 0
BITMAP
006F80
01E6E0
938074
B74034
3FFFF8
079554
034000
02C000
01F990
006F90
ENDCHAR
STARTCHAR uni04D8.c2sc
ENCODING -1
SWIDTH 527 0
DWIDTH 10 0
BBX 8 10 1 0
BITMAP
2FE0
29B8
001D
000E
FFFE
E55E
E00E
B02D
79B8
1BE0
ENDCHAR
STARTCHAR uni04E0.c2sc
ENCODING -1
SWIDTH 466 0
DWIDTH 8 0
BBX 8 10 0 0
BITMAP
3FFC
1578
00B0
02D0
03E0
01BC
001D
741D
3D6C
1BE4
ENDCHAR
STARTCHAR uni04E8.c2sc
ENCODING -1
SWIDTH 519 0
DWIDTH 9 0
BBX 8 10 1 0
BITMAP
1BD0
79B8
A01C
D00D
FFFD
E55D
E01D
B02C
79B8
1BE0
ENDCHAR
STARTCHAR lira.c2sc
ENCODING -1
SWIDTH 467 0
DWIDTH 8 0
BBX 8 10 0 0
BITMAP
06E4
0F6C
1D1D
1D00
7FF0
1D00
7FF0
1C00
2D55
3FFE
ENDCHAR
STARTCHAR Euro.c2sc
ENCODING -1
SWIDTH 433 0
DWIDTH 8 0
BBX 7 10 0 0
BITMAP
02FC
0B98
0E00
7FF4
1D00
7FF4
0D00
0E00
0794
01FC
ENDCHAR
STARTCHAR uni2116.c2sc
ENCODING -1
SWIDTH 884 0
DWIDTH 16 0
BBX 14 10 1 0
BITMAP
F00D1B80
F80D39D0
FC0D70A0
EA0D70B0
E74D70A0
E28D39D0
E0DD1B80
E0BD0000
E03D2FD0
E01D1540
ENDCHAR
STARTCHAR uni20BD.c2sc
ENCODING -1
SWIDTH 512 0
DWIDTH 9 0
BBX 9 10 0 0
BITMAP
0FF900
0E5B00
0D0340
0D0380
0D0B40
BFFE00
5E5000
BFD000
5E4000
0D0000
ENDCHAR
STARTCHAR three.dnom
ENCODING -1
SWIDTH 329 0
DWIDTH 6 0
BBX 5 7 0 0
BITMAP
2F40
66C0
0680
0B80
01C0
76C0
2F40
ENDCHAR
STARTCHAR four.dnom
ENCODING -1
SWIDTH 329 0
DWIDTH 6 0
BBX 6 7 0 0
BITMAP
0380
0B80
1E80
3680
7FD0
0280
0280
ENDCHAR
STARTCHAR five.dnom
ENCODING -1
SWIDTH 329 0
DWIDTH 6 0
BBX 5 7 1 0
BITMAP
BF00
D000
FD00
4700
4340
D700
7D00
ENDCHAR
STARTCHAR six.dnom
ENCODING -1
SWIDTH 329 0
DWIDTH 6 0
BBX 6 7 0 0
BITMAP
0B40
2900
3B80
75C0
70D0
35C0
1F40
ENDCHAR
STARTCHAR seven.dnom
ENCODING -1
SWIDTH 329 0
DWIDTH 6 0
BBX 6 7 0 0
BITMAP
7FD0
01C0
0280
0700
0A00
0D00
1C00
ENDCHAR
STARTCHAR eight.dnom
ENCODING -1
SWIDTH 329 0
DWIDTH 6 0
BBX 5 7 0 0
BITMAP
1F40
36C0
35C0
2F40
35C0
75C0
2F40
ENDCHAR
STARTCHAR nine.dnom
ENCODING -1
SWIDTH 329 0
DWIDTH 6 0
BBX 5 7 0 0
BITMAP
1F40
36C0
71C0
35C0
2FC0
0680
1E00
ENDCHAR
STARTCHAR glyph550
ENCODING -1
SWIDTH 404 0
DWIDTH 7 0
BBX 5 2 1 5
BITMAP
BFC0
5540
ENDCHAR
STARTCHAR glyph551
ENCODING -1
SWIDTH 306 0
DWIDTH 6 0
BBX 4 5 1 10
BITMAP
0D
18
74
98
74
ENDCHAR
STARTCHAR E.c2sc
ENCODING -1
SWIDTH 428 0
DWIDTH 8 0
BBX 6 10 1 0
BITMAP
FFF0
E550
E000
E000
FFE0
E550
E000
E000
E550
FFF0
ENDCHAR
STARTCHAR g.ss01
ENCODING -1
SWIDTH 463 0
DWIDTH 8 0
BBX 8 14 0 -4
BITMAP
0BFF
2D7D
382C
741D
382C
2E78
1FE0
2800
2FF8
395E
B00A
B00E
797D
1BE0
ENDCHAR
STARTCHAR alpha.ss02
ENCODING -1
SWIDTH 523 0
DWIDTH 9 0
BBX 8 10 1 0
BITMAP
1F8D
79ED
B07C
E03C
D028
D028
E03C
B07C
79ED
2F8D
ENDCHAR
STARTCHAR R.ss03
ENCODING -1
SWIDTH 577 0
DWIDTH 10 0
BBX 9 13 1 0
BITMAP
BFF400
B56D00
B00B00
B00B00
B00B00
B01E00
BFF800
B56D00
B00E00
B00B00
B00B00
B00B00
B00740
ENDCHAR
STARTCHAR K.ss04
ENCODING -1
SWIDTH 560 0
DWIDTH 10 0
BBX 9 13 1 0
BITMAP
B00B40
B01E00
B03C00
B0B400
B1E000
B7C000
BF8000
B1D000
B0B000
B07800
B02D00
B00F00
B00780
ENDCHAR
STARTCHAR k.ss04
ENCODING -1
SWIDTH 453 0
DWIDTH 8 0
BBX 7 14 1 0
BITMAP
A000
A000
A000
A000
A074
A0E0
A2C0
A380
BF00
B740
A2C0
A0E0
A0B4
A038
ENDCHAR
STARTCHAR K.ss05
ENCODING -1
SWIDTH 572 0
DWIDTH 10 0
BBX 9 13 1 0
BITMAP
B00F00
B02D00
B07800
B1E000
B3C000
BB4000
BF0000
BB8000
B2D000
B0F000
B07800
B01E00
B00B40
ENDCHAR
STARTCHAR k.ss05
ENCODING -1
SWIDTH 454 0
DWIDTH 8 0
BBX 7 14 1 0
BITMAP
A000
A000
A000
A000
A0F0
A2D0
A780
AB00
BD00
BE00
AB40
A2C0
A0E0
A074
ENDCHAR
STARTCHAR D.c2sc
ENCODING -1
SWIDTH 492 0
DWIDTH 9 0
BBX 7 10 1 0
BITMAP
FF80
E5F0
E038
E02C
E02C
E02C
E02C
E038
E5F0
FF80
ENDCHAR
STARTCHAR C.c2sc
ENCODING -1
SWIDTH 490 0
DWIDTH 9 0
BBX 7 10 1 0
BITMAP
1BD0
79B4
B02C
E018
D000
D000
E014
A02C
79B4
1FD0
ENDCHAR
STARTCHAR B.c2sc
ENCODING -1
SWIDTH 475 0
DWIDTH 9 0
BBX 7 10 1 0
BITMAP
FF90
E5B4
E034
E074
FFE0
E5B4
E038
E038
E5B4
FFD0
ENDCHAR
STARTCHAR A.c2sc
ENCODING -1
SWIDTH 501 0
DWIDTH 9 0
BBX 9 10 0 0
BITMAP
01D000
02E000
03B000
073400
0A2800
0D1C00
1FFD00
295A00
340740
B00380
ENDCHAR
STARTCHAR glyph564
ENCODING -1
SWIDTH 236 0
DWIDTH 4 0
BBX 2 4 1 10
BITMAP
20
70
B0
B0
ENDCHAR
STARTCHAR glyph565
ENCODING -1
SWIDTH 402 0
DWIDTH 7 0
BBX 5 4 1 11
BITMAP
2400
1800
A280
6E00
ENDCHAR
STARTCHAR glyph566
ENCODING -1
SWIDTH 0 0
DWIDTH 0 0
BBX 4 4 -6 11
BITMAP
0D
28
A6
9D
ENDCHAR
STARTCHAR glyph567
ENCODING -1
SWIDTH 455 0
DWIDTH 8 0
BBX 8 4 1 11
BITMAP
001D
0028
1F40
75D0
ENDCHAR
STARTCHAR glyph568
ENCODING -1
SWIDTH 454 0
DWIDTH 8 0
BBX 7 4 -1 11
BITMAP
A000
2400
02F4
0B28
ENDCHAR
STARTCHAR glyph569
ENCODING -1
SWIDTH 446 0
DWIDTH 8 0
BBX 7 4 1 11
BITMAP
0074
0028
2F70
A1D0
ENDCHAR
STARTCHAR glyph570
ENCODING -1
SWIDTH 453 0
DWIDTH 8 0
BBX 6 5 1 11
BITMAP
2980
6740
0000
2F40
A1D0
ENDCHAR
STARTCHAR uni0490.c2sc
ENCODING -1
SWIDTH 405 0
DWIDTH 7 0
BBX 6 13 1 0
BITMAP
00A0
00B0
00B0
FFF0
E550
E000
E000
E000
E000
E000
E000
E000
E000
ENDCHAR
STARTCHAR glyph572
ENCODING -1
SWIDTH 404 0
DWIDTH 7 0
BBX 5 4 1 11
BITMAP
0A00
0800
A280
6E00
ENDCHAR
STARTCHAR glyph573
ENCODING -1
SWIDTH 404 0
DWIDTH 7 0
BBX 5 5 1 11
BITMAP
1900
0700
1C00
A340
7E00
ENDCHAR
STARTCHAR zero.numr
ENCODING -1
SWIDTH 329 0
DWIDTH 6 0
BBX 6 7 0 6
BITMAP
1F40
36C0
70C0
70D0
70C0
36C0
1F40
ENDCHAR
STARTCHAR four.numr
ENCODING -1
SWIDTH 329 0
DWIDTH 6 0
BBX 6 7 0 6
BITMAP
0380
0B80
1E80
3680
7FD0
0280
0280
ENDCHAR
STARTCHAR five.numr
ENCODING -1
SWIDTH 329 0
DWIDTH 6 0
BBX 5 7 1 6
BITMAP
BF00
D000
FD00
4700
4340
D700
7D00
ENDCHAR
STARTCHAR six.numr
ENCODING -1
SWIDTH 329 0
DWIDTH 6 0
BBX 6 7 0 6
BITMAP
0B40
2900
3B80
75C0
70D0
35C0
1F40
ENDCHAR
STARTCHAR seven.numr
ENCODING -1
SWIDTH 329 0
DWIDTH 6 0
BBX 6 7 0 6
BITMAP
7FD0
01C0
0280
0700
0A00
0D00
1C00
ENDCHAR
STARTCHAR eight.numr
ENCODING -1
SWIDTH 329 0
DWIDTH 6 0
BBX 5 7 0 6
BITMAP
1F40
36C0
35C0
2F40
35C0
75C0
2F40
ENDCHAR
STARTCHAR nine.numr
ENCODING -1
SWIDTH 329 0
DWIDTH 6 0
BBX 5 7 0 6
BITMAP
1F40
36C0
71C0
35C0
2FC0
0680
1E00
ENDCHAR
STARTCHAR C.ss06
ENCODING -1
SWIDTH 603 0
DWIDTH 11 0
BBX 9 13 1 0
BITMAP
06F800
1E6E00
380740
740380
B00140
E00000
E00000
E00000
B00140
740380
380740
1E6F00
06F800
ENDCHAR
STARTCHAR G.ss06
ENCODING -1
SWIDTH 618 0
DWIDTH 11 0
BBX 9 13 1 0
BITMAP
06F800
1E6F00
380780
740280
B00000
E00000
E00000
E03FC0
B016C0
7402C0
3802C0
1F5B80
06F900
ENDCHAR
STARTCHAR D.ss06
ENCODING -1
SWIDTH 608 0
DWIDTH 11 0
BBX 9 13 1 0
BITMAP
BFE000
B5BD00
B00E00
B00740
B00380
B00380
B00280
B00380
B00380
B00740
B00F00
B5BD00
BFE000
ENDCHAR
STARTCHAR O.ss06
ENCODING -1
SWIDTH 643 0
DWIDTH 12 0
BBX 10 13 1 0
BITMAP
06F800
1FAE00
380780
7402C0
B001D0
E001D0
E000D0
E001D0
B001D0
7402C0
380780
1F6E00
06F800
ENDCHAR
STARTCHAR Q.ss06
ENCODING -1
SWIDTH 644 0
DWIDTH 12 0
BBX 10 15 1 -2
BITMAP
06F800
1FAE00
380780
7402C0
B001D0
E001D0
E000D0
E001D0
B001D0
7402C0
380780
1F6E00
06FD00
000B40
000240
ENDCHAR
STARTCHAR one.oldstyle.pnum
ENCODING -1
SWIDTH 421 0
DWIDTH 8 0
BBX 5 10 1 0
BITMAP
0280
2F80
BB80
4380
0380
0380
0380
0380
0380
0380
ENDCHAR
STARTCHAR two.oldstyle.pnum
ENCODING -1
SWIDTH 492 0
DWIDTH 9 0
BBX 7 10 1 0
BITMAP
1BD0
79B4
B038
9034
00B0
01D0
0740
1E00
7D54
BFFC
ENDCHAR
STARTCHAR three.oldstyle.pnum
ENCODING -1
SWIDTH 474 0
DWIDTH 9 0
BBX 8 13 0 -3
BITMAP
7FFD
157C
00B0
01D0
03E0
0178
001D
001D
000D
001D
002C
A5B4
6F90
ENDCHAR
STARTCHAR four.oldstyle.pnum
ENCODING -1
SWIDTH 524 0
DWIDTH 9 0
BBX 9 13 0 -3
BITMAP
001D00
003D00
00BD00
01DD00
028D00
074D00
0E0D00
1C0D00
395E40
7FFFC0
000D00
000D00
000D00
ENDCHAR
STARTCHAR five.oldstyle.pnum
ENCODING -1
SWIDTH 483 0
DWIDTH 9 0
BBX 7 13 1 -3
BITMAP
3FF8
7AA4
7000
7000
BB90
BAF0
9078
0038
0028
0038
0074
E5F0
6F80
ENDCHAR
STARTCHAR seven.oldstyle.pnum
ENCODING -1
SWIDTH 458 0
DWIDTH 8 0
BBX 8 13 0 -3
BITMAP
7FFE
155D
001C
0028
0074
00B0
00E0
01D0
0280
0340
0700
0A00
1D00
ENDCHAR
STARTCHAR glyph592
ENCODING -1
SWIDTH 402 0
DWIDTH 7 0
BBX 5 5 1 11
BITMAP
7540
9B00
0000
A340
7E00
ENDCHAR
STARTCHAR glyph593
ENCODING -1
SWIDTH 183 0
DWIDTH 3 0
BBX 3 5 0 -4
BITMAP
74
74
74
74
74
ENDCHAR
STARTCHAR OE.c2sc
ENCODING -1
SWIDTH 714 0
DWIDTH 13 0
BBX 12 10 1 0
BITMAP
1BFFFD
796D54
B02C00
E02C00
D02FF8
D02D54
E02C00
B02C00
796D54
1BFFFD
ENDCHAR
STARTCHAR nine.oldstyle.pnum
ENCODING -1
SWIDTH 520 0
DWIDTH 9 0
BBX 8 13 1 -3
BITMAP
1BD0
3DB4
702C
B01C
A01D
B01D
741D
3DBD
1BED
002C
0038
25F0
2F80
ENDCHAR
STARTCHAR glyph596
ENCODING -1
SWIDTH 234 0
DWIDTH 4 0
BBX 4 6 -1 -4
BITMAP
05
0B
0B
0B
1E
78
ENDCHAR
STARTCHAR three.oldstyle
ENCODING -1
SWIDTH 494 0
DWIDTH 9 0
BBX 8 13 0 -3
BITMAP
3FFE
156D
0074
01D0
02E4
007C
000E
000E
000A
000E
001D
79B8
1BE0
ENDCHAR
STARTCHAR five.oldstyle
ENCODING -1
SWIDTH 494 0
DWIDTH 9 0
BBX 7 13 1 -3
BITMAP
3FFC
3AA4
7000
7000
BBD0
BAF4
5038
0028
002C
0028
0078
A5F0
6F80
ENDCHAR
STARTCHAR four.oldstyle
ENCODING -1
SWIDTH 494 0
DWIDTH 9 0
BBX 9 13 0 -3
BITMAP
002D00
007D00
00BD00
01DD00
039D00
0B1D00
0D1D00
2C1D00
796E40
BFFF80
001D00
001D00
001D00
ENDCHAR
STARTCHAR two.oldstyle
ENCODING -1
SWIDTH 494 0
DWIDTH 9 0
BBX 7 10 1 0
BITMAP
1B90
79B0
B034
9034
00B0
02D0
0740
1E00
7954
BFFC
ENDCHAR
STARTCHAR seven.oldstyle
ENCODING -1
SWIDTH 494 0
DWIDTH 9 0
BBX 7 13 1 -3
BITMAP
FFFC
5578
0034
0070
00A0
01D0
02C0
0380
0740
0A00
0D00
1C00
2800
ENDCHAR
STARTCHAR zero.oldstyle
ENCODING -1
SWIDTH 494 0
DWIDTH 9 0
BBX 9 10 0 0
BITMAP
07F400
1E6D00
380B00
740740
740740
740740
740740
380B00
1E6D00
07F400
ENDCHAR
STARTCHAR six.oldstyle
ENCODING -1
SWIDTH 494 0
DWIDTH 9 0
BBX 7 13 1 0
BITMAP
06D0
1E80
3800
7000
B7D0
B9B4
F038
E02C
A02C
B028
7438
3DB4
1BD0
ENDCHAR
STARTCHAR nine.oldstyle
ENCODING -1
SWIDTH 494 0
DWIDTH 9 0
BBX 7 13 1 -3
BITMAP
1F90
79B0
B038
E02C
D02C
E02C
B02C
79BC
1FAC
0038
0074
66E0
7F40
ENDCHAR
STARTCHAR eight.oldstyle
ENCODING -1
SWIDTH 494 0
DWIDTH 9 0
BBX 7 13 1 0
BITMAP
1B90
39B0
B034
B038
B038
74B0
2FD0
79B0
A038
E02C
A038
79B4
1F90
ENDCHAR
STARTCHAR one.oldstyle
ENCODING -1
SWIDTH 494 0
DWIDTH 9 0
BBX 5 10 2 0
BITMAP
0640
6F40
EB40
4740
0740
0740
0740
0740
0740
0740
ENDCHAR
STARTCHAR glyph607
ENCODING -1
SWIDTH 237 0
DWIDTH 4 0
BBX 4 14 -1 -4
BITMAP
0B
0B
0B
0B
0B
0B
0B
0B
0B
0B
0B
0B
1E
78
ENDCHAR
STARTCHAR glyph608
ENCODING -1
SWIDTH 238 0
DWIDTH 4 0
BBX 4 14 -1 -4
BITMAP
0B
0B
0B
0B
0B
0B
0B
0B
0B
0B
0B
0B
1E
78
ENDCHAR
STARTCHAR glyph609
ENCODING -1
SWIDTH 235 0
DWIDTH 4 0
BBX 2 10 1 0
BITMAP
B0
B0
B0
B0
B0
B0
B0
B0
B0
B0
ENDCHAR
STARTCHAR glyph610
ENCODING -1
SWIDTH 235 0
DWIDTH 4 0
BBX 3 14 0 -4
BITMAP
2C
2C
2C
2C
2C
2C
2C
2C
2C
3C
74
A0
E4
78
ENDCHAR
STARTCHAR glyph611
ENCODING -1
SWIDTH 235 0
DWIDTH 4 0
BBX 2 10 1 0
BITMAP
B0
B0
B0
B0
B0
B0
B0
B0
B0
B0
ENDCHAR
STARTCHAR germandbls.sc
ENCODING -1
SWIDTH 475 0
DWIDTH 9 0
BBX 7 10 1 0
BITMAP
2F90
79F0
B1D0
A380
E7D0
E1B4
E038
E038
E5B4
EBD0
ENDCHAR
STARTCHAR zero.oldstyle.pnum
ENCODING -1
SWIDTH 545 0
DWIDTH 10 0
BBX 8 10 1 0
BITMAP
0BE0
3D78
B01D
A00E
E00A
E00A
A00E
B01D
3D7C
0BE0
ENDCHAR
STARTCHAR seven.pnum
ENCODING -1
SWIDTH 458 0
DWIDTH 8 0
BBX 8 13 0 0
BITMAP
7FFD
155D
002C
0038
0074
00B0
00E0
01D0
0280
0340
0700
0A00
0D00
ENDCHAR
STARTCHAR b.ss06
ENCODING -1
SWIDTH 493 0
DWIDTH 9 0
BBX 7 14 1 0
BITMAP
A000
A000
A000
A000
ABD0
B9B4
B038
A02C
A01C
A01C
A02C
B038
B9B4
ABD0
ENDCHAR
STARTCHAR c.ss06
ENCODING -1
SWIDTH 460 0
DWIDTH 8 0
BBX 7 10 1 0
BITMAP
1F90
79B0
B034
E014
D000
D000
E010
A038
79B0
1F90
ENDCHAR
STARTCHAR d.ss06
ENCODING -1
SWIDTH 503 0
DWIDTH 9 0
BBX 7 14 1 0
BITMAP
002C
002C
002C
002C
1FAC
79BC
B02C
E02C
D02C
D02C
E02C
B02C
79BC
1FAC
ENDCHAR
STARTCHAR g.ss06
ENCODING -1
SWIDTH 500 0
DWIDTH 9 0
BBX 7 14 1 -4
BITMAP
1FAC
79BC
B02C
E02C
D02C
D02C
E02C
B02C
79BC
1FA8
0028
0038
75B0
2F90
ENDCHAR
STARTCHAR o.ss06
ENCODING -1
SWIDTH 508 0
DWIDTH 9 0
BBX 8 10 1 0
BITMAP
1BD0
79B4
B02C
E01C
D01D
D01D
E01C
B02C
79B4
1BD0
ENDCHAR
STARTCHAR p.ss06
ENCODING -1
SWIDTH 500 0
DWIDTH 9 0
BBX 7 14 1 -4
BITMAP
ABD0
B9B4
A038
A02C
A01C
A01C
A02C
A038
B9B4
ABD0
A000
A000
A000
A000
ENDCHAR
STARTCHAR q.ss06
ENCODING -1
SWIDTH 508 0
DWIDTH 9 0
BBX 7 14 1 -4
BITMAP
1FA8
79B8
B028
E028
D028
D028
E028
B028
79B8
1FA8
0028
0028
0028
0028
ENDCHAR
STARTCHAR e.ss07
ENCODING -1
SWIDTH 468 0
DWIDTH 8 0
BBX 7 10 1 0
BITMAP
1B90
79B0
B034
E038
FFF8
E554
E000
B000
3D64
1BE0
ENDCHAR
STARTCHAR g.ss07
ENCODING -1
SWIDTH 492 0
DWIDTH 9 0
BBX 7 14 1 -4
BITMAP
1FA8
79B8
B038
E038
D038
D038
E038
B038
79B8
1FB8
0038
0074
35F0
2F90
ENDCHAR
STARTCHAR one.pnum
ENCODING -1
SWIDTH 382 0
DWIDTH 7 0
BBX 5 13 0 0
BITMAP
01C0
1FC0
7AC0
02C0
02C0
02C0
02C0
02C0
02C0
02C0
02C0
02C0
02C0
ENDCHAR
STARTCHAR ampersand.c2sc
ENCODING -1
SWIDTH 526 0
DWIDTH 9 0
BBX 8 10 1 0
BITMAP
2F40
7AC0
71D0
3AC0
2F04
7F4D
E2DC
D0B8
F5F8
6F9D
ENDCHAR
STARTCHAR Lslash.c2sc
ENCODING -1
SWIDTH 411 0
DWIDTH 7 0
BBX 7 10 0 0
BITMAP
3800
3800
3800
3A40
7D00
7800
3800
3800
3954
3FFC
ENDCHAR
STARTCHAR AE.c2sc
ENCODING -1
SWIDTH 676 0
DWIDTH 12 0
BBX 12 10 0 0
BITMAP
007FFC
00BE54
00DD00
028D00
034FF8
0B0E54
0FFD00
2D5E00
380E54
B00FFD
ENDCHAR
STARTCHAR Thorn.c2sc
ENCODING -1
SWIDTH 440 0
DWIDTH 8 0
BBX 7 10 1 0
BITMAP
E000
E000
FF80
E5E0
E074
E074
E0B0
FFD0
E500
E000
ENDCHAR
STARTCHAR Oslash.c2sc
ENCODING -1
SWIDTH 519 0
DWIDTH 9 0
BBX 8 12 1 -1
BITMAP
0004
1BEC
79B8
B07C
E0DD
D28D
D70D
E91D
BC2C
79B8
ABE0
4000
ENDCHAR
STARTCHAR Hbar.c2sc
ENCODING -1
SWIDTH 533 0
DWIDTH 10 0
BBX 9 10 0 0
BITMAP
380340
BFFFC0
395780
380340
3FFF40
395740
380340
380340
380340
380340
ENDCHAR
STARTCHAR Eng.c2sc
ENCODING -1
SWIDTH 533 0
DWIDTH 10 0
BBX 8 14 1 -4
BITMAP
F00D
F80D
FC0D
EA0D
E74D
E28D
E0DD
E0BD
E03D
E01D
000D
001D
006C
00B4
ENDCHAR
STARTCHAR Dcroat.c2sc
ENCODING -1
SWIDTH 492 0
DWIDTH 9 0
BBX 9 10 -1 0
BITMAP
0FF800
0E5F00
0E0380
0E02C0
7FD2C0
1F42C0
0E02C0
0E0380
0E5F00
0FF800
ENDCHAR
STARTCHAR Eth.c2sc
ENCODING -1
SWIDTH 492 0
DWIDTH 9 0
BBX 9 10 -1 0
BITMAP
0FF800
0E5F00
0E0380
0E02C0
7FD2C0
1F42C0
0E02C0
0E0380
0E5F00
0FF800
ENDCHAR
STARTCHAR Tbar.c2sc
ENCODING -1
SWIDTH 456 0
DWIDTH 8 0
BBX 8 10 0 0
BITMAP
BFFE
56D5
02C0
1FF8
07D0
02C0
02C0
02C0
02C0
02C0
ENDCHAR
STARTCHAR Agrave.c2sc
ENCODING -1
SWIDTH 501 0
DWIDTH 9 0
BBX 9 14 0 0
BITMAP
0B0000
038000
01D000
000000
01D000
02E000
03B000
073400
0A2800
0D1C00
1FFD00
295A00
340740
B00380
ENDCHAR
STARTCHAR Aacute.c2sc
ENCODING -1
SWIDTH 501 0
DWIDTH 9 0
BBX 9 14 0 0
BITMAP
003C00
00B400
009000
000000
01D000
02E000
03B000
073400
0A2800
0D1C00
1FFD00
295A00
340740
B00380
ENDCHAR
STARTCHAR Acircumflex.c2sc
ENCODING -1
SWIDTH 501 0
DWIDTH 9 0
BBX 9 14 0 0
BITMAP
01D000
03B400
062800
000000
01D000
02E000
03B000
073400
0A2800
0D1C00
1FFD00
295A00
340740
B00380
ENDCHAR
STARTCHAR Atilde.c2sc
ENCODING -1
SWIDTH 501 0
DWIDTH 9 0
BBX 9 14 0 0
BITMAP
010400
0B9C00
0C7800
000000
01D000
02E000
03B000
073400
0A2800
0D1C00
1FFD00
295A00
340740
B00380
ENDCHAR
STARTCHAR Adieresis.c2sc
ENCODING -1
SWIDTH 501 0
DWIDTH 9 0
BBX 9 13 0 0
BITMAP
091800
0D1D00
000000
01D000
02E000
03B000
073400
0A2800
0D1C00
1FFD00
295A00
340740
B00380
ENDCHAR
STARTCHAR Aring.c2sc
ENCODING -1
SWIDTH 501 0
DWIDTH 9 0
BBX 9 15 0 0
BITMAP
02A000
062400
062400
02A000
000000
01D000
02E000
03B000
073400
0A2800
0D1C00
1FFD00
295A00
340740
B00380
ENDCHAR
STARTCHAR Aringacute.c2sc
ENCODING -1
SWIDTH 501 0
DWIDTH 9 0
BBX 9 15 0 0
BITMAP
003400
006000
01D000
026000
01D000
01D000
02E000
03B000
073400
0A2800
0D1C00
1FFD00
295A00
340740
B00380
ENDCHAR
STARTCHAR Ccedilla.c2sc
ENCODING -1
SWIDTH 490 0
DWIDTH 9 0
BBX 7 14 1 -4
BITMAP
1BD0
79B4
B02C
E018
D000
D000
E014
A02C
79B4
1FD0
0300
0280
01C0
0740
ENDCHAR
STARTCHAR Egrave.c2sc
ENCODING -1
SWIDTH 428 0
DWIDTH 8 0
BBX 6 14 1 0
BITMAP
7800
1D00
0A00
0000
FFF0
E550
E000
E000
FFE0
E550
E000
E000
E550
FFF0
ENDCHAR
STARTCHAR Eacute.c2sc
ENCODING -1
SWIDTH 428 0
DWIDTH 8 0
BBX 6 14 1 0
BITMAP
01E0
0380
0600
0000
FFF0
E550
E000
E000
FFE0
E550
E000
E000
E550
FFF0
ENDCHAR
STARTCHAR Ecircumflex.c2sc
ENCODING -1
SWIDTH 428 0
DWIDTH 8 0
BBX 6 14 1 0
BITMAP
0B00
1E80
24D0
0000
FFF0
E550
E000
E000
FFE0
E550
E000
E000
E550
FFF0
ENDCHAR
STARTCHAR Edieresis.c2sc
ENCODING -1
SWIDTH 428 0
DWIDTH 8 0
BBX 6 13 1 0
BITMAP
60A0
70A0
0000
FFF0
E550
E000
E000
FFE0
E550
E000
E000
E550
FFF0
ENDCHAR
STARTCHAR Igrave.c2sc
ENCODING -1
SWIDTH 221 0
DWIDTH 4 0
BBX 4 14 -1 0
BITMAP
78
2D
0A
00
0A
0A
0A
0A
0A
0A
0A
0A
0A
0A
ENDCHAR
STARTCHAR Iacute.c2sc
ENCODING -1
SWIDTH 221 0
DWIDTH 4 0
BBX 4 14 1 0
BITMAP
2D
78
A0
00
A0
A0
A0
A0
A0
A0
A0
A0
A0
A0
ENDCHAR
STARTCHAR Icircumflex.c2sc
ENCODING -1
SWIDTH 221 0
DWIDTH 4 0
BBX 4 14 0 0
BITMAP
28
AA
96
00
28
28
28
28
28
28
28
28
28
28
ENDCHAR
STARTCHAR Idieresis.c2sc
ENCODING -1
SWIDTH 221 0
DWIDTH 4 0
BBX 6 13 -1 0
BITMAP
A0A0
B0A0
0000
0A00
0A00
0A00
0A00
0A00
0A00
0A00
0A00
0A00
0A00
ENDCHAR
STARTCHAR Ntilde.c2sc
ENCODING -1
SWIDTH 533 0
DWIDTH 10 0
BBX 8 14 1 0
BITMAP
0410
1F74
25E0
0000
F00D
F80D
FC0D
EA0D
E74D
E28D
E0DD
E0BD
E03D
E01D
ENDCHAR
STARTCHAR Ograve.c2sc
ENCODING -1
SWIDTH 519 0
DWIDTH 9 0
BBX 8 14 1 0
BITMAP
2D00
0F00
0740
0000
1BD0
79B8
B02C
E01D
D00D
D00D
E01D
B02C
79B8
1BE0
ENDCHAR
STARTCHAR Oacute.c2sc
ENCODING -1
SWIDTH 519 0
DWIDTH 9 0
BBX 8 14 1 0
BITMAP
00B0
02D0
0240
0000
1BD0
79B8
B02C
E01D
D00D
D00D
E01D
B02C
79B8
1BE0
ENDCHAR
STARTCHAR Ocircumflex.c2sc
ENCODING -1
SWIDTH 519 0
DWIDTH 9 0
BBX 8 14 1 0
BITMAP
0780
0ED0
18A0
0000
1BD0
79B8
B02C
E01D
D00D
D00D
E01D
B02C
79B8
1BE0
ENDCHAR
STARTCHAR Otilde.c2sc
ENCODING -1
SWIDTH 519 0
DWIDTH 9 0
BBX 8 14 1 0
BITMAP
0410
2E74
35E0
0000
1BD0
79B8
B02C
E01D
D00D
D00D
E01D
B02C
79B8
1BE0
ENDCHAR
STARTCHAR Odieresis.c2sc
ENCODING -1
SWIDTH 519 0
DWIDTH 9 0
BBX 8 13 1 0
BITMAP
2424
3874
0000
1BD0
79B8
B02C
E01D
D00D
D00D
E01D
B02C
79B8
1BE0
ENDCHAR
STARTCHAR Ugrave.c2sc
ENCODING -1
SWIDTH 488 0
DWIDTH 9 0
BBX 7 14 1 0
BITMAP
3C00
1E00
0600
0000
E02C
E02C
E02C
E02C
E02C
E02C
E02C
E038
79B4
1F90
ENDCHAR
STARTCHAR Uacute.c2sc
ENCODING -1
SWIDTH 488 0
DWIDTH 9 0
BBX 7 14 1 0
BITMAP
01E0
02C0
0740
0000
E02C
E02C
E02C
E02C
E02C
E02C
E02C
E038
79B4
1F90
ENDCHAR
STARTCHAR Ucircumflex.c2sc
ENCODING -1
SWIDTH 488 0
DWIDTH 9 0
BBX 7 14 1 0
BITMAP
0740
1EC0
2890
0000
E02C
E02C
E02C
E02C
E02C
E02C
E02C
E038
79B4
1F90
ENDCHAR
STARTCHAR Udieresis.c2sc
ENCODING -1
SWIDTH 488 0
DWIDTH 9 0
BBX 7 13 1 0
BITMAP
6460
7470
0000
E02C
E02C
E02C
E02C
E02C
E02C
E02C
E038
79B4
1F90
ENDCHAR
STARTCHAR Yacute.c2sc
ENCODING -1
SWIDTH 458 0
DWIDTH 8 0
BBX 8 14 0 0
BITMAP
0074
00E0
0180
0000
B40E
381D
2C38
0E74
0BA0
03D0
02C0
02C0
02C0
02C0
ENDCHAR
STARTCHAR Amacron.c2sc
ENCODING -1
SWIDTH 501 0
DWIDTH 9 0
BBX 9 14 0 0
BITMAP
055400
0FFC00
000000
000000
01D000
02E000
03B000
073400
0A2800
0D1C00
1FFD00
295A00
340740
B00380
ENDCHAR
STARTCHAR Abreve.c2sc
ENCODING -1
SWIDTH 501 0
DWIDTH 9 0
BBX 9 13 0 0
BITMAP
0E1C00
06F400
000000
01D000
02E000
03B000
073400
0A2800
0D1C00
1FFD00
295A00
340740
B00380
ENDCHAR
STARTCHAR Aogonek.c2sc
ENCODING -1
SWIDTH 501 0
DWIDTH 9 0
BBX 9 14 0 -4
BITMAP
01D000
02E000
03B000
073400
0A2800
0D1C00
1FFD00
295A00
340740
B00380
000700
000D00
000D00
000B40
ENDCHAR
STARTCHAR Cacute.c2sc
ENCODING -1
SWIDTH 490 0
DWIDTH 9 0
BBX 7 14 1 0
BITMAP
00F0
02C0
0340
0000
1BD0
79B4
B02C
E018
D000
D000
E014
A02C
79B4
1FD0
ENDCHAR
STARTCHAR Ccircumflex.c2sc
ENCODING -1
SWIDTH 490 0
DWIDTH 9 0
BBX 7 14 1 0
BITMAP
0740
0EC0
1890
0000
1BD0
79B4
B02C
E018
D000
D000
E014
A02C
79B4
1FD0
ENDCHAR
STARTCHAR Cdotaccent.c2sc
ENCODING -1
SWIDTH 490 0
DWIDTH 9 0
BBX 7 13 1 0
BITMAP
0640
0740
0000
1BD0
79B4
B02C
E018
D000
D000
E014
A02C
79B4
1FD0
ENDCHAR
STARTCHAR Ccaron.c2sc
ENCODING -1
SWIDTH 490 0
DWIDTH 9 0
BBX 7 14 1 0
BITMAP
28A0
0EC0
0740
0000
1BD0
79B4
B02C
E018
D000
D000
E014
A02C
79B4
1FD0
ENDCHAR
STARTCHAR Dcaron.c2sc
ENCODING -1
SWIDTH 492 0
DWIDTH 9 0
BBX 7 14 1 0
BITMAP
71C0
2B40
0E00
0000
FF80
E5F0
E038
E02C
E02C
E02C
E02C
E038
E5F0
FF80
ENDCHAR
STARTCHAR Emacron.c2sc
ENCODING -1
SWIDTH 428 0
DWIDTH 8 0
BBX 6 14 1 0
BITMAP
1550
7FE0
0000
0000
FFF0
E550
E000
E000
FFE0
E550
E000
E000
E550
FFF0
ENDCHAR
STARTCHAR Ebreve.c2sc
ENCODING -1
SWIDTH 428 0
DWIDTH 8 0
BBX 6 13 1 0
BITMAP
74A0
2F80
0000
FFF0
E550
E000
E000
FFE0
E550
E000
E000
E550
FFF0
ENDCHAR
STARTCHAR Edotaccent.c2sc
ENCODING -1
SWIDTH 428 0
DWIDTH 8 0
BBX 6 13 1 0
BITMAP
0A00
0B00
0000
FFF0
E550
E000
E000
FFE0
E550
E000
E000
E550
FFF0
ENDCHAR
STARTCHAR Eogonek.c2sc
ENCODING -1
SWIDTH 428 0
DWIDTH 8 0
BBX 6 14 1 -4
BITMAP
FFF0
E550
E000
E000
FFE0
E550
E000
E000
E550
FFF0
01D0
0280
0390
01E0
ENDCHAR
STARTCHAR Ecaron.c2sc
ENCODING -1
SWIDTH 428 0
DWIDTH 8 0
BBX 6 14 1 0
BITMAP
34D0
1E80
0B00
0000
FFF0
E550
E000
E000
FFE0
E550
E000
E000
E550
FFF0
ENDCHAR
STARTCHAR Gcircumflex.c2sc
ENCODING -1
SWIDTH 509 0
DWIDTH 9 0
BBX 7 14 1 0
BITMAP
0740
1EC0
1890
0000
1BE0
79B8
B02C
E000
D000
D1FC
E06C
B01C
796C
1BE4
ENDCHAR
STARTCHAR Gbreve.c2sc
ENCODING -1
SWIDTH 509 0
DWIDTH 9 0
BBX 7 13 1 0
BITMAP
34B0
1F90
0000
1BE0
79B8
B02C
E000
D000
D1FC
E06C
B01C
796C
1BE4
ENDCHAR
STARTCHAR Gdotaccent.c2sc
ENCODING -1
SWIDTH 509 0
DWIDTH 9 0
BBX 7 13 1 0
BITMAP
0640
0740
0000
1BE0
79B8
B02C
E000
D000
D1FC
E06C
B01C
796C
1BE4
ENDCHAR
STARTCHAR uni0122.c2sc
ENCODING -1
SWIDTH 509 0
DWIDTH 9 0
BBX 7 15 1 -5
BITMAP
1BE0
79B8
B02C
E000
D000
D1FC
E06C
B01C
796C
1BE4
0000
0740
0700
0B00
0500
ENDCHAR
STARTCHAR Hcircumflex.c2sc
ENCODING -1
SWIDTH 533 0
DWIDTH 10 0
BBX 8 14 1 0
BITMAP
0780
0ED0
18A0
0000
E00D
E00D
E00D
E00D
FFFD
E55D
E00D
E00D
E00D
E00D
ENDCHAR
STARTCHAR Itilde.c2sc
ENCODING -1
SWIDTH 221 0
DWIDTH 4 0
BBX 6 14 -1 0
BITMAP
0010
7DA0
A6C0
0000
0A00
0A00
0A00
0A00
0A00
0A00
0A00
0A00
0A00
0A00
ENDCHAR
STARTCHAR Imacron.c2sc
ENCODING -1
SWIDTH 221 0
DWIDTH 4 0
BBX 6 14 -1 0
BITMAP
1540
BFE0
0000
0000
0A00
0A00
0A00
0A00
0A00
0A00
0A00
0A00
0A00
0A00
ENDCHAR
STARTCHAR Ibreve.c2sc
ENCODING -1
SWIDTH 221 0
DWIDTH 4 0
BBX 6 13 -1 0
BITMAP
70E0
2F80
0000
0A00
0A00
0A00
0A00
0A00
0A00
0A00
0A00
0A00
0A00
ENDCHAR
STARTCHAR Iogonek.c2sc
ENCODING -1
SWIDTH 221 0
DWIDTH 4 0
BBX 3 14 0 -4
BITMAP
28
28
28
28
28
28
28
28
28
3C
34
A0
A4
78
ENDCHAR
STARTCHAR Idotaccent.c2sc
ENCODING -1
SWIDTH 221 0
DWIDTH 4 0
BBX 2 13 1 0
BITMAP
A0
A0
00
A0
A0
A0
A0
A0
A0
A0
A0
A0
A0
ENDCHAR
STARTCHAR Jcircumflex.c2sc
ENCODING -1
SWIDTH 419 0
DWIDTH 8 0
BBX 8 14 0 0
BITMAP
0074
00ED
018A
0000
0034
0034
0034
0034
0034
0034
0034
7074
79B0
1B90
ENDCHAR
STARTCHAR uni0136.c2sc
ENCODING -1
SWIDTH 473 0
DWIDTH 9 0
BBX 7 15 1 -5
BITMAP
E038
E0B0
E2D0
E740
FF00
FF40
F2C0
E0E0
E074
E02C
0000
0A00
0A00
0D00
0800
ENDCHAR
STARTCHAR Lacute.c2sc
ENCODING -1
SWIDTH 411 0
DWIDTH 7 0
BBX 6 14 1 0
BITMAP
2D00
7800
A000
0000
E000
E000
E000
E000
E000
E000
E000
E000
E550
FFF0
ENDCHAR
STARTCHAR uni013B.c2sc
ENCODING -1
SWIDTH 411 0
DWIDTH 7 0
BBX 6 15 1 -5
BITMAP
E000
E000
E000
E000
E000
E000
E000
E000
E550
FFF0
0000
0A00
0A00
0D00
0800
ENDCHAR
STARTCHAR Lcaron.c2sc
ENCODING -1
SWIDTH 411 0
DWIDTH 7 0
BBX 6 10 1 0
BITMAP
E280
E280
E340
E200
E000
E000
E000
E000
E550
FFF0
ENDCHAR
STARTCHAR Ldot.c2sc
ENCODING -1
SWIDTH 411 0
DWIDTH 7 0
BBX 6 10 1 0
BITMAP
E000
E000
E000
E240
E380
E000
E000
E000
E550
FFF0
ENDCHAR
STARTCHAR Nacute.c2sc
ENCODING -1
SWIDTH 533 0
DWIDTH 10 0
BBX 8 14 1 0
BITMAP
00B4
01D0
0280
0000
F00D
F80D
FC0D
EA0D
E74D
E28D
E0DD
E0BD
E03D
E01D
ENDCHAR
STARTCHAR uni0145.c2sc
ENCODING -1
SWIDTH 533 0
DWIDTH 10 0
BBX 8 15 1 -5
BITMAP
F00D
F80D
FC0D
EA0D
E74D
E28D
E0DD
E0BD
E03D
E01D
0000
0340
0340
0700
0600
ENDCHAR
STARTCHAR Ncaron.c2sc
ENCODING -1
SWIDTH 533 0
DWIDTH 10 0
BBX 8 14 1 0
BITMAP
1C70
0AD0
0380
0000
F00D
F80D
FC0D
EA0D
E74D
E28D
E0DD
E0BD
E03D
E01D
ENDCHAR
STARTCHAR Omacron.c2sc
ENCODING -1
SWIDTH 519 0
DWIDTH 9 0
BBX 8 14 1 0
BITMAP
1550
2FF4
0000
0000
1BD0
79B8
B02C
E01D
D00D
D00D
E01D
B02C
79B8
1BE0
ENDCHAR
STARTCHAR Obreve.c2sc
ENCODING -1
SWIDTH 519 0
DWIDTH 9 0
BBX 8 13 1 0
BITMAP
2874
1BD0
0000
1BD0
79B8
B02C
E01D
D00D
D00D
E01D
B02C
79B8
1BE0
ENDCHAR
STARTCHAR Ohungarumlaut.c2sc
ENCODING -1
SWIDTH 519 0
DWIDTH 9 0
BBX 8 14 1 0
BITMAP
076C
0A74
09A0
0000
1BD0
79B8
B02C
E01D
D00D
D00D
E01D
B02C
79B8
1BE0
ENDCHAR
STARTCHAR Racute.c2sc
ENCODING -1
SWIDTH 465 0
DWIDTH 8 0
BBX 7 14 1 0
BITMAP
02D0
0780
0600
0000
FF90
E5B4
E038
E038
E074
FFE0
E6D0
E0E0
E074
E038
ENDCHAR
STARTCHAR uni0156.c2sc
ENCODING -1
SWIDTH 465 0
DWIDTH 8 0
BBX 7 15 1 -5
BITMAP
FF90
E5B4
E038
E038
E074
FFE0
E6D0
E0E0
E074
E038
0000
0A00
0A00
0D00
0800
ENDCHAR
STARTCHAR Rcaron.c2sc
ENCODING -1
SWIDTH 465 0
DWIDTH 8 0
BBX 7 14 1 0
BITMAP
35C0
1A40
0A00
0000
FF90
E5B4
E038
E038
E074
FFE0
E6D0
E0E0
E074
E038
ENDCHAR
STARTCHAR Sacute.c2sc
ENCODING -1
SWIDTH 453 0
DWIDTH 8 0
BBX 8 14 0 0
BITMAP
0078
00E0
0180
0000
0BE4
2D6C
381D
3C00
1F90
01B8
101D
740D
2D6D
0BE4
ENDCHAR
STARTCHAR Scircumflex.c2sc
ENCODING -1
SWIDTH 453 0
DWIDTH 8 0
BBX 8 14 0 0
BITMAP
02C0
07A0
0934
0000
0BE4
2D6C
381D
3C00
1F90
01B8
101D
740D
2D6D
0BE4
ENDCHAR
STARTCHAR Scedilla.c2sc
ENCODING -1
SWIDTH 453 0
DWIDTH 8 0
BBX 8 14 0 -4
BITMAP
0BE4
2D6C
381D
3C00
1F90
01B8
101D
740D
2D6D
0BE4
0180
0090
00A0
01D0
ENDCHAR
STARTCHAR Scaron.c2sc
ENCODING -1
SWIDTH 453 0
DWIDTH 8 0
BBX 8 14 0 0
BITMAP
0D34
07A0
02C0
0000
0BE4
2D6C
381D
3C00
1F90
01B8
101D
740D
2D6D
0BE4
ENDCHAR
STARTCHAR uni021A.c2sc
ENCODING -1
SWIDTH 456 0
DWIDTH 8 0
BBX 8 15 0 -5
BITMAP
BFFE
56D5
02C0
02C0
02C0
02C0
02C0
02C0
02C0
02C0
0000
0280
0280
0380
0200
ENDCHAR
STARTCHAR Tcaron.c2sc
ENCODING -1
SWIDTH 456 0
DWIDTH 8 0
BBX 8 14 0 0
BITMAP
0D74
07A0
02C0
0000
BFFE
56D5
02C0
02C0
02C0
02C0
02C0
02C0
02C0
02C0
ENDCHAR
STARTCHAR uni0162.c2sc
ENCODING -1
SWIDTH 456 0
DWIDTH 8 0
BBX 8 14 0 -4
BITMAP
BFFE
56D5
02C0
02C0
02C0
02C0
02C0
02C0
02C0
02C0
0180
0190
00A0
0290
ENDCHAR
STARTCHAR Utilde.c2sc
ENCODING -1
SWIDTH 488 0
DWIDTH 9 0
BBX 7 14 1 0
BITMAP
0410
2E70
72D0
0000
E02C
E02C
E02C
E02C
E02C
E02C
E02C
E038
79B4
1F90
ENDCHAR
STARTCHAR Umacron.c2sc
ENCODING -1
SWIDTH 488 0
DWIDTH 9 0
BBX 7 14 1 0
BITMAP
1550
3FF0
0000
0000
E02C
E02C
E02C
E02C
E02C
E02C
E02C
E038
79B4
1F90
ENDCHAR
STARTCHAR Ubreve.c2sc
ENCODING -1
SWIDTH 488 0
DWIDTH 9 0
BBX 7 13 1 0
BITMAP
34B0
1F90
0000
E02C
E02C
E02C
E02C
E02C
E02C
E02C
E038
79B4
1F90
ENDCHAR
STARTCHAR Uring.c2sc
ENCODING -1
SWIDTH 488 0
DWIDTH 9 0
BBX 7 15 1 0
BITMAP
0A80
1890
1890
0A80
0000
E02C
E02C
E02C
E02C
E02C
E02C
E02C
E038
79B4
1F90
ENDCHAR
STARTCHAR Uhungarumlaut.c2sc
ENCODING -1
SWIDTH 488 0
DWIDTH 9 0
BBX 7 14 1 0
BITMAP
0B78
0DB0
1990
0000
E02C
E02C
E02C
E02C
E02C
E02C
E02C
E038
79B4
1F90
ENDCHAR
STARTCHAR Uogonek.c2sc
ENCODING -1
SWIDTH 488 0
DWIDTH 9 0
BBX 7 14 1 -4
BITMAP
E02C
E02C
E02C
E02C
E02C
E02C
E028
E038
79B4
1FD0
0380
0700
0740
02D0
ENDCHAR
STARTCHAR Wcircumflex.c2sc
ENCODING -1
SWIDTH 655 0
DWIDTH 12 0
BBX 12 14 0 0
BITMAP
003800
00AE00
009600
000000
70281D
343C1C
387D2C
28A928
2C9A34
1CD774
0DC3B0
0F82E0
0B42E0
0741D0
ENDCHAR
STARTCHAR Ycircumflex.c2sc
ENCODING -1
SWIDTH 458 0
DWIDTH 8 0
BBX 8 14 0 0
BITMAP
02C0
0BA0
0934
0000
B40E
381D
2C38
0E74
0BA0
03D0
02C0
02C0
02C0
02C0
ENDCHAR
STARTCHAR Ydieresis.c2sc
ENCODING -1
SWIDTH 458 0
DWIDTH 8 0
BBX 8 13 0 0
BITMAP
1828
2C28
0000
B40E
381D
2C38
0E74
0BA0
03D0
02C0
02C0
02C0
02C0
ENDCHAR
STARTCHAR Zacute.c2sc
ENCODING -1
SWIDTH 454 0
DWIDTH 8 0
BBX 8 14 0 0
BITMAP
0074
00E0
0180
0000
7FFD
156C
0074
00A0
01D0
0380
0B00
1D00
3955
7FFE
ENDCHAR
STARTCHAR Zdotaccent.c2sc
ENCODING -1
SWIDTH 454 0
DWIDTH 8 0
BBX 8 13 0 0
BITMAP
0280
02C0
0000
7FFD
156C
0074
00A0
01D0
0380
0B00
1D00
3955
7FFE
ENDCHAR
STARTCHAR Zcaron.c2sc
ENCODING -1
SWIDTH 454 0
DWIDTH 8 0
BBX 8 14 0 0
BITMAP
0D34
07A0
02C0
0000
7FFD
156C
0074
00A0
01D0
0380
0B00
1D00
3955
7FFE
ENDCHAR
STARTCHAR two.pnum
ENCODING -1
SWIDTH 493 0
DWIDTH 9 0
BBX 8 13 1 0
BITMAP
1F90
79B4
E038
D038
0038
0074
00E0
02C0
0740
1E00
3800
B554
FFFD
ENDCHAR
STARTCHAR three.pnum
ENCODING -1
SWIDTH 493 0
DWIDTH 9 0
BBX 7 13 1 0
BITMAP
1F80
79B0
E074
9038
0034
00B0
0FD0
05B0
0038
9038
E038
B9B0
2F90
ENDCHAR
STARTCHAR four.pnum
ENCODING -1
SWIDTH 493 0
DWIDTH 9 0
BBX 9 13 0 0
BITMAP
003C00
007C00
00FC00
02EC00
036C00
0B2C00
0D2C00
2C2C00
342C00
7FFF40
156D00
002C00
002C00
ENDCHAR
STARTCHAR five.pnum
ENCODING -1
SWIDTH 493 0
DWIDTH 9 0
BBX 7 13 1 0
BITMAP
2FF8
3AA4
3400
3400
7BD0
7AB4
1038
002C
001C
502C
7028
39B4
1BD0
ENDCHAR
STARTCHAR six.pnum
ENCODING -1
SWIDTH 503 0
DWIDTH 9 0
BBX 7 13 1 0
BITMAP
02E0
1F90
2C00
7400
77E0
BDB4
B42C
B01C
B01C
701C
742C
2DB4
0BD0
ENDCHAR
STARTCHAR eight.pnum
ENCODING -1
SWIDTH 513 0
DWIDTH 9 0
BBX 7 13 1 0
BITMAP
1B90
3DB4
7438
B028
7038
3874
1FE0
39B4
B028
A02C
B02C
79B4
1BD0
ENDCHAR
STARTCHAR nine.pnum
ENCODING -1
SWIDTH 503 0
DWIDTH 9 0
BBX 7 13 1 0
BITMAP
1F80
79E0
A074
E038
D038
E038
B4B8
3FF8
0534
0074
00B0
1BD0
2E40
ENDCHAR
STARTCHAR zero.pnum
ENCODING -1
SWIDTH 513 0
DWIDTH 9 0
BBX 7 13 1 0
BITMAP
1BD0
39B4
7038
B02C
A02C
A02C
A02C
A02C
A02C
B02C
7438
39B4
1BD0
ENDCHAR
STARTCHAR G_acutecomb.ccmp
ENCODING -1
SWIDTH 590 0
DWIDTH 11 0
BBX 9 17 1 0
BITMAP
007400
00E000
018000
000000
0BF400
3E6E00
740B00
B00740
E00000
E00000
E00000
E0BF40
E05B40
B00740
740740
2E6F40
0BF900
ENDCHAR
STARTCHAR g_acutecomb.ccmp
ENCODING -1
SWIDTH 492 0
DWIDTH 9 0
BBX 7 18 1 -4
BITMAP
01E0
0380
0700
0000
2FA8
B9B8
E038
D038
D038
D038
D038
E038
79B8
2FB8
0038
0038
75B0
1F90
ENDCHAR
STARTCHAR N_gravecomb.ccmp
ENCODING -1
SWIDTH 619 0
DWIDTH 11 0
BBX 9 17 1 0
BITMAP
0B0000
038000
01D000
000000
B40380
B80380
BD0380
BA0380
B74380
B28380
B1D380
B0A380
B07780
B02F80
B00F80
B00B80
B00380
ENDCHAR
STARTCHAR n_gravecomb.ccmp
ENCODING -1
SWIDTH 483 0
DWIDTH 9 0
BBX 7 14 1 0
BITMAP
3C00
1E00
0600
0000
EBD0
F9B0
F034
E038
E038
E038
E038
E038
E038
E038
ENDCHAR
STARTCHAR A_uni030F.ccmp
ENCODING -1
SWIDTH 576 0
DWIDTH 10 0
BBX 10 16 0 0
BITMAP
1EB000
076800
000000
00B000
00F400
01F800
029C00
038D00
074A00
0B0B00
0E0740
1FFF80
2D56C0
3801D0
3400E0
7400B0
ENDCHAR
STARTCHAR a_uni030F.ccmp
ENCODING -1
SWIDTH 479 0
DWIDTH 9 0
BBX 7 13 1 0
BITMAP
EB00
2A80
0000
1F90
79B0
A074
0074
1BF4
7974
E074
E074
BAF4
2F78
ENDCHAR
STARTCHAR E_uni030F.ccmp
ENCODING -1
SWIDTH 496 0
DWIDTH 9 0
BBX 8 16 1 0
BITMAP
B740
2DC0
0000
BFFD
B554
B000
B000
B000
B000
BFF8
B554
B000
B000
B000
B554
BFFD
ENDCHAR
STARTCHAR e_uni030F.ccmp
ENCODING -1
SWIDTH 468 0
DWIDTH 8 0
BBX 8 13 0 0
BITMAP
7AC0
0EA0
0000
07E4
1E6C
280E
340E
3FFE
3955
3800
3800
1E5D
07F8
ENDCHAR
STARTCHAR I_uni030F.ccmp
ENCODING -1
SWIDTH 250 0
DWIDTH 5 0
BBX 6 16 -2 0
BITMAP
7AC0
1DA0
0000
02C0
02C0
02C0
02C0
02C0
02C0
02C0
02C0
02C0
02C0
02C0
02C0
02C0
ENDCHAR
STARTCHAR dotlessi_uni030F.ccmp
ENCODING -1
SWIDTH 234 0
DWIDTH 4 0
BBX 6 13 -2 0
BITMAP
7680
1DD0
0000
02C0
02C0
02C0
02C0
02C0
02C0
02C0
02C0
02C0
02C0
ENDCHAR
STARTCHAR O_uni030F.ccmp
ENCODING -1
SWIDTH 600 0
DWIDTH 11 0
BBX 9 16 1 0
BITMAP
3AC000
0AA000
000000
0BF400
2EAE00
740B40
B00340
E00380
E00380
E00380
E00380
E00380
B00340
740B40
2E6E00
0BF400
ENDCHAR
STARTCHAR o_uni030F.ccmp
ENCODING -1
SWIDTH 501 0
DWIDTH 9 0
BBX 8 13 1 0
BITMAP
EB00
2A80
0000
1FD0
79B4
B028
E01C
D01D
D01C
E01C
A02C
79B4
1FD0
ENDCHAR
STARTCHAR R_uni030F.ccmp
ENCODING -1
SWIDTH 530 0
DWIDTH 10 0
BBX 8 16 1 0
BITMAP
B740
29C0
0000
BFE4
B57D
B00E
B00E
B00E
B02D
BFF8
B5B0
B074
B038
B01D
B00E
B00B
ENDCHAR
STARTCHAR r_uni030F.ccmp
ENCODING -1
SWIDTH 304 0
DWIDTH 5 0
BBX 6 13 -1 0
BITMAP
7A80
1D90
0000
0EB0
0FE0
0F00
0E00
0E00
0E00
0E00
0E00
0E00
0E00
ENDCHAR
STARTCHAR U_uni030F.ccmp
ENCODING -1
SWIDTH 561 0
DWIDTH 10 0
BBX 8 16 1 0
BITMAP
7680
1DD0
0000
E00B
E00B
E00B
E00B
E00B
E00B
E00B
E00B
E00B
A00B
B00E
7D6D
1BE4
ENDCHAR
STARTCHAR u_uni030F.ccmp
ENCODING -1
SWIDTH 483 0
DWIDTH 9 0
BBX 8 13 0 0
BITMAP
7AC0
0EA0
0000
380E
380E
380E
380E
380E
380E
380E
2C0E
1E7E
0BDE
ENDCHAR
STARTCHAR Upsilon1_acutecomb.ccmp
ENCODING -1
SWIDTH 514 0
DWIDTH 9 0
BBX 12 14 -2 0
BITMAP
E00000
D3802D
82D078
00E0B0
0074E0
0039D0
002E80
001F40
000F00
000B00
000B00
000B00
000B00
000B00
ENDCHAR
STARTCHAR B_dotbelowcomb.ccmp
ENCODING -1
SWIDTH 545 0
DWIDTH 10 0
BBX 8 16 1 -3
BITMAP
BFE4
B57C
B01D
B00E
B01D
B02C
BFF4
B56D
B00E
B00E
B00E
B56D
BFE4
0000
0340
0240
ENDCHAR
STARTCHAR b_dotbelowcomb.ccmp
ENCODING -1
SWIDTH 493 0
DWIDTH 9 0
BBX 7 17 1 -3
BITMAP
A000
A000
A000
A000
ABE0
B9B4
B028
A02C
A02C
A02C
A02C
B038
B9B4
ABE0
0000
0740
0640
ENDCHAR
STARTCHAR D_dotbelowcomb.ccmp
ENCODING -1
SWIDTH 570 0
DWIDTH 10 0
BBX 8 16 1 -3
BITMAP
BFE0
B5BC
B01E
B00B
B007
B007
B007
B007
B00B
B00B
B01E
B5BC
BFE0
0000
0340
0240
ENDCHAR
STARTCHAR d_dotbelowcomb.ccmp
ENCODING -1
SWIDTH 496 0
DWIDTH 9 0
BBX 7 17 1 -3
BITMAP
0038
0038
0038
0038
2F78
B9B8
E038
D038
D038
D038
D038
E038
79B8
2F68
0000
0340
0240
ENDCHAR
STARTCHAR D_uniF6C3.ccmp
ENCODING -1
SWIDTH 570 0
DWIDTH 10 0
BBX 8 18 1 -5
BITMAP
BFE0
B5BC
B01E
B00B
B007
B007
B007
B007
B00B
B00B
B01E
B5BC
BFE0
0000
0340
0340
0700
0600
ENDCHAR
STARTCHAR d_uniF6C3.ccmp
ENCODING -1
SWIDTH 496 0
DWIDTH 9 0
BBX 7 19 1 -5
BITMAP
0038
0038
0038
0038
2F78
B9B8
E038
D038
D038
D038
D038
E038
79B8
2F68
0000
0340
0340
0700
0600
ENDCHAR
STARTCHAR H_dotbelowcomb.ccmp
ENCODING -1
SWIDTH 620 0
DWIDTH 11 0
BBX 9 16 1 -3
BITMAP
B00380
B00380
B00380
B00380
B00380
B00380
BFFF80
B55780
B00380
B00380
B00380
B00380
B00380
000000
01D000
018000
ENDCHAR
STARTCHAR h_dotbelowcomb.ccmp
ENCODING -1
SWIDTH 482 0
DWIDTH 9 0
BBX 7 17 1 -3
BITMAP
E000
E000
E000
E000
EBD0
F9B0
F034
E038
E038
E038
E038
E038
E038
E038
0000
0740
0640
ENDCHAR
STARTCHAR K_acutecomb.ccmp
ENCODING -1
SWIDTH 544 0
DWIDTH 10 0
BBX 9 17 1 0
BITMAP
00F000
02D000
024000
000000
B00F00
B02D00
B07800
B0F000
B2D000
B74000
BF8000
BAD000
B0F000
B07800
B02D00
B00E00
B00740
ENDCHAR
STARTCHAR k_acutecomb.ccmp
ENCODING -1
SWIDTH 450 0
DWIDTH 8 0
BBX 7 18 1 0
BITMAP
01E0
0380
0700
0000
A000
A000
A000
A000
A0B4
A1D0
A380
AB00
BE00
BB40
A3C0
A1D0
A0B0
A038
ENDCHAR
STARTCHAR K_dotbelowcomb.ccmp
ENCODING -1
SWIDTH 544 0
DWIDTH 10 0
BBX 9 15 1 -2
BITMAP
B00F00
B02D00
B07800
B0F000
B2D000
B74000
BF8000
BAD000
B0F000
B07800
B02D00
B00E00
B00740
028000
028000
ENDCHAR
STARTCHAR k_dotbelowcomb.ccmp
ENCODING -1
SWIDTH 450 0
DWIDTH 8 0
BBX 7 16 1 -2
BITMAP
A000
A000
A000
A000
A0B4
A1D0
A380
AB00
BE00
BB40
A3C0
A1D0
A0B0
A038
0A00
0A00
ENDCHAR
STARTCHAR L_dotbelowcomb.ccmp
ENCODING -1
SWIDTH 475 0
DWIDTH 9 0
BBX 7 16 1 -3
BITMAP
B000
B000
B000
B000
B000
B000
B000
B000
B000
B000
B000
B554
BFFC
0000
0340
0240
ENDCHAR
STARTCHAR l_dotbelowcomb.ccmp
ENCODING -1
SWIDTH 229 0
DWIDTH 4 0
BBX 2 17 1 -3
BITMAP
B0
B0
B0
B0
B0
B0
B0
B0
B0
B0
B0
B0
B0
B0
00
A0
A0
ENDCHAR
STARTCHAR M_dotbelowcomb.ccmp
ENCODING -1
SWIDTH 755 0
DWIDTH 14 0
BBX 12 16 1 -3
BITMAP
B8003D
BC007D
BD00BD
BE00ED
BB01ED
B742DD
B3839D
B2875D
B1CB1D
B0DE1D
B0BD1D
B07C1D
B0381D
000000
003400
002400
ENDCHAR
STARTCHAR m_dotbelowcomb.ccmp
ENCODING -1
SWIDTH 752 0
DWIDTH 14 0
BBX 12 13 1 -3
BITMAP
ABD2F4
B9BE7C
A0781D
A0381D
A0381D
A0381D
A0381D
A0381D
A0381D
A0381D
000000
003400
002400
ENDCHAR
STARTCHAR N_dotbelowcomb.ccmp
ENCODING -1
SWIDTH 619 0
DWIDTH 11 0
BBX 9 16 1 -3
BITMAP
B40380
B80380
BD0380
BA0380
B74380
B28380
B1D380
B0A380
B07780
B02F80
B00F80
B00B80
B00380
000000
01D000
018000
ENDCHAR
STARTCHAR n_dotbelowcomb.ccmp
ENCODING -1
SWIDTH 483 0
DWIDTH 9 0
BBX 7 13 1 -3
BITMAP
EBD0
F9B0
F034
E038
E038
E038
E038
E038
E038
E038
0000
0B00
0600
ENDCHAR
STARTCHAR O_tildecomb_acutecomb.ccmp
ENCODING -1
SWIDTH 600 0
DWIDTH 11 0
BBX 9 18 1 0
BITMAP
007000
00D000
079400
09B000
000000
0BF400
2EAE00
740B40
B00340
E00380
E00380
E00380
E00380
E00380
B00340
740B40
2E6E00
0BF400
ENDCHAR
STARTCHAR P_acutecomb.ccmp
ENCODING -1
SWIDTH 554 0
DWIDTH 10 0
BBX 9 17 1 0
BITMAP
00B000
02D000
024000
000000
BFF400
B56D00
B00B00
B00740
B00740
B00B00
B01E00
BFFC00
B55000
B00000
B00000
B00000
B00000
ENDCHAR
STARTCHAR p_acutecomb.ccmp
ENCODING -1
SWIDTH 493 0
DWIDTH 9 0
BBX 7 18 1 -4
BITMAP
00B4
01D0
0280
0000
ABE0
B9B4
A038
A02C
A02C
A02C
A02C
A038
B9B4
ABE0
A000
A000
A000
A000
ENDCHAR
STARTCHAR R_dotbelowcomb.ccmp
ENCODING -1
SWIDTH 530 0
DWIDTH 10 0
BBX 8 16 1 -3
BITMAP
BFE4
B57D
B00E
B00E
B00E
B02D
BFF8
B5B0
B074
B038
B01D
B00E
B00B
0000
0340
0240
ENDCHAR
STARTCHAR r_dotbelowcomb.ccmp
ENCODING -1
SWIDTH 304 0
DWIDTH 5 0
BBX 4 13 1 -3
BITMAP
EB
FE
F0
E0
E0
E0
E0
E0
E0
E0
00
A0
A0
ENDCHAR
STARTCHAR S_dotbelowcomb.ccmp
ENCODING -1
SWIDTH 518 0
DWIDTH 9 0
BBX 9 16 0 -3
BITMAP
06F800
1E6E00
2C0740
380340
2C0000
1F8000
06F800
006F00
000740
740380
380740
1E5F00
06F800
000000
00E000
009000
ENDCHAR
STARTCHAR s_dotbelowcomb.ccmp
ENCODING -1
SWIDTH 455 0
DWIDTH 8 0
BBX 7 13 1 -3
BITMAP
2F80
79E0
A070
B400
3E40
07E0
00B4
E074
B5B0
2F90
0000
0700
0600
ENDCHAR
STARTCHAR T_dotbelowcomb.ccmp
ENCODING -1
SWIDTH 520 0
DWIDTH 9 0
BBX 9 16 0 -3
BITMAP
7FFFC0
55E540
00E000
00E000
00E000
00E000
00E000
00E000
00E000
00E000
00E000
00E000
00E000
000000
00D000
009000
ENDCHAR
STARTCHAR t_dotbelowcomb.ccmp
ENCODING -1
SWIDTH 295 0
DWIDTH 5 0
BBX 5 15 0 -3
BITMAP
1D00
1D00
BF80
6D00
1D00
1D00
1D00
1D00
1D00
1D00
1E40
0B80
0000
0740
0640
ENDCHAR
STARTCHAR U_tildecomb_acutecomb.ccmp
ENCODING -1
SWIDTH 561 0
DWIDTH 10 0
BBX 8 18 1 0
BITMAP
0090
0180
0B60
09E0
0000
E00B
E00B
E00B
E00B
E00B
E00B
E00B
E00B
E00B
A00B
B00E
7D6D
1BE4
ENDCHAR
STARTCHAR V_tildecomb.ccmp
ENCODING -1
SWIDTH 560 0
DWIDTH 10 0
BBX 10 17 0 0
BITMAP
000100
07DA00
062C00
000000
7401E0
7801D0
3802C0
2C0380
1D0740
0E0B00
0B0E00
074D00
035C00
02A800
01F800
00F400
00B000
ENDCHAR
STARTCHAR v_tildecomb.ccmp
ENCODING -1
SWIDTH 427 0
DWIDTH 8 0
BBX 7 14 0 0
BITMAP
0014
1F64
25E0
0000
701C
3428
3838
2C74
1C70
0DA0
0AD0
07C0
03C0
0380
ENDCHAR
STARTCHAR V_dotbelowcomb.ccmp
ENCODING -1
SWIDTH 560 0
DWIDTH 10 0
BBX 10 16 0 -3
BITMAP
7401E0
7801D0
3802C0
2C0380
1D0740
0E0B00
0B0E00
074D00
035C00
02A800
01F800
00F400
00B000
000000
00A000
00A000
ENDCHAR
STARTCHAR v_dotbelowcomb.ccmp
ENCODING -1
SWIDTH 427 0
DWIDTH 8 0
BBX 7 13 0 -3
BITMAP
701C
3428
3838
2C74
1C70
0DA0
0AD0
07C0
03C0
0380
0000
0380
0280
ENDCHAR
STARTCHAR W_dotbelowcomb.ccmp
ENCODING -1
SWIDTH 761 0
DWIDTH 14 0
BBX 13 16 0 -3
BITMAP
740A01C0
380F02C0
381F4280
2C1F4380
1C2A8340
1D35C700
0D71CB00
0E70DA00
0AA0AE00
0BD0AD00
07D07D00
03C03C00
03803800
00000000
000A0000
000A0000
ENDCHAR
STARTCHAR w_dotbelowcomb.ccmp
ENCODING -1
SWIDTH 649 0
DWIDTH 12 0
BBX 11 13 0 -3
BITMAP
70381C
74382C
387C28
28AD34
2CDA74
1DCB70
0EC7A0
0B83D0
0B42D0
0701C0
000000
003800
002400
ENDCHAR
STARTCHAR Z_dotbelowcomb.ccmp
ENCODING -1
SWIDTH 522 0
DWIDTH 9 0
BBX 9 16 0 -3
BITMAP
3FFF40
155B40
000E00
002C00
003800
00B000
01D000
02C000
074000
0E0000
2D0000
3D5540
7FFF80
000000
01D000
009000
ENDCHAR
STARTCHAR z_dotbelowcomb.ccmp
ENCODING -1
SWIDTH 438 0
DWIDTH 8 0
BBX 8 13 0 -3
BITMAP
3FFC
1578
0074
00E0
02C0
0740
0B00
1D00
3D54
7FFD
0000
0280
0280
ENDCHAR
STARTCHAR Alphatonos.c2sc
ENCODING -1
SWIDTH 501 0
DWIDTH 9 0
BBX 9 11 0 0
BITMAP
2C0000
29D000
26E000
03B000
073400
0A2800
0D1C00
1FFD00
295A00
340740
B00380
ENDCHAR
STARTCHAR Epsilontonos.c2sc
ENCODING -1
SWIDTH 458 0
DWIDTH 8 0
BBX 9 11 -1 0
BITMAP
E00000
D7FF80
875540
074000
074000
07FF00
075500
074000
074000
075540
07FF80
ENDCHAR
STARTCHAR Etatonos.c2sc
ENCODING -1
SWIDTH 562 0
DWIDTH 10 0
BBX 10 11 -1 0
BITMAP
A00000
9740B0
8740B0
0740B0
0740B0
07FFF0
0755B0
0740B0
0740B0
0740B0
0740B0
ENDCHAR
STARTCHAR Iotatonos.c2sc
ENCODING -1
SWIDTH 250 0
DWIDTH 5 0
BBX 5 11 -1 0
BITMAP
A000
9740
8740
0740
0740
0740
0740
0740
0740
0740
0740
ENDCHAR
STARTCHAR Omicrontonos.c2sc
ENCODING -1
SWIDTH 523 0
DWIDTH 9 0
BBX 10 11 -1 0
BITMAP
340000
71BE00
639B80
0B01D0
0E00D0
0E00E0
0E00E0
0E00D0
0B01D0
079B80
01BE00
ENDCHAR
STARTCHAR Upsilontonos.c2sc
ENCODING -1
SWIDTH 487 0
DWIDTH 9 0
BBX 11 11 -2 0
BITMAP
700000
A38074
52D0E0
00E1D0
00B280
003B40
002F00
001D00
000D00
000D00
000D00
ENDCHAR
STARTCHAR Omegatonos.c2sc
ENCODING -1
SWIDTH 545 0
DWIDTH 10 0
BBX 9 11 0 0
BITMAP
E00000
D2F800
8F5F00
2C0740
280380
380280
380280
2C0380
1D0740
1F5F40
3FAF80
ENDCHAR
STARTCHAR Alpha.c2sc
ENCODING -1
SWIDTH 501 0
DWIDTH 9 0
BBX 9 10 0 0
BITMAP
01D000
02E000
03B000
073400
0A2800
0D1C00
1FFD00
295A00
340740
B00380
ENDCHAR
STARTCHAR Beta.c2sc
ENCODING -1
SWIDTH 475 0
DWIDTH 9 0
BBX 7 10 1 0
BITMAP
FF90
E5B4
E034
E074
FFE0
E5B4
E038
E038
E5B4
FFD0
ENDCHAR
STARTCHAR Epsilon.c2sc
ENCODING -1
SWIDTH 428 0
DWIDTH 8 0
BBX 6 10 1 0
BITMAP
FFF0
E000
E000
E000
FFE0
E000
E000
E000
E000
FFF0
ENDCHAR
STARTCHAR Zeta.c2sc
ENCODING -1
SWIDTH 454 0
DWIDTH 8 0
BBX 8 10 0 0
BITMAP
7FFD
156C
0074
00A0
01D0
0380
0B00
1D00
3955
7FFE
ENDCHAR
STARTCHAR Eta.c2sc
ENCODING -1
SWIDTH 533 0
DWIDTH 10 0
BBX 8 10 1 0
BITMAP
E00D
E00D
E00D
E00D
FFFD
E55D
E00D
E00D
E00D
E00D
ENDCHAR
STARTCHAR Iota.c2sc
ENCODING -1
SWIDTH 221 0
DWIDTH 4 0
BBX 2 10 1 0
BITMAP
A0
A0
A0
A0
A0
A0
A0
A0
A0
A0
ENDCHAR
STARTCHAR Kappa.c2sc
ENCODING -1
SWIDTH 473 0
DWIDTH 9 0
BBX 7 10 1 0
BITMAP
E038
E0B0
E2D0
E740
FF00
FF40
F2C0
E0E0
E074
E02C
ENDCHAR
STARTCHAR Mu.c2sc
ENCODING -1
SWIDTH 652 0
DWIDTH 12 0
BBX 10 10 1 0
BITMAP
F402E0
F803E0
FC07E0
ED0AE0
EA0DE0
E71CE0
E368E0
E2B4E0
E1F0E0
E0E0E0
ENDCHAR
STARTCHAR Nu.c2sc
ENCODING -1
SWIDTH 533 0
DWIDTH 10 0
BBX 8 10 1 0
BITMAP
F00D
F80D
FC0D
EA0D
E74D
E28D
E0DD
E0BD
E03D
E01D
ENDCHAR
STARTCHAR Omicron.c2sc
ENCODING -1
SWIDTH 519 0
DWIDTH 9 0
BBX 8 10 1 0
BITMAP
1BD0
79B8
B02C
E01D
D00D
D00D
E01D
B02C
79B8
1BE0
ENDCHAR
STARTCHAR Rho.c2sc
ENCODING -1
SWIDTH 481 0
DWIDTH 9 0
BBX 7 10 1 0
BITMAP
FFE0
E5B8
E02C
E02C
E078
FFF4
E540
E000
E000
E000
ENDCHAR
STARTCHAR Tau.c2sc
ENCODING -1
SWIDTH 456 0
DWIDTH 8 0
BBX 8 10 0 0
BITMAP
BFFE
56D5
02C0
02C0
02C0
02C0
02C0
02C0
02C0
02C0
ENDCHAR
STARTCHAR Upsilon.c2sc
ENCODING -1
SWIDTH 458 0
DWIDTH 8 0
BBX 8 10 0 0
BITMAP
B40E
381D
2C38
0E74
0BA0
03D0
02C0
02C0
02C0
02C0
ENDCHAR
STARTCHAR Chi.c2sc
ENCODING -1
SWIDTH 478 0
DWIDTH 9 0
BBX 8 10 0 0
BITMAP
780E
2C2D
0E38
07B0
03D0
03E0
0BB0
0E38
2C1D
780F
ENDCHAR
STARTCHAR Iotadieresis.c2sc
ENCODING -1
SWIDTH 221 0
DWIDTH 4 0
BBX 6 13 -1 0
BITMAP
A0A0
B0A0
0000
0A00
0A00
0A00
0A00
0A00
0A00
0A00
0A00
0A00
0A00
ENDCHAR
STARTCHAR Upsilondieresis.c2sc
ENCODING -1
SWIDTH 458 0
DWIDTH 8 0
BBX 8 13 0 0
BITMAP
1828
2C28
0000
B40E
381D
2C38
0E74
0BA0
03D0
02C0
02C0
02C0
02C0
ENDCHAR
STARTCHAR uni0401.c2sc
ENCODING -1
SWIDTH 428 0
DWIDTH 8 0
BBX 6 13 1 0
BITMAP
60A0
70A0
0000
FFF0
E550
E000
E000
FFE0
E550
E000
E000
E550
FFF0
ENDCHAR
STARTCHAR uni0403.c2sc
ENCODING -1
SWIDTH 405 0
DWIDTH 7 0
BBX 6 14 1 0
BITMAP
01E0
0380
0600
0000
FFF0
E550
E000
E000
E000
E000
E000
E000
E000
E000
ENDCHAR
STARTCHAR uni0405.c2sc
ENCODING -1
SWIDTH 453 0
DWIDTH 8 0
BBX 8 10 0 0
BITMAP
0BE4
2D6C
381D
3C00
1F90
01B8
101D
740D
2D6D
0BE4
ENDCHAR
STARTCHAR uni0406.c2sc
ENCODING -1
SWIDTH 221 0
DWIDTH 4 0
BBX 2 10 1 0
BITMAP
A0
A0
A0
A0
A0
A0
A0
A0
A0
A0
ENDCHAR
ENDFONT
